<?xml version="1.0" encoding="utf-8"?>
<!-- Generator: Adobe Illustrator 15.0.0, SVG Export Plug-In . SVG Version: 6.00 Build 0)  -->
<!DOCTYPE svg PUBLIC "-//W3C//DTD SVG 1.1//EN" "http://www.w3.org/Graphics/SVG/1.1/DTD/svg11.dtd">
<svg version="1.1" id="图层_1" xmlns="http://www.w3.org/2000/svg" xmlns:xlink="http://www.w3.org/1999/xlink" x="0px" y="0px"
	 width="595.279px" height="841.89px" viewBox="0 0 595.279 841.89" enable-background="new 0 0 595.279 841.89"
	 xml:space="preserve">
<g>
	<g>
		
			<radialGradient id="SVGID_1_" cx="297.2747" cy="1727.5425" r="122.3879" gradientTransform="matrix(1 0 0 0.323 0 -13.6804)" gradientUnits="userSpaceOnUse">
			<stop  offset="0" style="stop-color:#CFD4DC"/>
			<stop  offset="0.4532" style="stop-color:#E4E6EB"/>
			<stop  offset="0.9515" style="stop-color:#FFFFFF"/>
		</radialGradient>
		<ellipse opacity="0.7" fill="url(#SVGID_1_)" cx="297.275" cy="544.316" rx="122.394" ry="39.529"/>
		<g>
			<linearGradient id="SVGID_2_" gradientUnits="userSpaceOnUse" x1="379.9099" y1="290.7056" x2="209.1002" y2="461.5153">
				<stop  offset="0" style="stop-color:#FFF099"/>
				<stop  offset="0.1812" style="stop-color:#FCED96"/>
				<stop  offset="0.3401" style="stop-color:#F1E28E"/>
				<stop  offset="0.4908" style="stop-color:#DFD081"/>
				<stop  offset="0.6363" style="stop-color:#C5B76D"/>
				<stop  offset="0.7781" style="stop-color:#A59754"/>
				<stop  offset="0.9154" style="stop-color:#7D7037"/>
				<stop  offset="1" style="stop-color:#615421"/>
			</linearGradient>
			<path fill="url(#SVGID_2_)" d="M410.874,371.396c0,62.56-59.744,112.392-113.275,156.353
				c-49.991-38.289-113.273-93.793-113.273-156.353c0-62.559,50.717-113.271,113.273-113.271
				C360.157,258.125,410.874,308.838,410.874,371.396z"/>
			<path fill="#D36026" d="M297.553,525.048c-21.018-16.148-50.926-40.383-73.709-67.729c-24.82-29.777-37.403-58.687-37.403-85.923
				c0-61.294,49.867-111.158,111.158-111.158c61.291,0,111.152,49.864,111.152,111.158c0,27.458-11.797,54.869-36.066,83.791
				C351.034,480.984,322.737,504.365,297.553,525.048z"/>
			<circle fill="#D36026" cx="297.599" cy="367.258" r="89.908"/>
			<g>
				<path fill="#828892" d="M383.083,367.258c0,47.216-38.275,85.49-85.484,85.49c-47.211,0-85.484-38.274-85.484-85.49
					c0-47.211,38.273-85.486,85.484-85.486C344.807,281.772,383.083,320.046,383.083,367.258z"/>
				<radialGradient id="SVGID_3_" cx="348.74" cy="331.9346" r="139.004" gradientUnits="userSpaceOnUse">
					<stop  offset="0" style="stop-color:#90959E"/>
					<stop  offset="0.6521" style="stop-color:#8D929C"/>
					<stop  offset="1" style="stop-color:#878D97"/>
				</radialGradient>
				<path fill="url(#SVGID_3_)" d="M381.899,367.689c0,46.79-37.931,84.719-84.713,84.719c-46.787,0-84.714-37.929-84.714-84.719
					c0-46.786,37.928-84.715,84.714-84.715C343.969,282.974,381.899,320.903,381.899,367.689z"/>
				<radialGradient id="SVGID_4_" cx="347.8572" cy="332.6904" r="137.7397" gradientUnits="userSpaceOnUse">
					<stop  offset="0" style="stop-color:#9EA2AA"/>
					<stop  offset="0.5019" style="stop-color:#9B9FA8"/>
					<stop  offset="0.863" style="stop-color:#9297A1"/>
					<stop  offset="1" style="stop-color:#8C929D"/>
				</radialGradient>
				<path fill="url(#SVGID_4_)" d="M380.715,368.12c0,46.364-37.585,83.948-83.942,83.948c-46.361,0-83.944-37.583-83.944-83.948
					c0-46.361,37.583-83.945,83.944-83.945C343.13,284.175,380.715,321.759,380.715,368.12z"/>
				<radialGradient id="SVGID_5_" cx="346.9753" cy="333.4468" r="136.4739" gradientUnits="userSpaceOnUse">
					<stop  offset="0" style="stop-color:#ACB0B6"/>
					<stop  offset="0.4248" style="stop-color:#A9ADB4"/>
					<stop  offset="0.7304" style="stop-color:#A0A5AD"/>
					<stop  offset="0.9983" style="stop-color:#9097A2"/>
					<stop  offset="1" style="stop-color:#9097A2"/>
				</radialGradient>
				<path fill="url(#SVGID_5_)" d="M379.531,368.551c0,45.938-37.24,83.176-83.172,83.176c-45.937,0-83.174-37.237-83.174-83.176
					c0-45.936,37.237-83.174,83.174-83.174C342.291,285.377,379.531,322.615,379.531,368.551z"/>
				<radialGradient id="SVGID_6_" cx="346.0916" cy="334.2026" r="135.2099" gradientUnits="userSpaceOnUse">
					<stop  offset="0" style="stop-color:#BABDC2"/>
					<stop  offset="0.3824" style="stop-color:#B7BAC0"/>
					<stop  offset="0.6578" style="stop-color:#AEB2B9"/>
					<stop  offset="0.8988" style="stop-color:#9EA4AE"/>
					<stop  offset="1" style="stop-color:#959CA8"/>
				</radialGradient>
				<path fill="url(#SVGID_6_)" d="M378.346,368.982c0,45.513-36.895,82.405-82.401,82.405c-45.511,0-82.403-36.892-82.403-82.405
					c0-45.511,36.892-82.404,82.403-82.404C341.452,286.579,378.346,323.471,378.346,368.982z"/>
				<radialGradient id="SVGID_7_" cx="345.2097" cy="334.9585" r="133.9456" gradientUnits="userSpaceOnUse">
					<stop  offset="0" style="stop-color:#C7CACF"/>
					<stop  offset="0.3552" style="stop-color:#C4C7CD"/>
					<stop  offset="0.6109" style="stop-color:#BBBFC6"/>
					<stop  offset="0.8348" style="stop-color:#ABB1BA"/>
					<stop  offset="1" style="stop-color:#9AA2AD"/>
				</radialGradient>
				<path fill="url(#SVGID_7_)" d="M377.163,369.413c0,45.088-36.551,81.634-81.63,81.634c-45.087,0-81.633-36.546-81.633-81.634
					c0-45.085,36.546-81.633,81.633-81.633C340.612,287.78,377.163,324.328,377.163,369.413z"/>
				<radialGradient id="SVGID_8_" cx="344.3269" cy="335.7144" r="132.6813" gradientUnits="userSpaceOnUse">
					<stop  offset="0" style="stop-color:#D5D7DB"/>
					<stop  offset="0.3315" style="stop-color:#D2D4D9"/>
					<stop  offset="0.5703" style="stop-color:#C9CCD2"/>
					<stop  offset="0.7799" style="stop-color:#B9BEC6"/>
					<stop  offset="0.9717" style="stop-color:#A3ABB6"/>
					<stop  offset="1" style="stop-color:#9FA7B3"/>
				</radialGradient>
				<path fill="url(#SVGID_8_)" d="M375.978,369.844c0,44.662-36.205,80.863-80.859,80.863c-44.662,0-80.862-36.201-80.862-80.863
					c0-44.661,36.201-80.863,80.862-80.863C339.773,288.981,375.978,325.184,375.978,369.844z"/>
				<radialGradient id="SVGID_9_" cx="343.4451" cy="336.4707" r="131.4154" gradientUnits="userSpaceOnUse">
					<stop  offset="0" style="stop-color:#E3E5E7"/>
					<stop  offset="0.3109" style="stop-color:#E0E2E5"/>
					<stop  offset="0.5348" style="stop-color:#D7DADE"/>
					<stop  offset="0.7314" style="stop-color:#C7CCD2"/>
					<stop  offset="0.9113" style="stop-color:#B1B8C2"/>
					<stop  offset="1" style="stop-color:#A3ACB8"/>
				</radialGradient>
				<path fill="url(#SVGID_9_)" d="M374.795,370.275c0,44.236-35.86,80.091-80.089,80.091c-44.237,0-80.092-35.855-80.092-80.091
					c0-44.235,35.855-80.092,80.092-80.092C338.934,290.183,374.795,326.04,374.795,370.275z"/>
				<radialGradient id="SVGID_10_" cx="342.5623" cy="337.2266" r="130.1511" gradientUnits="userSpaceOnUse">
					<stop  offset="0" style="stop-color:#F1F2F3"/>
					<stop  offset="0.2959" style="stop-color:#EEEFF1"/>
					<stop  offset="0.5089" style="stop-color:#E5E7EA"/>
					<stop  offset="0.696" style="stop-color:#D5D9DF"/>
					<stop  offset="0.8672" style="stop-color:#BFC5CF"/>
					<stop  offset="1" style="stop-color:#A8B1BE"/>
				</radialGradient>
				<path fill="url(#SVGID_10_)" d="M373.61,370.707c0,43.811-35.515,79.32-79.318,79.32c-43.812,0-79.322-35.51-79.322-79.32
					s35.51-79.322,79.322-79.322C338.095,291.385,373.61,326.896,373.61,370.707z"/>
				<radialGradient id="SVGID_11_" cx="341.6794" cy="337.9829" r="128.8866" gradientUnits="userSpaceOnUse">
					<stop  offset="0" style="stop-color:#FFFFFF"/>
					<stop  offset="0.2832" style="stop-color:#FCFCFD"/>
					<stop  offset="0.4871" style="stop-color:#F3F4F6"/>
					<stop  offset="0.6662" style="stop-color:#E3E6EB"/>
					<stop  offset="0.8309" style="stop-color:#CDD2DA"/>
					<stop  offset="0.9845" style="stop-color:#B0B9C5"/>
					<stop  offset="1" style="stop-color:#ADB6C3"/>
				</radialGradient>
				<path fill="url(#SVGID_11_)" d="M372.427,371.138c0,43.385-35.17,78.549-78.547,78.549c-43.387,0-78.552-35.165-78.552-78.549
					c0-43.385,35.165-78.551,78.552-78.551C337.257,292.586,372.427,327.752,372.427,371.138z"/>
			</g>
		</g>
	</g>
	<g>
		<path fill-rule="evenodd" clip-rule="evenodd" fill="#6FBD44" d="M249.078,346.203l-16.67,48.201
			c-1.082,3.461-4.563,5.279-7.754,4.063l-1.095-0.418c-3.193-1.215-4.906-5.005-3.818-8.465l16.663-48.195
			c1.087-3.458,4.562-5.284,7.755-4.071l1.095,0.42C248.446,338.953,250.16,342.752,249.078,346.203z"/>
		<path fill-rule="evenodd" clip-rule="evenodd" fill="#6FBD44" d="M236.071,345.908l16.578,48.533
			c1.089,3.46,4.562,5.278,7.755,4.064l1.101-0.42c3.193-1.215,4.901-5.014,3.819-8.465l-16.585-48.527
			c-1.082-3.458-4.556-5.284-7.748-4.07l-1.102,0.42C236.696,338.658,234.989,342.456,236.071,345.908z"/>
		<path fill-rule="evenodd" clip-rule="evenodd" fill="#6FBD44" d="M242.626,342.634c0.685,0,1.238,0.632,1.238,1.405
			c0,0.771-0.554,1.397-1.238,1.397s-1.245-0.626-1.245-1.397C241.382,343.266,241.942,342.634,242.626,342.634z"/>
		<path fill-rule="evenodd" clip-rule="evenodd" fill="#6FBD44" d="M256.057,375.195h-26.894c-3.173,0-5.747,2.906-5.747,6.499
			v1.229c0,3.583,2.574,6.499,5.747,6.499h26.894c3.18,0,5.754-2.916,5.754-6.499v-1.229
			C261.811,378.102,259.237,375.195,256.057,375.195z"/>
		<path fill-rule="evenodd" clip-rule="evenodd" fill="#6FBD44" d="M229.221,380.619c0.686,0,1.245,0.626,1.245,1.399
			c0,0.772-0.56,1.405-1.245,1.405c-0.683,0-1.237-0.633-1.237-1.405C227.984,381.245,228.538,380.619,229.221,380.619z"/>
		<path fill-rule="evenodd" clip-rule="evenodd" fill="#6FBD44" d="M255.581,380.619c0.684,0,1.238,0.626,1.238,1.399
			c0,0.772-0.554,1.405-1.238,1.405c-0.689,0-1.244-0.633-1.244-1.405C254.337,381.245,254.892,380.619,255.581,380.619z"/>
		<g>
			<path fill-rule="evenodd" clip-rule="evenodd" fill="#6FBD44" d="M283.918,371.275h11.893c3.245,0,5.213,2.974,5.213,6.553v1.229
				c0,3.576-2.633,6.476-5.878,6.476l-6.543-0.095l-4.685,0.022c-3.246,0-5.877-2.9-5.877-6.479v-1.229
				C278.041,374.177,280.672,371.275,283.918,371.275z"/>
			<path fill-rule="evenodd" clip-rule="evenodd" fill="#6FBD44" d="M283.918,337.152h11.893c3.245,0,5.213,2.975,5.213,6.551v1.229
				c0,3.569-2.633,6.479-5.878,6.479l-6.543-0.104l-4.685,0.03c-3.246,0-5.877-2.908-5.877-6.484v-1.223
				C278.041,340.055,280.672,337.152,283.918,337.152z"/>
			<path fill-rule="evenodd" clip-rule="evenodd" fill="#6FBD44" d="M296.078,337.152h0.605l0,0h3.069c0.079,0,0.164,0,0.241,0
				h0.138l0,0c2.86,0.053,5.356,0.707,7.486,1.976c2.224,1.315,4.08,3.089,5.565,5.334c1.479,2.245,2.595,4.82,3.337,7.722
				c0.742,2.899,1.115,5.961,1.115,9.191c0,3.24-0.373,6.316-1.115,9.246c-0.742,2.937-1.857,5.505-3.337,7.721
				c-1.485,2.216-3.342,3.975-5.565,5.291c-2.221,1.317-4.848,1.974-7.865,1.974h-3.069v-0.015h-0.605
				c-3.181,0-5.755-2.931-5.755-6.545v-1.243c0-3.612,2.575-6.552,5.755-6.552h1.726c1.435-0.042,2.653-0.337,3.662-0.889
				c1.083-0.604,1.956-1.361,2.62-2.289c0.665-0.929,1.154-1.994,1.466-3.187c0.319-1.201,0.482-2.371,0.482-3.505
				c0-1.198-0.163-2.384-0.482-3.546c-0.312-1.17-0.801-2.231-1.466-3.188c-0.664-0.965-1.537-1.745-2.62-2.343
				c-0.769-0.417-1.661-0.691-2.684-0.814h-2.705c-3.181,0-5.755-2.938-5.755-6.552v-1.243
				C290.323,340.082,292.898,337.152,296.078,337.152z"/>
			<path fill-rule="evenodd" clip-rule="evenodd" fill="#6FBD44" d="M276.692,343.63l-0.099,49c0.026,3.567,2.62,6.476,5.781,6.476
				h1.089c3.159,0,5.701-2.908,5.667-6.476l0.098-49c-0.033-3.575-2.618-6.478-5.787-6.478h-1.082
				C279.194,337.152,276.659,340.055,276.692,343.63z"/>
			<path fill-rule="evenodd" clip-rule="evenodd" fill="#6FBD44" d="M295.968,342.476c0.684,0,1.244,0.625,1.244,1.397
				c0,0.774-0.56,1.406-1.244,1.406c-0.684,0-1.238-0.632-1.238-1.406C294.73,343.101,295.284,342.476,295.968,342.476z"/>
			<path fill-rule="evenodd" clip-rule="evenodd" fill="#6FBD44" d="M295.968,376.848c0.684,0,1.244,0.626,1.244,1.397
				c0,0.774-0.56,1.406-1.244,1.406c-0.684,0-1.238-0.632-1.238-1.406C294.73,377.474,295.284,376.848,295.968,376.848z"/>
			<path fill-rule="evenodd" clip-rule="evenodd" fill="#6FBD44" d="M282.843,342.476c0.685,0,1.237,0.625,1.237,1.397
				c0,0.774-0.552,1.406-1.237,1.406c-0.69,0-1.245-0.632-1.245-1.406C281.598,343.101,282.153,342.476,282.843,342.476z"/>
		</g>
		<g>
			<path fill-rule="evenodd" clip-rule="evenodd" fill="#6FBD44" d="M358.69,358.137v17.105c0,3.445,2.572,6.243,5.74,6.243h1.094
				c3.168,0,5.742-2.798,5.742-6.243v-17.105c0-3.45-2.574-6.241-5.742-6.241h-1.094C361.262,351.896,358.69,354.687,358.69,358.137
				z"/>
			<path fill-rule="evenodd" clip-rule="evenodd" fill="#6FBD44" d="M328.368,358.137v17.105c0,3.445,2.574,6.243,5.748,6.243h1.088
				c3.174,0,5.746-2.798,5.746-6.243v-17.105c0-3.45-2.572-6.241-5.746-6.241h-1.088
				C330.942,351.896,328.368,354.687,328.368,358.137z"/>
			<path fill-rule="evenodd" clip-rule="evenodd" fill="#6FBD44" d="M341.688,398.568c-2.582-0.84-4.869-2.098-6.863-3.783
				c-1.992-1.679-3.576-3.783-4.75-6.309c-1.121-2.422-1.707-5.248-1.754-8.494l0,0v-0.234v-3.682l0,0v-0.685
				c0-3.604,2.607-6.528,5.82-6.528h1.109c3.211,0,5.816,2.924,5.816,6.528v3.077c0.113,1.155,0.359,2.166,0.73,3.034
				c0.535,1.235,1.225,2.222,2.08,2.972c0.854,0.752,1.799,1.312,2.834,1.673c1.035,0.359,2.084,0.535,3.154,0.535
				c1.01,0,2.045-0.176,3.115-0.535c1.063-0.361,2.006-0.921,2.834-1.673c0.828-0.75,1.504-1.736,2.033-2.972
				c0.494-1.143,0.756-2.524,0.795-4.153v-1.958c0-3.604,2.607-6.528,5.826-6.528h1.107c3.213,0,5.82,2.924,5.82,6.528l0.012,4.175
				c0,3.422-0.586,6.396-1.76,8.92c-1.166,2.525-2.736,4.63-4.703,6.309c-1.969,1.686-4.256,2.943-6.863,3.783
				c-2.605,0.847-5.344,1.266-8.217,1.266S344.262,399.415,341.688,398.568z"/>
			<path fill-rule="evenodd" clip-rule="evenodd" fill="#6FBD44" d="M328.321,360.147v-0.685l0,0v-3.48c0-0.098,0-0.186,0-0.281
				v-0.153l0,0c0.047-3.239,0.633-6.071,1.754-8.495c1.174-2.518,2.758-4.622,4.75-6.308c1.994-1.686,4.281-2.943,6.863-3.784
				c2.574-0.839,5.305-1.265,8.178-1.265s5.611,0.426,8.217,1.265c2.607,0.84,4.895,2.098,6.863,3.784
				c1.967,1.686,3.537,3.79,4.703,6.308c1.174,2.524,1.76,5.499,1.76,8.93v3.48h-0.012v0.685c0,3.606-2.607,6.528-5.82,6.528h-1.107
				c-3.219,0-5.826-2.922-5.826-6.528v-1.958c-0.039-1.628-0.301-3.011-0.795-4.151c-0.529-1.237-1.205-2.223-2.033-2.975
				c-0.828-0.75-1.771-1.31-2.834-1.669c-1.07-0.36-2.105-0.537-3.115-0.537c-1.07,0-2.119,0.177-3.154,0.537
				c-1.035,0.359-1.98,0.919-2.834,1.669c-0.855,0.752-1.545,1.737-2.08,2.975c-0.371,0.867-0.617,1.885-0.73,3.041v3.068
				c0,3.606-2.605,6.528-5.816,6.528h-1.109C330.928,366.676,328.321,363.754,328.321,360.147z"/>
			<path fill-rule="evenodd" clip-rule="evenodd" fill="#6FBD44" d="M364.932,373.814c0.684,0,1.238,0.626,1.238,1.4
				c0,0.771-0.555,1.404-1.238,1.404c-0.689,0-1.244-0.633-1.244-1.404C363.688,374.44,364.243,373.814,364.932,373.814z"/>
			<path fill-rule="evenodd" clip-rule="evenodd" fill="#6FBD44" d="M334.688,373.814c0.691,0,1.246,0.626,1.246,1.4
				c0,0.771-0.555,1.404-1.246,1.404c-0.684,0-1.236-0.633-1.236-1.404C333.452,374.44,334.005,373.814,334.688,373.814z"/>
			<path fill-rule="evenodd" clip-rule="evenodd" fill="#6FBD44" d="M364.932,360.295c0.684,0,1.238,0.627,1.238,1.398
				s-0.555,1.404-1.238,1.404c-0.689,0-1.244-0.633-1.244-1.404S364.243,360.295,364.932,360.295z"/>
			<path fill-rule="evenodd" clip-rule="evenodd" fill="#6FBD44" d="M334.688,360.295c0.691,0,1.246,0.627,1.246,1.398
				s-0.555,1.404-1.246,1.404c-0.684,0-1.236-0.633-1.236-1.404S334.005,360.295,334.688,360.295z"/>
		</g>
	</g>
</g>
</svg>
