<?xml version="1.0" encoding="utf-8"?>
<!-- Generator: Adobe Illustrator 15.0.0, SVG Export Plug-In . SVG Version: 6.00 Build 0)  -->
<!DOCTYPE svg PUBLIC "-//W3C//DTD SVG 1.1//EN" "http://www.w3.org/Graphics/SVG/1.1/DTD/svg11.dtd">
<svg version="1.1" id="图层_1" xmlns="http://www.w3.org/2000/svg" xmlns:xlink="http://www.w3.org/1999/xlink" x="0px" y="0px"
	 width="595.279px" height="841.89px" viewBox="0 0 595.279 841.89" enable-background="new 0 0 595.279 841.89"
	 xml:space="preserve">
<g>
	<g>
		
			<radialGradient id="SVGID_1_" cx="297.2747" cy="1728.3862" r="122.3928" gradientTransform="matrix(1 0 0 0.323 0 -13.6804)" gradientUnits="userSpaceOnUse">
			<stop  offset="0" style="stop-color:#CFD4DC"/>
			<stop  offset="0.4532" style="stop-color:#E4E6EB"/>
			<stop  offset="0.9515" style="stop-color:#FFFFFF"/>
		</radialGradient>
		<ellipse opacity="0.7" fill="url(#SVGID_1_)" cx="297.275" cy="544.587" rx="122.394" ry="39.533"/>
		<g>
			<linearGradient id="SVGID_2_" gradientUnits="userSpaceOnUse" x1="385.9724" y1="287.4375" x2="218.9342" y2="450.021">
				<stop  offset="0" style="stop-color:#F59D9A"/>
				<stop  offset="0.28" style="stop-color:#D87B79"/>
				<stop  offset="0.8962" style="stop-color:#902426"/>
				<stop  offset="1" style="stop-color:#831517"/>
			</linearGradient>
			<path fill="url(#SVGID_2_)" d="M410.725,371.67c0,62.562-59.744,112.392-113.277,156.355
				c-49.99-38.293-113.276-93.793-113.276-156.355c0-62.557,50.718-113.269,113.276-113.269
				C360.007,258.401,410.725,309.113,410.725,371.67z"/>
			<path fill="#5C2B0C" d="M297.403,525.322c-21.017-16.146-50.923-40.385-73.71-67.729c-24.819-29.779-37.405-58.686-37.405-85.923
				c0-61.294,49.869-111.156,111.161-111.156s111.158,49.862,111.158,111.156c0,27.46-11.799,54.867-36.068,83.789
				C350.885,481.259,322.589,504.638,297.403,525.322z"/>
			<circle fill="#5C2B0C" cx="297.448" cy="367.532" r="89.91"/>
			<g>
				<circle fill="#828892" cx="297.447" cy="367.532" r="85.486"/>
				<radialGradient id="SVGID_3_" cx="348.5886" cy="332.2061" r="139.0043" gradientUnits="userSpaceOnUse">
					<stop  offset="0" style="stop-color:#90959E"/>
					<stop  offset="0.6521" style="stop-color:#8D929C"/>
					<stop  offset="1" style="stop-color:#878D97"/>
				</radialGradient>
				<circle fill="url(#SVGID_3_)" cx="297.033" cy="367.963" r="84.715"/>
				<radialGradient id="SVGID_4_" cx="347.7068" cy="332.9629" r="137.739" gradientUnits="userSpaceOnUse">
					<stop  offset="0" style="stop-color:#9EA2AA"/>
					<stop  offset="0.5019" style="stop-color:#9B9FA8"/>
					<stop  offset="0.863" style="stop-color:#9297A1"/>
					<stop  offset="1" style="stop-color:#8C929D"/>
				</radialGradient>
				<circle fill="url(#SVGID_4_)" cx="296.62" cy="368.394" r="83.945"/>
				<radialGradient id="SVGID_5_" cx="346.824" cy="333.7188" r="136.4747" gradientUnits="userSpaceOnUse">
					<stop  offset="0" style="stop-color:#ACB0B6"/>
					<stop  offset="0.4248" style="stop-color:#A9ADB4"/>
					<stop  offset="0.7304" style="stop-color:#A0A5AD"/>
					<stop  offset="0.9983" style="stop-color:#9097A2"/>
					<stop  offset="1" style="stop-color:#9097A2"/>
				</radialGradient>
				<circle fill="url(#SVGID_5_)" cx="296.207" cy="368.825" r="83.174"/>
				<radialGradient id="SVGID_6_" cx="345.9421" cy="334.4751" r="135.2099" gradientUnits="userSpaceOnUse">
					<stop  offset="0" style="stop-color:#BABDC2"/>
					<stop  offset="0.3824" style="stop-color:#B7BAC0"/>
					<stop  offset="0.6578" style="stop-color:#AEB2B9"/>
					<stop  offset="0.8988" style="stop-color:#9EA4AE"/>
					<stop  offset="1" style="stop-color:#959CA8"/>
				</radialGradient>
				<circle fill="url(#SVGID_6_)" cx="295.793" cy="369.256" r="82.404"/>
				<radialGradient id="SVGID_7_" cx="345.0603" cy="335.231" r="133.9456" gradientUnits="userSpaceOnUse">
					<stop  offset="0" style="stop-color:#C7CACF"/>
					<stop  offset="0.3552" style="stop-color:#C4C7CD"/>
					<stop  offset="0.6109" style="stop-color:#BBBFC6"/>
					<stop  offset="0.8348" style="stop-color:#ABB1BA"/>
					<stop  offset="1" style="stop-color:#9AA2AD"/>
				</radialGradient>
				<circle fill="url(#SVGID_7_)" cx="295.38" cy="369.687" r="81.633"/>
				<radialGradient id="SVGID_8_" cx="344.1785" cy="335.9868" r="132.6813" gradientUnits="userSpaceOnUse">
					<stop  offset="0" style="stop-color:#D5D7DB"/>
					<stop  offset="0.3315" style="stop-color:#D2D4D9"/>
					<stop  offset="0.5703" style="stop-color:#C9CCD2"/>
					<stop  offset="0.7799" style="stop-color:#B9BEC6"/>
					<stop  offset="0.9717" style="stop-color:#A3ABB6"/>
					<stop  offset="1" style="stop-color:#9FA7B3"/>
				</radialGradient>
				<path fill="url(#SVGID_8_)" d="M375.83,370.118c0,44.66-36.202,80.862-80.86,80.862c-44.662,0-80.865-36.202-80.865-80.862
					c0-44.662,36.203-80.865,80.865-80.865C339.628,289.253,375.83,325.457,375.83,370.118z"/>
				<radialGradient id="SVGID_9_" cx="343.2957" cy="336.7427" r="131.417" gradientUnits="userSpaceOnUse">
					<stop  offset="0" style="stop-color:#E3E5E7"/>
					<stop  offset="0.3109" style="stop-color:#E0E2E5"/>
					<stop  offset="0.5348" style="stop-color:#D7DADE"/>
					<stop  offset="0.7314" style="stop-color:#C7CCD2"/>
					<stop  offset="0.9113" style="stop-color:#B1B8C2"/>
					<stop  offset="1" style="stop-color:#A3ACB8"/>
				</radialGradient>
				<path fill="url(#SVGID_9_)" d="M374.645,370.549c0,44.234-35.856,80.091-80.089,80.091c-44.237,0-80.094-35.857-80.094-80.091
					c0-44.237,35.857-80.095,80.094-80.095C338.789,290.455,374.645,326.313,374.645,370.549z"/>
				<radialGradient id="SVGID_10_" cx="342.4128" cy="337.4985" r="130.153" gradientUnits="userSpaceOnUse">
					<stop  offset="0" style="stop-color:#F1F2F3"/>
					<stop  offset="0.2959" style="stop-color:#EEEFF1"/>
					<stop  offset="0.5089" style="stop-color:#E5E7EA"/>
					<stop  offset="0.696" style="stop-color:#D5D9DF"/>
					<stop  offset="0.8672" style="stop-color:#BFC5CF"/>
					<stop  offset="1" style="stop-color:#A8B1BE"/>
				</radialGradient>
				<path fill="url(#SVGID_10_)" d="M373.462,370.98c0,43.809-35.511,79.32-79.319,79.32c-43.812,0-79.324-35.512-79.324-79.32
					c0-43.812,35.512-79.324,79.324-79.324C337.951,291.656,373.462,327.168,373.462,370.98z"/>
				<radialGradient id="SVGID_11_" cx="341.531" cy="338.2544" r="128.8887" gradientUnits="userSpaceOnUse">
					<stop  offset="0" style="stop-color:#FFFFFF"/>
					<stop  offset="0.2832" style="stop-color:#FCFCFD"/>
					<stop  offset="0.4871" style="stop-color:#F3F4F6"/>
					<stop  offset="0.6662" style="stop-color:#E3E6EB"/>
					<stop  offset="0.8309" style="stop-color:#CDD2DA"/>
					<stop  offset="0.9845" style="stop-color:#B0B9C5"/>
					<stop  offset="1" style="stop-color:#ADB6C3"/>
				</radialGradient>
				<path fill="url(#SVGID_11_)" d="M372.278,371.411c0,43.383-35.166,78.549-78.548,78.549c-43.387,0-78.553-35.167-78.553-78.549
					c0-43.387,35.166-78.554,78.553-78.554C337.112,292.857,372.278,328.024,372.278,371.411z"/>
			</g>
		</g>
		<g>
			<path fill-rule="evenodd" clip-rule="evenodd" fill="#7261AA" d="M239.158,395.684v-0.013h-0.568
				c-2.849,0-5.186-1.749-5.388-3.973c-0.063-0.259-0.102-0.537-0.102-0.815v-0.813c0-2.369,1.536-4.713,4.516-4.713h1.617
				c1.346-0.03,2.957,0,3.904-0.36c1.016-0.391,1.376-0.675,1.996-1.282c0.619-0.605,1.08-1.3,1.377-2.084
				c0.265-0.707,0.417-1.39,0.442-2.059c-0.007-0.189-0.025-0.379-0.051-0.568c-0.075-0.342-0.176-0.683-0.309-1.024
				c-0.296-0.783-0.759-1.483-1.378-2.09c-0.62-0.606-0.979-0.891-1.996-1.282c-0.947-0.36-2.551-0.328-3.903-0.36l-1.301-0.183
				c-2.154-0.31-4.51-2.345-4.51-4.713v-0.813c0-0.07,0-0.134,0.006-0.196c0-2.368,2.009-4.41,4.99-4.41h0.576l2.88-0.006
				c2.829,0,5.292,0.43,7.383,1.289c2.084,0.865,3.827,2.021,5.217,3.468c1.396,1.453,2.438,3.133,3.133,5.054
				c0.392,1.066,0.669,2.173,0.84,3.297c0.165,0.909,0.259,1.837,0.285,2.785h0.007c0,0.075,0,0.157,0,0.233c0,0.083,0,0.158,0,0.24
				h-0.007c-0.05,1.944-0.398,3.802-1.042,5.577c-0.695,1.921-1.736,3.606-3.127,5.053c-1.396,1.446-3.132,2.604-5.224,3.469
				c-2.091,0.857-4.547,1.294-7.384,1.294H239.158z"/>
			<path fill-rule="evenodd" clip-rule="evenodd" fill="#7261AA" d="M239.158,374.266v-0.013h-0.568
				c-2.849,0-5.186-1.75-5.388-3.974c-0.063-0.258-0.102-0.536-0.102-0.814v-0.814c0-2.369,1.536-4.713,4.516-4.713h1.617
				c1.346-0.025,2.957,0,3.904-0.359c1.016-0.392,1.376-0.676,1.996-1.282c0.619-0.605,1.08-1.301,1.377-2.085
				c0.265-0.707,0.417-1.389,0.442-2.059c-0.007-0.189-0.025-0.379-0.051-0.567c-0.075-0.342-0.176-0.684-0.309-1.025
				c-0.296-0.781-0.759-1.483-1.378-2.09c-0.62-0.605-0.979-0.891-1.996-1.282c-0.947-0.36-2.551-0.328-3.903-0.36h-1.617
				c-2.981,0-4.51-2.343-4.51-4.711V347.3c0-0.062,0-0.132,0.006-0.196c0-2.368,2.325-4.591,5.306-4.591h0.576l2.88-0.006
				c2.829,0,5.292,0.429,7.383,1.288c2.084,0.866,3.827,2.021,5.217,3.468c1.396,1.453,2.438,3.132,3.133,5.053
				c0.392,1.067,0.669,2.173,0.84,3.296c0.165,0.91,0.259,1.839,0.285,2.786h0.007c0,0.075,0,0.158,0,0.241c0,0.075,0,0.15,0,0.232
				h-0.007c-0.05,1.945-0.398,3.803-1.042,5.577c-0.695,1.921-1.736,3.606-3.127,5.054c-1.396,1.445-3.132,2.602-5.224,3.468
				c-2.091,0.858-4.547,1.295-7.384,1.295H239.158z"/>
			<path fill-rule="evenodd" clip-rule="evenodd" fill="#7261AA" d="M219.95,348.077v42.029c0,3.076,2.496,5.571,5.571,5.571h1.062
				c3.076,0,5.571-2.495,5.571-5.571v-42.029c0-3.074-2.496-5.57-5.571-5.57h-1.062C222.446,342.507,219.95,345.003,219.95,348.077z
				"/>
			<path fill-rule="evenodd" clip-rule="evenodd" fill="#7261AA" d="M225.813,346.543c0.663,0,1.199,0.536,1.199,1.2
				c0,0.663-0.537,1.208-1.199,1.208c-0.67,0-1.207-0.544-1.207-1.208C224.606,347.08,225.142,346.543,225.813,346.543z"/>
			<path fill-rule="evenodd" clip-rule="evenodd" fill="#7261AA" d="M238.293,346.543c0.664,0,1.206,0.536,1.206,1.2
				c0,0.663-0.542,1.208-1.206,1.208c-0.663,0-1.201-0.544-1.201-1.208C237.092,347.08,237.63,346.543,238.293,346.543z"/>
			<circle fill-rule="evenodd" clip-rule="evenodd" fill="#7261AA" cx="238.293" cy="369.234" r="1.203"/>
			<path fill-rule="evenodd" clip-rule="evenodd" fill="#7261AA" d="M238.293,389.525c0.664,0,1.206,0.538,1.206,1.199
				c0,0.671-0.542,1.207-1.206,1.207c-0.663,0-1.201-0.536-1.201-1.207C237.092,390.063,237.63,389.525,238.293,389.525z"/>
			<path fill-rule="evenodd" clip-rule="evenodd" fill="#7261AA" d="M226.032,389.525c0.664,0,1.201,0.538,1.201,1.199
				c0,0.671-0.537,1.207-1.201,1.207c-0.663,0-1.206-0.536-1.206-1.207C224.826,390.063,225.369,389.525,226.032,389.525z"/>
			<g>
				<path fill-rule="evenodd" clip-rule="evenodd" fill="#7261AA" d="M280.932,341.553h11.527c3.146,0,5.052,2.571,5.052,5.666
					v1.062c0,3.096-2.55,5.604-5.697,5.604l-6.34-0.083l-4.542,0.019c-3.146,0-5.697-2.507-5.697-5.602v-1.062
					C275.236,344.061,277.786,341.553,280.932,341.553z"/>
				<path fill-rule="evenodd" clip-rule="evenodd" fill="#7261AA" d="M285.454,370.968l4.448,0.063h3.606c0.006,0,0.006,0,0.012,0
					h2.597c3.075,0,5.571,2.495,5.571,5.571v1.061c0,3.077-2.496,5.571-5.571,5.571l-6.209-0.082l-4.454,0.019
					c-3.068,0-5.571-2.5-5.571-5.576v-1.055C279.884,373.464,282.386,370.962,285.454,370.968z"/>
				<path fill-rule="evenodd" clip-rule="evenodd" fill="#7261AA" d="M292.314,341.553h0.588l0,0h2.994c0.076,0,0.159,0,0.24,0
					h0.125l0,0c2.785,0.044,5.218,0.613,7.29,1.7c2.166,1.136,3.973,2.665,5.42,4.604c1.439,1.934,2.525,4.15,3.246,6.652
					c0.719,2.501,1.08,5.141,1.08,7.927c0,2.785-0.361,5.438-1.08,7.964c-0.721,2.527-1.807,4.745-3.246,6.652
					c-1.447,1.906-3.254,3.43-5.42,4.559c-2.167,1.138-4.719,1.707-7.656,1.707h-2.994v-0.013h-0.588
					c-3.087,0-5.602-2.533-5.602-5.647v-1.067c0-3.113,2.515-5.646,5.602-5.646h1.68c1.403-0.038,2.591-0.291,3.57-0.771
					c1.055-0.512,1.907-1.174,2.553-1.97c0.644-0.802,1.117-1.718,1.428-2.748c0.309-1.036,0.467-2.039,0.467-3.019
					c0-1.037-0.158-2.054-0.467-3.058c-0.311-1.004-0.784-1.919-1.428-2.747c-0.646-0.828-1.498-1.498-2.553-2.015
					c-0.752-0.366-1.618-0.601-2.608-0.708h-2.642c-3.087,0-5.602-2.526-5.602-5.641v-1.073
					C286.712,344.08,289.226,341.553,292.314,341.553z"/>
				<path fill-rule="evenodd" clip-rule="evenodd" fill="#7261AA" d="M311.687,386.432l-6.19-12.747
					c-1.258-2.804-4.555-4.067-7.366-2.812l-0.965,0.438c-2.806,1.257-4.069,4.553-2.812,7.365l6.191,12.738
					c1.256,2.811,4.553,4.068,7.363,2.811l0.967-0.429C311.68,392.538,312.942,389.241,311.687,386.432z"/>
				<path fill-rule="evenodd" clip-rule="evenodd" fill="#7261AA" d="M273.7,347.112l-0.095,42.048
					c0.033,3.063,2.546,5.557,5.609,5.557h1.056c3.062,0,5.52-2.494,5.488-5.557l0.095-42.048c-0.032-3.069-2.54-5.559-5.603-5.559
					h-1.056C276.132,341.553,273.669,344.043,273.7,347.112z"/>
				<path fill-rule="evenodd" clip-rule="evenodd" fill="#7261AA" d="M291.72,346.316c0.664,0,1.207,0.537,1.207,1.2
					c0,0.67-0.543,1.207-1.207,1.207c-0.662,0-1.2-0.537-1.2-1.207C290.52,346.853,291.058,346.316,291.72,346.316z"/>
				<path fill-rule="evenodd" clip-rule="evenodd" fill="#7261AA" d="M291.72,375.832c0.664,0,1.207,0.543,1.207,1.207
					c0,0.662-0.543,1.199-1.207,1.199c-0.662,0-1.2-0.537-1.2-1.199C290.52,376.375,291.058,375.832,291.72,375.832z"/>
				<path fill-rule="evenodd" clip-rule="evenodd" fill="#7261AA" d="M299.596,374.297c0.672,0,1.207,0.544,1.207,1.205
					c0,0.665-0.535,1.201-1.207,1.201c-0.663,0-1.199-0.536-1.199-1.201C298.397,374.841,298.933,374.297,299.596,374.297z"/>
				<path fill-rule="evenodd" clip-rule="evenodd" fill="#7261AA" d="M279.487,375.832c0.662,0,1.2,0.543,1.2,1.207
					c0,0.662-0.538,1.199-1.2,1.199c-0.664,0-1.207-0.537-1.207-1.199C278.28,376.375,278.823,375.832,279.487,375.832z"/>
				<path fill-rule="evenodd" clip-rule="evenodd" fill="#7261AA" d="M279.487,346.29c0.662,0,1.2,0.539,1.2,1.201
					c0,0.669-0.538,1.207-1.2,1.207c-0.664,0-1.207-0.537-1.207-1.207C278.28,346.829,278.823,346.29,279.487,346.29z"/>
			</g>
			<g>
				<path fill-rule="evenodd" clip-rule="evenodd" fill="#7261AA" d="M358.874,360.259v14.679c0,2.957,2.495,5.357,5.563,5.357
					h1.063c3.069,0,5.564-2.4,5.564-5.357v-14.679c0-2.962-2.495-5.356-5.564-5.356h-1.063
					C361.369,354.902,358.874,357.297,358.874,360.259z"/>
				<path fill-rule="evenodd" clip-rule="evenodd" fill="#7261AA" d="M329.485,360.259v14.679c0,2.957,2.493,5.357,5.569,5.357
					h1.055c3.077,0,5.571-2.4,5.571-5.357v-14.679c0-2.962-2.494-5.356-5.571-5.356h-1.055
					C331.978,354.902,329.485,357.297,329.485,360.259z"/>
				<path fill-rule="evenodd" clip-rule="evenodd" fill="#7261AA" d="M342.394,394.953c-2.501-0.718-4.718-1.799-6.651-3.244
					c-1.933-1.441-3.468-3.248-4.604-5.414c-1.087-2.079-1.654-4.504-1.7-7.29l0,0v-0.201v-3.158l0,0v-0.588
					c0-3.094,2.526-5.602,5.641-5.602h1.073c3.115,0,5.641,2.508,5.641,5.602v2.641c0.107,0.991,0.35,1.857,0.708,2.603
					c0.517,1.061,1.188,1.908,2.016,2.552c0.827,0.645,1.743,1.125,2.747,1.434c1.004,0.31,2.021,0.46,3.057,0.46
					c0.98,0,1.984-0.15,3.02-0.46c1.029-0.309,1.945-0.789,2.748-1.434c0.802-0.644,1.458-1.491,1.97-2.552
					c0.481-0.979,0.733-2.166,0.771-3.563v-1.681c0-3.094,2.527-5.602,5.646-5.602h1.074c3.115,0,5.641,2.508,5.641,5.602
					l0.014,3.581c0,2.938-0.569,5.49-1.707,7.656c-1.13,2.166-2.652,3.973-4.559,5.414c-1.908,1.445-4.126,2.526-6.652,3.244
					c-2.527,0.728-5.178,1.088-7.965,1.088C347.536,396.041,344.889,395.681,342.394,394.953z"/>
				<path fill-rule="evenodd" clip-rule="evenodd" fill="#7261AA" d="M329.439,361.983v-0.587l0,0v-2.988c0-0.082,0-0.157,0-0.24
					v-0.132l0,0c0.046-2.78,0.613-5.211,1.7-7.29c1.136-2.16,2.671-3.966,4.604-5.412c1.934-1.446,4.15-2.526,6.651-3.247
					c2.495-0.721,5.142-1.087,7.927-1.087c2.787,0,5.438,0.367,7.965,1.087c2.526,0.72,4.744,1.8,6.652,3.247
					c1.906,1.446,3.429,3.252,4.559,5.412c1.138,2.168,1.707,4.718,1.707,7.662v2.988h-0.014v0.587c0,3.096-2.525,5.602-5.641,5.602
					h-1.074c-3.119,0-5.646-2.506-5.646-5.602v-1.68c-0.037-1.396-0.289-2.584-0.771-3.563c-0.512-1.061-1.168-1.907-1.97-2.551
					c-0.803-0.645-1.719-1.125-2.748-1.434c-1.035-0.31-2.039-0.461-3.02-0.461c-1.035,0-2.053,0.151-3.057,0.461
					c-1.004,0.309-1.92,0.789-2.747,1.434c-0.828,0.644-1.499,1.49-2.016,2.551c-0.358,0.745-0.601,1.617-0.708,2.609v2.634
					c0,3.096-2.525,5.602-5.641,5.602h-1.073C331.966,367.585,329.439,365.079,329.439,361.983z"/>
				<path fill-rule="evenodd" clip-rule="evenodd" fill="#7261AA" d="M364.925,373.714c0.664,0,1.199,0.536,1.199,1.199
					s-0.535,1.206-1.199,1.206c-0.669,0-1.206-0.543-1.206-1.206S364.256,373.714,364.925,373.714z"/>
				<path fill-rule="evenodd" clip-rule="evenodd" fill="#7261AA" d="M335.611,373.714c0.669,0,1.206,0.536,1.206,1.199
					s-0.537,1.206-1.206,1.206c-0.664,0-1.2-0.543-1.2-1.206S334.947,373.714,335.611,373.714z"/>
				<path fill-rule="evenodd" clip-rule="evenodd" fill="#7261AA" d="M364.925,362.11c0.664,0,1.199,0.537,1.199,1.199
					c0,0.664-0.535,1.207-1.199,1.207c-0.669,0-1.206-0.543-1.206-1.207C363.719,362.647,364.256,362.11,364.925,362.11z"/>
				<path fill-rule="evenodd" clip-rule="evenodd" fill="#7261AA" d="M335.611,362.11c0.669,0,1.206,0.537,1.206,1.199
					c0,0.664-0.537,1.207-1.206,1.207c-0.664,0-1.2-0.543-1.2-1.207C334.411,362.647,334.947,362.11,335.611,362.11z"/>
			</g>
		</g>
	</g>
</g>
</svg>
