<?xml version="1.0" encoding="utf-8"?>
<!-- Generator: Adobe Illustrator 15.0.0, SVG Export Plug-In . SVG Version: 6.00 Build 0)  -->
<!DOCTYPE svg PUBLIC "-//W3C//DTD SVG 1.1//EN" "http://www.w3.org/Graphics/SVG/1.1/DTD/svg11.dtd">
<svg version="1.1" id="图层_1" xmlns="http://www.w3.org/2000/svg" xmlns:xlink="http://www.w3.org/1999/xlink" x="0px" y="0px"
	 width="595.279px" height="841.89px" viewBox="0 0 595.279 841.89" enable-background="new 0 0 595.279 841.89"
	 xml:space="preserve">
<g>
	<g>
		
			<radialGradient id="SVGID_1_" cx="298.0212" cy="1724.0903" r="122.3916" gradientTransform="matrix(1 0 0 0.323 0 -13.6804)" gradientUnits="userSpaceOnUse">
			<stop  offset="0" style="stop-color:#CFD4DC"/>
			<stop  offset="0.4532" style="stop-color:#E4E6EB"/>
			<stop  offset="0.9515" style="stop-color:#FFFFFF"/>
		</radialGradient>
		<path opacity="0.7" fill="url(#SVGID_1_)" d="M420.417,543.203c0,21.83-54.801,39.529-122.395,39.529
			c-67.598,0-122.396-17.699-122.396-39.529c0-21.836,54.799-39.533,122.396-39.533
			C365.616,503.669,420.417,521.367,420.417,543.203z"/>
		<g>
			<linearGradient id="SVGID_2_" gradientUnits="userSpaceOnUse" x1="380.655" y1="291.3027" x2="209.8451" y2="462.1126">
				<stop  offset="0" style="stop-color:#CCDF83"/>
				<stop  offset="0.1341" style="stop-color:#C3D67D"/>
				<stop  offset="0.3527" style="stop-color:#ABBE6D"/>
				<stop  offset="0.6287" style="stop-color:#839853"/>
				<stop  offset="0.9484" style="stop-color:#4D622E"/>
				<stop  offset="1" style="stop-color:#435928"/>
			</linearGradient>
			<path fill="url(#SVGID_2_)" d="M411.62,371.997c0,62.559-59.74,112.387-113.275,156.348
				c-49.99-38.287-113.275-93.789-113.275-156.348c0-62.56,50.717-113.273,113.275-113.273
				C360.905,258.724,411.62,309.438,411.62,371.997z"/>
			<linearGradient id="SVGID_3_" gradientUnits="userSpaceOnUse" x1="382.3376" y1="297.1074" x2="214.7681" y2="451.8369">
				<stop  offset="0" style="stop-color:#B0D135"/>
				<stop  offset="0.1826" style="stop-color:#A7C835"/>
				<stop  offset="0.4803" style="stop-color:#8FB035"/>
				<stop  offset="0.8541" style="stop-color:#678935"/>
				<stop  offset="1" style="stop-color:#567835"/>
			</linearGradient>
			<path fill="url(#SVGID_3_)" d="M298.3,525.646c-21.016-16.143-50.926-40.385-73.715-67.727
				c-24.816-29.783-37.402-58.688-37.402-85.922c0-61.295,49.871-111.159,111.162-111.159c61.293,0,111.154,49.864,111.154,111.159
				c0,27.457-11.797,54.868-36.064,83.792C351.786,481.583,323.485,504.962,298.3,525.646z"/>
			<linearGradient id="SVGID_4_" gradientUnits="userSpaceOnUse" x1="212.759" y1="447.0903" x2="377.1199" y2="294.9278">
				<stop  offset="0" style="stop-color:#B0D135"/>
				<stop  offset="0.1826" style="stop-color:#A7C835"/>
				<stop  offset="0.4803" style="stop-color:#8FB035"/>
				<stop  offset="0.8541" style="stop-color:#678935"/>
				<stop  offset="1" style="stop-color:#567835"/>
			</linearGradient>
			<path fill="url(#SVGID_4_)" d="M388.251,367.86c0,49.655-40.254,89.913-89.906,89.913c-49.66,0-89.912-40.257-89.912-89.913
				c0-49.657,40.252-89.915,89.912-89.915C347.997,277.945,388.251,318.203,388.251,367.86z"/>
			<g>
				<path fill="#828892" d="M383.827,367.86c0,47.213-38.273,85.481-85.482,85.481c-47.213,0-85.486-38.268-85.486-85.481
					c0-47.209,38.273-85.488,85.486-85.488C345.553,282.372,383.827,320.651,383.827,367.86z"/>
				<radialGradient id="SVGID_5_" cx="349.4841" cy="332.5327" r="138.9993" gradientUnits="userSpaceOnUse">
					<stop  offset="0" style="stop-color:#90959E"/>
					<stop  offset="0.6521" style="stop-color:#8D929C"/>
					<stop  offset="1" style="stop-color:#878D97"/>
				</radialGradient>
				<path fill="url(#SVGID_5_)" d="M382.643,368.291c0,46.788-37.928,84.711-84.712,84.711c-46.789,0-84.716-37.923-84.716-84.711
					c0-46.783,37.928-84.717,84.716-84.717C344.716,283.573,382.643,321.507,382.643,368.291z"/>
				<radialGradient id="SVGID_6_" cx="348.6013" cy="333.2886" r="137.735" gradientUnits="userSpaceOnUse">
					<stop  offset="0" style="stop-color:#9EA2AA"/>
					<stop  offset="0.5019" style="stop-color:#9B9FA8"/>
					<stop  offset="0.863" style="stop-color:#9297A1"/>
					<stop  offset="1" style="stop-color:#8C929D"/>
				</radialGradient>
				<path fill="url(#SVGID_6_)" d="M381.459,368.721c0,46.363-37.582,83.941-83.94,83.941c-46.364,0-83.946-37.578-83.946-83.941
					c0-46.357,37.582-83.946,83.946-83.946C343.877,284.774,381.459,322.363,381.459,368.721z"/>
				<radialGradient id="SVGID_7_" cx="347.7195" cy="334.0444" r="136.4718" gradientUnits="userSpaceOnUse">
					<stop  offset="0" style="stop-color:#ACB0B6"/>
					<stop  offset="0.4248" style="stop-color:#A9ADB4"/>
					<stop  offset="0.7304" style="stop-color:#A0A5AD"/>
					<stop  offset="0.9983" style="stop-color:#9097A2"/>
					<stop  offset="1" style="stop-color:#9097A2"/>
				</radialGradient>
				<path fill="url(#SVGID_7_)" d="M380.275,369.151c0,45.938-37.236,83.172-83.17,83.172c-45.939,0-83.176-37.234-83.176-83.172
					c0-45.932,37.236-83.175,83.176-83.175C343.039,285.976,380.275,323.219,380.275,369.151z"/>
				<radialGradient id="SVGID_8_" cx="346.8357" cy="334.8003" r="135.2078" gradientUnits="userSpaceOnUse">
					<stop  offset="0" style="stop-color:#BABDC2"/>
					<stop  offset="0.3824" style="stop-color:#B7BAC0"/>
					<stop  offset="0.6578" style="stop-color:#AEB2B9"/>
					<stop  offset="0.8988" style="stop-color:#9EA4AE"/>
					<stop  offset="1" style="stop-color:#959CA8"/>
				</radialGradient>
				<path fill="url(#SVGID_8_)" d="M379.091,369.581c0,45.513-36.891,82.402-82.399,82.402c-45.515,0-82.406-36.889-82.406-82.402
					c0-45.506,36.891-82.404,82.406-82.404C342.2,287.177,379.091,324.075,379.091,369.581z"/>
				<radialGradient id="SVGID_9_" cx="345.9539" cy="335.5562" r="133.9435" gradientUnits="userSpaceOnUse">
					<stop  offset="0" style="stop-color:#C7CACF"/>
					<stop  offset="0.3552" style="stop-color:#C4C7CD"/>
					<stop  offset="0.6109" style="stop-color:#BBBFC6"/>
					<stop  offset="0.8348" style="stop-color:#ABB1BA"/>
					<stop  offset="1" style="stop-color:#9AA2AD"/>
				</radialGradient>
				<path fill="url(#SVGID_9_)" d="M377.907,370.011c0,45.088-36.545,81.632-81.628,81.632c-45.09,0-81.635-36.544-81.635-81.632
					c0-45.08,36.545-81.632,81.635-81.632C341.362,288.378,377.907,324.931,377.907,370.011z"/>
				<radialGradient id="SVGID_10_" cx="345.071" cy="336.312" r="132.6792" gradientUnits="userSpaceOnUse">
					<stop  offset="0" style="stop-color:#D5D7DB"/>
					<stop  offset="0.3315" style="stop-color:#D2D4D9"/>
					<stop  offset="0.5703" style="stop-color:#C9CCD2"/>
					<stop  offset="0.7799" style="stop-color:#B9BEC6"/>
					<stop  offset="0.9717" style="stop-color:#A3ABB6"/>
					<stop  offset="1" style="stop-color:#9FA7B3"/>
				</radialGradient>
				<path fill="url(#SVGID_10_)" d="M376.722,370.441c0,44.664-36.199,80.862-80.857,80.862c-44.666,0-80.865-36.199-80.865-80.862
					c0-44.654,36.199-80.861,80.865-80.861C340.523,289.58,376.722,325.787,376.722,370.441z"/>
				<radialGradient id="SVGID_11_" cx="344.1892" cy="337.0684" r="131.4154" gradientUnits="userSpaceOnUse">
					<stop  offset="0" style="stop-color:#E3E5E7"/>
					<stop  offset="0.3109" style="stop-color:#E0E2E5"/>
					<stop  offset="0.5348" style="stop-color:#D7DADE"/>
					<stop  offset="0.7314" style="stop-color:#C7CCD2"/>
					<stop  offset="0.9113" style="stop-color:#B1B8C2"/>
					<stop  offset="1" style="stop-color:#A3ACB8"/>
				</radialGradient>
				<path fill="url(#SVGID_11_)" d="M375.539,370.871c0,44.239-35.854,80.093-80.087,80.093c-44.241,0-80.095-35.854-80.095-80.093
					c0-44.229,35.854-80.09,80.095-80.09C339.685,290.781,375.539,326.643,375.539,370.871z"/>
				<radialGradient id="SVGID_12_" cx="343.3064" cy="337.8242" r="130.1511" gradientUnits="userSpaceOnUse">
					<stop  offset="0" style="stop-color:#F1F2F3"/>
					<stop  offset="0.2959" style="stop-color:#EEEFF1"/>
					<stop  offset="0.5089" style="stop-color:#E5E7EA"/>
					<stop  offset="0.696" style="stop-color:#D5D9DF"/>
					<stop  offset="0.8672" style="stop-color:#BFC5CF"/>
					<stop  offset="1" style="stop-color:#A8B1BE"/>
				</radialGradient>
				<path fill="url(#SVGID_12_)" d="M374.354,371.301c0,43.813-35.508,79.323-79.315,79.323c-43.817,0-79.325-35.51-79.325-79.323
					c0-43.803,35.508-79.319,79.325-79.319C338.846,291.982,374.354,327.499,374.354,371.301z"/>
				<radialGradient id="SVGID_13_" cx="342.4246" cy="338.5801" r="128.8868" gradientUnits="userSpaceOnUse">
					<stop  offset="0" style="stop-color:#FFFFFF"/>
					<stop  offset="0.2832" style="stop-color:#FCFCFD"/>
					<stop  offset="0.4871" style="stop-color:#F3F4F6"/>
					<stop  offset="0.6662" style="stop-color:#E3E6EB"/>
					<stop  offset="0.8309" style="stop-color:#CDD2DA"/>
					<stop  offset="0.9845" style="stop-color:#B0B9C5"/>
					<stop  offset="1" style="stop-color:#ADB6C3"/>
				</radialGradient>
				<path fill="url(#SVGID_13_)" d="M373.171,371.731c0,43.389-35.162,78.553-78.545,78.553c-43.393,0-78.555-35.165-78.555-78.553
					c0-43.377,35.162-78.548,78.555-78.548C338.009,293.184,373.171,328.354,373.171,371.731z"/>
			</g>
		</g>
	</g>
	<g>
		<path fill-rule="evenodd" clip-rule="evenodd" fill="#971A25" d="M253.378,342.665h-0.588l0,0h-3c-0.074,0-0.158,0-0.232,0h-0.133
			l0,0c-2.791,0.046-5.221,0.646-7.303,1.793c-2.172,1.193-3.98,2.814-5.424,4.854c-1.449,2.04-2.531,4.38-3.258,7.015
			c-0.723,2.64-1.082,5.426-1.082,8.36c0,0.213,0,12.515,0.006,12.728c0.045,2.707,0.404,5.294,1.076,7.768
			c0.727,2.666,1.809,5.007,3.258,7.021c1.443,2.007,3.252,3.613,5.424,4.807c2.17,1.2,4.727,1.8,7.668,1.8h3v-0.02h0.588
			c3.096,0,5.613-2.66,5.613-5.947v-1.133c0-3.288-2.518-5.955-5.613-5.955h-1.682c-1.406-0.032-2.596-0.306-3.576-0.806
			c-1.057-0.547-1.91-1.24-2.557-2.088c-0.645-0.84-1.119-1.806-1.43-2.894c-0.246-0.866-0.398-1.72-0.449-2.553
			c-0.012-0.213-0.02-12.515-0.02-12.728c0-1.087,0.158-2.161,0.469-3.221s0.785-2.026,1.43-2.899c0.646-0.867,1.5-1.581,2.557-2.12
			c0.754-0.387,1.621-0.634,2.613-0.747h2.645c3.096,0,5.613-2.667,5.613-5.948v-1.133
			C258.991,345.332,256.473,342.665,253.378,342.665z"/>
		<path fill-rule="evenodd" clip-rule="evenodd" fill="#971A25" d="M258.372,381.828l-0.684,1.02
			c-0.646,0.847-1.223,1.533-2.279,2.08c-0.98,0.5-2.17,0.773-3.568,0.807h-1.684c-3.1,0-5.611,2.674-5.611,5.961v1.141
			c0,3.293,2.512,5.96,5.611,5.96h0.59l0,0h2.992c0.082,0,0.158,0,0.24,0h0.127l0,0c2.5-0.041,4.955-0.453,7.309-1.794
			c2.164-1.2,3.975-2.8,5.416-4.813l0.664-1.033c2.932-4.394,1.398-7.574-1.018-9.475
			C263.825,379.601,260.061,379.101,258.372,381.828z"/>
		<path fill-rule="evenodd" clip-rule="evenodd" fill="#971A25" d="M258.372,359.633l-0.684-1.02
			c-0.646-0.848-1.223-1.534-2.279-2.081c-0.98-0.5-2.17-0.773-3.568-0.807h-1.684c-3.1,0-5.611-2.673-5.611-5.961v-1.14
			c0-3.293,2.512-5.96,5.611-5.96h0.59l0,0h2.992c0.082,0,0.158,0,0.24,0h0.127l0,0c2.5,0.04,4.955,0.46,7.309,1.793
			c2.164,1.2,3.975,2.801,5.416,4.814l0.664,1.032c2.932,4.395,1.398,7.574-1.018,9.481
			C263.825,361.859,260.061,362.359,258.372,359.633z"/>
		<path fill-rule="evenodd" clip-rule="evenodd" fill="#971A25" d="M250.53,347.512c0.666,0,1.203,0.566,1.203,1.267
			s-0.537,1.274-1.203,1.274c-0.664,0-1.207-0.574-1.207-1.274S249.866,347.512,250.53,347.512z"/>
		<path fill-rule="evenodd" clip-rule="evenodd" fill="#971A25" d="M250.53,391.469c0.666,0,1.203,0.566,1.203,1.273
			c0,0.7-0.537,1.267-1.203,1.267c-0.664,0-1.207-0.566-1.207-1.267C249.323,392.035,249.866,391.469,250.53,391.469z"/>
		<g>
			<path fill-rule="evenodd" clip-rule="evenodd" fill="#971A25" d="M291.608,368.979v23.869c0,3.246,2.5,5.887,5.582,5.887h1.063
				c3.082,0,5.582-2.641,5.582-5.887v-23.869c0-3.247-2.5-5.887-5.582-5.887h-1.063
				C294.108,363.092,291.608,365.731,291.608,368.979z"/>
			<path fill-rule="evenodd" clip-rule="evenodd" fill="#971A25" d="M291.964,376.926l-12.334-25.494
				c-1.361-2.874-0.24-6.368,2.498-7.814l0.949-0.5c2.742-1.447,6.07-0.293,7.43,2.573l12.328,25.502
				c1.367,2.867,0.246,6.367-2.494,7.813l-0.941,0.494C296.653,380.946,293.323,379.793,291.964,376.926z"/>
			<path fill-rule="evenodd" clip-rule="evenodd" fill="#971A25" d="M302.745,377.426l12.391-25.994
				c1.359-2.874,0.24-6.368-2.5-7.814l-0.949-0.5c-2.74-1.447-6.068-0.293-7.428,2.573l-12.391,26.002
				c-1.367,2.867-0.248,6.367,2.5,7.813l0.941,0.494C298.05,381.446,301.378,380.293,302.745,377.426z"/>
			<path fill-rule="evenodd" clip-rule="evenodd" fill="#971A25" d="M297.677,372.866c0.666,0,1.203,0.566,1.203,1.267
				c0,0.707-0.537,1.273-1.203,1.273c-0.664,0-1.209-0.566-1.209-1.273C296.468,373.433,297.012,372.866,297.677,372.866z"/>
		</g>
		<g>
			<path fill-rule="evenodd" clip-rule="evenodd" fill="#971A25" d="M337.471,372.994h11.547c3.152,0,5.063,2.693,5.063,5.934v1.113
				c0,3.24-2.555,5.867-5.707,5.867l-6.354-0.086l-4.549,0.02c-3.152,0-5.707-2.627-5.707-5.868v-1.113
				C331.764,375.621,334.319,372.994,337.471,372.994z"/>
			<path fill-rule="evenodd" clip-rule="evenodd" fill="#971A25" d="M337.471,342.084h11.547c3.152,0,5.063,2.694,5.063,5.935v1.113
				c0,3.233-2.555,5.867-5.707,5.867l-6.354-0.094l-4.549,0.027c-3.152,0-5.707-2.634-5.707-5.874v-1.106
				C331.764,344.712,334.319,342.084,337.471,342.084z"/>
			<path fill-rule="evenodd" clip-rule="evenodd" fill="#971A25" d="M349.278,342.084h0.59l0,0h2.98c0.074,0,0.158,0,0.232,0h0.135
				l0,0c2.777,0.047,5.201,0.641,7.27,1.788c2.158,1.192,3.961,2.8,5.404,4.834c1.436,2.032,2.52,4.366,3.24,6.992
				c0.721,2.628,1.082,5.401,1.082,8.328c0,2.934-0.361,5.72-1.082,8.374c-0.721,2.66-1.805,4.987-3.24,6.994
				c-1.443,2.007-3.246,3.601-5.404,4.793c-2.156,1.194-4.707,1.787-7.637,1.787h-2.98v-0.014h-0.59
				c-3.088,0-5.586-2.653-5.586-5.928v-1.126c0-3.273,2.498-5.934,5.586-5.934h1.678c1.393-0.039,2.576-0.307,3.557-0.807
				c1.049-0.547,1.896-1.233,2.543-2.073c0.646-0.841,1.121-1.807,1.424-2.887c0.311-1.087,0.469-2.147,0.469-3.175
				c0-1.086-0.158-2.159-0.469-3.212c-0.303-1.061-0.777-2.021-1.424-2.888c-0.646-0.873-1.494-1.58-2.543-2.121
				c-0.748-0.379-1.613-0.626-2.607-0.739h-2.627c-3.088,0-5.586-2.66-5.586-5.935v-1.126
				C343.692,344.738,346.19,342.084,349.278,342.084z"/>
			<path fill-rule="evenodd" clip-rule="evenodd" fill="#971A25" d="M330.454,347.952l-0.096,44.384
				c0.025,3.232,2.545,5.866,5.613,5.866h1.057c3.068,0,5.537-2.634,5.506-5.866l0.094-44.384c-0.031-3.24-2.543-5.868-5.619-5.868
				h-1.049C332.884,342.084,330.423,344.712,330.454,347.952z"/>
			<path fill-rule="evenodd" clip-rule="evenodd" fill="#971A25" d="M349.171,346.904c0.664,0,1.209,0.567,1.209,1.268
				s-0.545,1.273-1.209,1.273s-1.201-0.573-1.201-1.273S348.507,346.904,349.171,346.904z"/>
			<path fill-rule="evenodd" clip-rule="evenodd" fill="#971A25" d="M349.171,378.041c0.664,0,1.209,0.566,1.209,1.266
				c0,0.701-0.545,1.274-1.209,1.274s-1.201-0.573-1.201-1.274C347.969,378.607,348.507,378.041,349.171,378.041z"/>
			<path fill-rule="evenodd" clip-rule="evenodd" fill="#971A25" d="M336.427,346.904c0.664,0,1.203,0.567,1.203,1.268
				s-0.539,1.273-1.203,1.273c-0.67,0-1.207-0.573-1.207-1.273S335.757,346.904,336.427,346.904z"/>
		</g>
	</g>
</g>
</svg>
