<?xml version="1.0" encoding="utf-8"?>
<!-- Generator: Adobe Illustrator 15.0.0, SVG Export Plug-In . SVG Version: 6.00 Build 0)  -->
<!DOCTYPE svg PUBLIC "-//W3C//DTD SVG 1.1//EN" "http://www.w3.org/Graphics/SVG/1.1/DTD/svg11.dtd">
<svg version="1.1" id="图层_1" xmlns="http://www.w3.org/2000/svg" xmlns:xlink="http://www.w3.org/1999/xlink" x="0px" y="0px"
	 width="595.279px" height="841.89px" viewBox="0 0 595.279 841.89" enable-background="new 0 0 595.279 841.89"
	 xml:space="preserve">
<g>
	<g>
		
			<radialGradient id="SVGID_1_" cx="297.9939" cy="1726.3726" r="122.3931" gradientTransform="matrix(1 0 0 0.323 0 -13.6804)" gradientUnits="userSpaceOnUse">
			<stop  offset="0" style="stop-color:#CFD4DC"/>
			<stop  offset="0.4532" style="stop-color:#E4E6EB"/>
			<stop  offset="0.9515" style="stop-color:#FFFFFF"/>
		</radialGradient>
		<ellipse opacity="0.7" fill="url(#SVGID_1_)" cx="297.994" cy="543.937" rx="122.394" ry="39.533"/>
		<g>
			<linearGradient id="SVGID_2_" gradientUnits="userSpaceOnUse" x1="386.6912" y1="286.7866" x2="219.6529" y2="449.3701">
				<stop  offset="0" style="stop-color:#F59D9A"/>
				<stop  offset="0.28" style="stop-color:#D87B79"/>
				<stop  offset="0.8962" style="stop-color:#902426"/>
				<stop  offset="1" style="stop-color:#831517"/>
			</linearGradient>
			<path fill="url(#SVGID_2_)" d="M411.445,371.02c0,62.562-59.744,112.392-113.277,156.355
				c-49.99-38.293-113.276-93.793-113.276-156.355c0-62.557,50.718-113.269,113.276-113.269
				C360.725,257.751,411.445,308.463,411.445,371.02z"/>
			<path fill="#251A5A" d="M298.122,524.671c-21.017-16.146-50.923-40.385-73.71-67.729c-24.819-29.779-37.405-58.686-37.405-85.923
				c0-61.294,49.869-111.156,111.161-111.156c61.293,0,111.157,49.862,111.157,111.156c0,27.46-11.799,54.867-36.067,83.789
				C351.605,480.609,323.307,503.988,298.122,524.671z"/>
			<circle fill="#251A5A" cx="298.167" cy="366.882" r="89.91"/>
			<g>
				<circle fill="#828892" cx="298.166" cy="366.882" r="85.486"/>
				<radialGradient id="SVGID_3_" cx="349.3083" cy="331.5557" r="139.0043" gradientUnits="userSpaceOnUse">
					<stop  offset="0" style="stop-color:#90959E"/>
					<stop  offset="0.6521" style="stop-color:#8D929C"/>
					<stop  offset="1" style="stop-color:#878D97"/>
				</radialGradient>
				<path fill="url(#SVGID_3_)" d="M382.469,367.313c0,46.787-37.93,84.716-84.714,84.716c-46.787,0-84.717-37.929-84.717-84.716
					s37.93-84.717,84.717-84.717C344.539,282.596,382.469,320.526,382.469,367.313z"/>
				<radialGradient id="SVGID_4_" cx="348.4265" cy="332.3125" r="137.7387" gradientUnits="userSpaceOnUse">
					<stop  offset="0" style="stop-color:#9EA2AA"/>
					<stop  offset="0.5019" style="stop-color:#9B9FA8"/>
					<stop  offset="0.863" style="stop-color:#9297A1"/>
					<stop  offset="1" style="stop-color:#8C929D"/>
				</radialGradient>
				<circle fill="url(#SVGID_4_)" cx="297.339" cy="367.744" r="83.945"/>
				<radialGradient id="SVGID_5_" cx="347.5437" cy="333.0684" r="136.4747" gradientUnits="userSpaceOnUse">
					<stop  offset="0" style="stop-color:#ACB0B6"/>
					<stop  offset="0.4248" style="stop-color:#A9ADB4"/>
					<stop  offset="0.7304" style="stop-color:#A0A5AD"/>
					<stop  offset="0.9983" style="stop-color:#9097A2"/>
					<stop  offset="1" style="stop-color:#9097A2"/>
				</radialGradient>
				<circle fill="url(#SVGID_5_)" cx="296.926" cy="368.175" r="83.174"/>
				<radialGradient id="SVGID_6_" cx="346.6619" cy="333.8247" r="135.2099" gradientUnits="userSpaceOnUse">
					<stop  offset="0" style="stop-color:#BABDC2"/>
					<stop  offset="0.3824" style="stop-color:#B7BAC0"/>
					<stop  offset="0.6578" style="stop-color:#AEB2B9"/>
					<stop  offset="0.8988" style="stop-color:#9EA4AE"/>
					<stop  offset="1" style="stop-color:#959CA8"/>
				</radialGradient>
				<circle fill="url(#SVGID_6_)" cx="296.513" cy="368.606" r="82.404"/>
				<radialGradient id="SVGID_7_" cx="345.7791" cy="334.5806" r="133.9456" gradientUnits="userSpaceOnUse">
					<stop  offset="0" style="stop-color:#C7CACF"/>
					<stop  offset="0.3552" style="stop-color:#C4C7CD"/>
					<stop  offset="0.6109" style="stop-color:#BBBFC6"/>
					<stop  offset="0.8348" style="stop-color:#ABB1BA"/>
					<stop  offset="1" style="stop-color:#9AA2AD"/>
				</radialGradient>
				<path fill="url(#SVGID_7_)" d="M377.732,369.037c0,45.085-36.547,81.633-81.63,81.633c-45.087,0-81.635-36.547-81.635-81.633
					c0-45.086,36.548-81.635,81.635-81.635C341.185,287.401,377.732,323.95,377.732,369.037z"/>
				<radialGradient id="SVGID_8_" cx="344.8972" cy="335.3364" r="132.6813" gradientUnits="userSpaceOnUse">
					<stop  offset="0" style="stop-color:#D5D7DB"/>
					<stop  offset="0.3315" style="stop-color:#D2D4D9"/>
					<stop  offset="0.5703" style="stop-color:#C9CCD2"/>
					<stop  offset="0.7799" style="stop-color:#B9BEC6"/>
					<stop  offset="0.9717" style="stop-color:#A3ABB6"/>
					<stop  offset="1" style="stop-color:#9FA7B3"/>
				</radialGradient>
				<path fill="url(#SVGID_8_)" d="M376.549,369.468c0,44.66-36.202,80.862-80.86,80.862c-44.662,0-80.865-36.202-80.865-80.862
					c0-44.662,36.203-80.865,80.865-80.865C340.346,288.603,376.549,324.806,376.549,369.468z"/>
				<radialGradient id="SVGID_9_" cx="344.0154" cy="336.0923" r="131.417" gradientUnits="userSpaceOnUse">
					<stop  offset="0" style="stop-color:#E3E5E7"/>
					<stop  offset="0.3109" style="stop-color:#E0E2E5"/>
					<stop  offset="0.5348" style="stop-color:#D7DADE"/>
					<stop  offset="0.7314" style="stop-color:#C7CCD2"/>
					<stop  offset="0.9113" style="stop-color:#B1B8C2"/>
					<stop  offset="1" style="stop-color:#A3ACB8"/>
				</radialGradient>
				<path fill="url(#SVGID_9_)" d="M375.365,369.899c0,44.234-35.857,80.091-80.09,80.091c-44.237,0-80.094-35.857-80.094-80.091
					c0-44.237,35.857-80.095,80.094-80.095C339.508,289.804,375.365,325.662,375.365,369.899z"/>
				<radialGradient id="SVGID_10_" cx="343.1316" cy="336.8481" r="130.153" gradientUnits="userSpaceOnUse">
					<stop  offset="0" style="stop-color:#F1F2F3"/>
					<stop  offset="0.2959" style="stop-color:#EEEFF1"/>
					<stop  offset="0.5089" style="stop-color:#E5E7EA"/>
					<stop  offset="0.696" style="stop-color:#D5D9DF"/>
					<stop  offset="0.8672" style="stop-color:#BFC5CF"/>
					<stop  offset="1" style="stop-color:#A8B1BE"/>
				</radialGradient>
				<path fill="url(#SVGID_10_)" d="M374.18,370.33c0,43.809-35.511,79.32-79.318,79.32c-43.812,0-79.324-35.512-79.324-79.32
					c0-43.812,35.512-79.324,79.324-79.324C338.67,291.006,374.18,326.518,374.18,370.33z"/>
				<radialGradient id="SVGID_11_" cx="342.2498" cy="337.604" r="128.8887" gradientUnits="userSpaceOnUse">
					<stop  offset="0" style="stop-color:#FFFFFF"/>
					<stop  offset="0.2832" style="stop-color:#FCFCFD"/>
					<stop  offset="0.4871" style="stop-color:#F3F4F6"/>
					<stop  offset="0.6662" style="stop-color:#E3E6EB"/>
					<stop  offset="0.8309" style="stop-color:#CDD2DA"/>
					<stop  offset="0.9845" style="stop-color:#B0B9C5"/>
					<stop  offset="1" style="stop-color:#ADB6C3"/>
				</radialGradient>
				<path fill="url(#SVGID_11_)" d="M372.997,370.761c0,43.383-35.166,78.549-78.548,78.549c-43.387,0-78.553-35.167-78.553-78.549
					c0-43.387,35.166-78.554,78.553-78.554C337.831,292.207,372.997,327.374,372.997,370.761z"/>
			</g>
		</g>
		<g>
			<path fill-rule="evenodd" clip-rule="evenodd" fill="#94C83D" d="M233.355,342.367l4.623,0.065h3.756c0,0,0,0,0.006,0h2.692
				c3.206,0,5.798,2.64,5.798,5.897v1.115c0,3.258-2.593,5.832-5.791,5.832h-6.462h-4.623c-3.198,0-5.792-2.64-5.792-5.897v-1.116
				C227.563,345.007,230.157,342.367,233.355,342.367z"/>
			<path fill-rule="evenodd" clip-rule="evenodd" fill="#94C83D" d="M233.355,384.675l4.623,0.072h3.756
				c0-0.007,0-0.007,0.006-0.007l2.692,0.007c3.206,0,5.798,2.64,5.798,5.896v1.116c0,3.257-2.593,5.831-5.791,5.825h-6.462
				l-4.623,0.006c-3.198,0-5.792-2.646-5.792-5.896v-1.123C227.563,387.313,230.157,384.675,233.355,384.675z"/>
			<path fill-rule="evenodd" clip-rule="evenodd" fill="#94C83D" d="M226.388,348.113v43.68c0,3.198,2.594,5.792,5.798,5.792h1.097
				c3.198,0,5.792-2.594,5.792-5.792v-43.68c0-3.198-2.593-5.798-5.792-5.798h-1.097
				C228.982,342.315,226.388,344.915,226.388,348.113z"/>
			<path fill-rule="evenodd" clip-rule="evenodd" fill="#94C83D" d="M245.391,342.263h0.61l0,0h3.113c0.079,0,0.164,0,0.243,0h0.138
				v0.006c2.896,0.047,5.423,0.638,7.577,1.766c2.253,1.176,4.131,2.771,5.634,4.781c1.498,2.01,2.627,4.313,3.375,6.915
				c0.749,2.599,1.124,5.345,1.124,8.24c0,0.21,0,12.338-0.008,12.542c-0.045,2.673-0.419,5.22-1.116,7.656
				c-0.749,2.634-1.877,4.938-3.375,6.921c-1.503,1.983-3.38,3.559-5.634,4.741c-2.252,1.183-4.904,1.767-7.958,1.767h-3.113v-0.013
				h-0.61c-3.211,0-5.825-2.627-5.825-5.864v-1.116c0-3.238,2.614-5.864,5.825-5.864h1.747c1.457-0.04,2.692-0.302,3.71-0.802
				c1.097-0.537,1.983-1.221,2.652-2.049c0.669-0.832,1.161-1.785,1.483-2.861c0.257-0.854,0.415-1.695,0.467-2.516
				c0.013-0.21,0.019-12.332,0.019-12.542c0-1.07-0.165-2.127-0.486-3.179c-0.322-1.044-0.813-1.996-1.483-2.855
				c-0.669-0.854-1.556-1.557-2.652-2.089c-0.782-0.381-1.681-0.623-2.712-0.734h-2.745c-3.211,0-5.825-2.627-5.825-5.864v-1.116
				C239.566,344.896,242.18,342.263,245.391,342.263z"/>
			<path fill-rule="evenodd" clip-rule="evenodd" fill="#94C83D" d="M232.843,347.082c0.689,0,1.254,0.558,1.254,1.248
				c0,0.688-0.565,1.254-1.254,1.254c-0.69,0-1.248-0.565-1.248-1.254C231.594,347.64,232.153,347.082,232.843,347.082z"/>
			<path fill-rule="evenodd" clip-rule="evenodd" fill="#94C83D" d="M244.124,347.082c0.689,0,1.254,0.558,1.254,1.248
				c0,0.688-0.565,1.254-1.254,1.254c-0.69,0-1.248-0.565-1.248-1.254C242.876,347.64,243.434,347.082,244.124,347.082z"/>
			<path fill-rule="evenodd" clip-rule="evenodd" fill="#94C83D" d="M232.843,390.104c0.689,0,1.254,0.559,1.254,1.248
				c0,0.69-0.565,1.255-1.254,1.255c-0.69,0-1.248-0.564-1.248-1.255C231.594,390.663,232.153,390.104,232.843,390.104z"/>
			<path fill-rule="evenodd" clip-rule="evenodd" fill="#94C83D" d="M244.124,390.104c0.689,0,1.254,0.559,1.254,1.248
				c0,0.69-0.565,1.255-1.254,1.255c-0.69,0-1.248-0.564-1.248-1.255C242.876,390.663,243.434,390.104,244.124,390.104z"/>
		</g>
		<g>
			<path fill-rule="evenodd" clip-rule="evenodd" fill="#94C83D" d="M307.682,360.767v15.26c0,3.073,2.594,5.569,5.784,5.569h1.104
				c3.191,0,5.785-2.496,5.785-5.569v-15.26c0-3.08-2.594-5.569-5.785-5.569h-1.104
				C310.276,355.197,307.682,357.687,307.682,360.767z"/>
			<path fill-rule="evenodd" clip-rule="evenodd" fill="#94C83D" d="M277.128,360.767v15.26c0,3.073,2.594,5.569,5.792,5.569h1.097
				c3.198,0,5.792-2.496,5.792-5.569v-15.26c0-3.08-2.594-5.569-5.792-5.569h-1.097
				C279.721,355.197,277.128,357.687,277.128,360.767z"/>
			<path fill-rule="evenodd" clip-rule="evenodd" fill="#94C83D" d="M290.55,396.836c-2.601-0.748-4.905-1.872-6.915-3.374
				c-2.01-1.498-3.605-3.376-4.787-5.628c-1.129-2.161-1.721-4.683-1.767-7.578l0,0v-0.21v-3.284l0,0v-0.61
				c0-3.217,2.626-5.824,5.864-5.824h1.117c3.237,0,5.864,2.607,5.864,5.824v2.745c0.111,1.03,0.362,1.931,0.735,2.705
				c0.538,1.103,1.235,1.983,2.095,2.652c0.86,0.671,1.812,1.17,2.856,1.491c1.043,0.322,2.1,0.479,3.178,0.479
				c1.019,0,2.062-0.157,3.14-0.479c1.069-0.321,2.021-0.82,2.855-1.491c0.834-0.669,1.517-1.55,2.049-2.652
				c0.499-1.018,0.762-2.252,0.801-3.703v-1.747c0-3.217,2.627-5.824,5.871-5.824h1.115c3.238,0,5.865,2.607,5.865,5.824
				l0.013,3.723c0,3.054-0.591,5.707-1.773,7.96c-1.175,2.252-2.758,4.13-4.74,5.628c-1.983,1.502-4.288,2.626-6.915,3.374
				c-2.627,0.755-5.385,1.13-8.28,1.13C295.895,397.966,293.144,397.591,290.55,396.836z"/>
			<path fill-rule="evenodd" clip-rule="evenodd" fill="#94C83D" d="M277.082,362.56v-0.61l0,0v-3.106c0-0.086,0-0.164,0-0.25
				v-0.138l0,0c0.046-2.89,0.637-5.417,1.767-7.578c1.182-2.246,2.777-4.123,4.787-5.627c2.01-1.504,4.314-2.626,6.915-3.375
				c2.594-0.749,5.345-1.13,8.241-1.13c2.896,0,5.653,0.381,8.28,1.13s4.932,1.871,6.915,3.375c1.982,1.504,3.565,3.381,4.74,5.627
				c1.183,2.253,1.773,4.905,1.773,7.966v3.106h-0.013v0.61c0,3.217-2.627,5.823-5.865,5.823h-1.115
				c-3.244,0-5.871-2.606-5.871-5.823v-1.747c-0.039-1.452-0.302-2.686-0.801-3.704c-0.532-1.104-1.215-1.982-2.049-2.652
				c-0.834-0.669-1.786-1.169-2.855-1.49c-1.078-0.322-2.121-0.479-3.14-0.479c-1.078,0-2.134,0.157-3.178,0.479
				c-1.044,0.321-1.997,0.821-2.856,1.49c-0.86,0.67-1.557,1.549-2.095,2.652c-0.374,0.774-0.624,1.682-0.735,2.713v2.738
				c0,3.217-2.626,5.823-5.864,5.823h-1.117C279.708,368.383,277.082,365.776,277.082,362.56z"/>
			<path fill-rule="evenodd" clip-rule="evenodd" fill="#94C83D" d="M313.972,374.754c0.689,0,1.247,0.557,1.247,1.247
				c0,0.688-0.558,1.253-1.247,1.253c-0.696,0-1.255-0.564-1.255-1.253C312.718,375.311,313.276,374.754,313.972,374.754z"/>
			<path fill-rule="evenodd" clip-rule="evenodd" fill="#94C83D" d="M283.497,374.754c0.696,0,1.254,0.557,1.254,1.247
				c0,0.688-0.559,1.253-1.254,1.253c-0.689,0-1.247-0.564-1.247-1.253C282.25,375.311,282.808,374.754,283.497,374.754z"/>
			<path fill-rule="evenodd" clip-rule="evenodd" fill="#94C83D" d="M313.972,362.689c0.689,0,1.247,0.56,1.247,1.248
				c0,0.69-0.558,1.255-1.247,1.255c-0.696,0-1.255-0.564-1.255-1.255C312.718,363.249,313.276,362.689,313.972,362.689z"/>
			<path fill-rule="evenodd" clip-rule="evenodd" fill="#94C83D" d="M283.497,362.689c0.696,0,1.254,0.56,1.254,1.248
				c0,0.69-0.559,1.255-1.254,1.255c-0.689,0-1.247-0.564-1.247-1.255C282.25,363.249,282.808,362.689,283.497,362.689z"/>
		</g>
		<g>
			<path fill-rule="evenodd" clip-rule="evenodd" fill="#94C83D" d="M363.197,384.837h-29.353c-3.204,0-5.799,2.602-5.799,5.799
				v1.097c0,3.198,2.595,5.798,5.799,5.798h29.353c3.203,0,5.797-2.6,5.797-5.798v-1.097
				C368.994,387.438,366.4,384.837,363.197,384.837z"/>
			<path fill-rule="evenodd" clip-rule="evenodd" fill="#94C83D" d="M363.197,342.149h-29.353c-3.204,0-5.799,2.594-5.799,5.798
				v1.097c0,3.198,2.595,5.798,5.799,5.798h29.353c3.203,0,5.797-2.6,5.797-5.798v-1.097
				C368.994,344.743,366.4,342.149,363.197,342.149z"/>
			<path fill-rule="evenodd" clip-rule="evenodd" fill="#94C83D" d="M328.597,387.905l29.412-43.424
				c1.858-2.556,5.449-3.113,8.022-1.242l0.889,0.644c2.573,1.872,3.157,5.464,1.299,8.017l-29.41,43.426
				c-1.859,2.554-5.451,3.111-8.025,1.24l-0.886-0.643C327.324,394.05,326.739,390.459,328.597,387.905z"/>
			<path fill-rule="evenodd" clip-rule="evenodd" fill="#94C83D" d="M362.927,346.417c0.689,0,1.247,0.565,1.247,1.255
				s-0.558,1.247-1.247,1.247c-0.696,0-1.254-0.558-1.254-1.247S362.231,346.417,362.927,346.417z"/>
			<path fill-rule="evenodd" clip-rule="evenodd" fill="#94C83D" d="M334.042,390.466c0.688,0,1.255,0.558,1.255,1.247
				c0,0.696-0.566,1.255-1.255,1.255c-0.69,0-1.248-0.559-1.248-1.255C332.794,391.023,333.351,390.466,334.042,390.466z"/>
		</g>
	</g>
</g>
</svg>
