<?xml version="1.0" encoding="utf-8"?>
<!-- Generator: Adobe Illustrator 15.0.0, SVG Export Plug-In . SVG Version: 6.00 Build 0)  -->
<!DOCTYPE svg PUBLIC "-//W3C//DTD SVG 1.1//EN" "http://www.w3.org/Graphics/SVG/1.1/DTD/svg11.dtd">
<svg version="1.1" id="图层_1" xmlns="http://www.w3.org/2000/svg" xmlns:xlink="http://www.w3.org/1999/xlink" x="0px" y="0px"
	 width="595.279px" height="841.89px" viewBox="0 0 595.279 841.89" enable-background="new 0 0 595.279 841.89"
	 xml:space="preserve">
<g>
	<g>
		
			<radialGradient id="SVGID_1_" cx="297.2078" cy="1728.4937" r="122.3921" gradientTransform="matrix(1 0 0 0.323 0 -13.6804)" gradientUnits="userSpaceOnUse">
			<stop  offset="0" style="stop-color:#CFD4DC"/>
			<stop  offset="0.4532" style="stop-color:#E4E6EB"/>
			<stop  offset="0.9515" style="stop-color:#FFFFFF"/>
		</radialGradient>
		<ellipse opacity="0.7" fill="url(#SVGID_1_)" cx="297.208" cy="544.622" rx="122.395" ry="39.533"/>
		<g>
			<path fill="#F9C89D" d="M410.659,371.705c0,62.562-59.744,112.392-113.278,156.354c-49.99-38.293-113.276-93.793-113.276-156.354
				c0-62.557,50.718-113.269,113.276-113.269C359.938,258.436,410.659,309.148,410.659,371.705z"/>
			<path fill="#F9C89D" d="M297.336,525.357c-21.017-16.147-50.923-40.385-73.71-67.729c-24.819-29.779-37.405-58.686-37.405-85.923
				c0-61.294,49.869-111.156,111.161-111.156c61.293,0,111.157,49.862,111.157,111.156c0,27.46-11.799,54.866-36.066,83.789
				C350.819,481.293,322.52,504.672,297.336,525.357z"/>
			<circle fill="#F9C89D" cx="297.381" cy="367.567" r="89.911"/>
			<g>
				<path fill="#828892" d="M382.866,367.567c0,47.213-38.275,85.487-85.485,85.487c-47.212,0-85.488-38.274-85.488-85.487
					c0-47.212,38.276-85.487,85.488-85.487C344.591,282.08,382.866,320.355,382.866,367.567z"/>
				<radialGradient id="SVGID_2_" cx="348.5222" cy="332.2412" r="139.0043" gradientUnits="userSpaceOnUse">
					<stop  offset="0" style="stop-color:#90959E"/>
					<stop  offset="0.6521" style="stop-color:#8D929C"/>
					<stop  offset="1" style="stop-color:#878D97"/>
				</radialGradient>
				<path fill="url(#SVGID_2_)" d="M381.682,367.998c0,46.787-37.931,84.716-84.714,84.716c-46.787,0-84.717-37.929-84.717-84.716
					s37.93-84.717,84.717-84.717C343.752,283.281,381.682,321.211,381.682,367.998z"/>
				<radialGradient id="SVGID_3_" cx="347.6394" cy="332.9971" r="137.74" gradientUnits="userSpaceOnUse">
					<stop  offset="0" style="stop-color:#9EA2AA"/>
					<stop  offset="0.5019" style="stop-color:#9B9FA8"/>
					<stop  offset="0.863" style="stop-color:#9297A1"/>
					<stop  offset="1" style="stop-color:#8C929D"/>
				</radialGradient>
				<circle fill="url(#SVGID_3_)" cx="296.553" cy="368.429" r="83.945"/>
				<radialGradient id="SVGID_4_" cx="346.7576" cy="333.7529" r="136.4757" gradientUnits="userSpaceOnUse">
					<stop  offset="0" style="stop-color:#ACB0B6"/>
					<stop  offset="0.4248" style="stop-color:#A9ADB4"/>
					<stop  offset="0.7304" style="stop-color:#A0A5AD"/>
					<stop  offset="0.9983" style="stop-color:#9097A2"/>
					<stop  offset="1" style="stop-color:#9097A2"/>
				</radialGradient>
				<circle fill="url(#SVGID_4_)" cx="296.14" cy="368.86" r="83.175"/>
				<radialGradient id="SVGID_5_" cx="345.8748" cy="334.5098" r="135.2104" gradientUnits="userSpaceOnUse">
					<stop  offset="0" style="stop-color:#BABDC2"/>
					<stop  offset="0.3824" style="stop-color:#B7BAC0"/>
					<stop  offset="0.6578" style="stop-color:#AEB2B9"/>
					<stop  offset="0.8988" style="stop-color:#9EA4AE"/>
					<stop  offset="1" style="stop-color:#959CA8"/>
				</radialGradient>
				<circle fill="url(#SVGID_5_)" cx="295.726" cy="369.291" r="82.404"/>
				<radialGradient id="SVGID_6_" cx="344.9929" cy="335.2651" r="133.9456" gradientUnits="userSpaceOnUse">
					<stop  offset="0" style="stop-color:#C7CACF"/>
					<stop  offset="0.3552" style="stop-color:#C4C7CD"/>
					<stop  offset="0.6109" style="stop-color:#BBBFC6"/>
					<stop  offset="0.8348" style="stop-color:#ABB1BA"/>
					<stop  offset="1" style="stop-color:#9AA2AD"/>
				</radialGradient>
				<path fill="url(#SVGID_6_)" d="M376.946,369.722c0,45.085-36.548,81.632-81.631,81.632c-45.087,0-81.635-36.547-81.635-81.632
					c0-45.086,36.548-81.635,81.635-81.635C340.398,288.086,376.946,324.635,376.946,369.722z"/>
				<radialGradient id="SVGID_7_" cx="344.1101" cy="336.021" r="132.6813" gradientUnits="userSpaceOnUse">
					<stop  offset="0" style="stop-color:#D5D7DB"/>
					<stop  offset="0.3315" style="stop-color:#D2D4D9"/>
					<stop  offset="0.5703" style="stop-color:#C9CCD2"/>
					<stop  offset="0.7799" style="stop-color:#B9BEC6"/>
					<stop  offset="0.9717" style="stop-color:#A3ABB6"/>
					<stop  offset="1" style="stop-color:#9FA7B3"/>
				</radialGradient>
				<path fill="url(#SVGID_7_)" d="M375.761,370.153c0,44.66-36.202,80.861-80.859,80.861c-44.662,0-80.865-36.202-80.865-80.861
					c0-44.662,36.203-80.865,80.865-80.865C339.559,289.288,375.761,325.491,375.761,370.153z"/>
				<radialGradient id="SVGID_8_" cx="343.2283" cy="336.7769" r="131.417" gradientUnits="userSpaceOnUse">
					<stop  offset="0" style="stop-color:#E3E5E7"/>
					<stop  offset="0.3109" style="stop-color:#E0E2E5"/>
					<stop  offset="0.5348" style="stop-color:#D7DADE"/>
					<stop  offset="0.7314" style="stop-color:#C7CCD2"/>
					<stop  offset="0.9113" style="stop-color:#B1B8C2"/>
					<stop  offset="1" style="stop-color:#A3ACB8"/>
				</radialGradient>
				<path fill="url(#SVGID_8_)" d="M374.578,370.584c0,44.234-35.857,80.09-80.089,80.09c-44.237,0-80.094-35.856-80.094-80.09
					c0-44.237,35.857-80.095,80.094-80.095C338.72,290.489,374.578,326.347,374.578,370.584z"/>
				<radialGradient id="SVGID_9_" cx="342.3455" cy="337.5337" r="130.1517" gradientUnits="userSpaceOnUse">
					<stop  offset="0" style="stop-color:#F1F2F3"/>
					<stop  offset="0.2959" style="stop-color:#EEEFF1"/>
					<stop  offset="0.5089" style="stop-color:#E5E7EA"/>
					<stop  offset="0.696" style="stop-color:#D5D9DF"/>
					<stop  offset="0.8672" style="stop-color:#BFC5CF"/>
					<stop  offset="1" style="stop-color:#A8B1BE"/>
				</radialGradient>
				<path fill="url(#SVGID_9_)" d="M373.393,371.015c0,43.809-35.511,79.32-79.318,79.32c-43.812,0-79.324-35.511-79.324-79.32
					c0-43.812,35.512-79.324,79.324-79.324C337.883,291.691,373.393,327.203,373.393,371.015z"/>
				<radialGradient id="SVGID_10_" cx="341.4626" cy="338.2896" r="128.8877" gradientUnits="userSpaceOnUse">
					<stop  offset="0" style="stop-color:#FFFFFF"/>
					<stop  offset="0.2832" style="stop-color:#FCFCFD"/>
					<stop  offset="0.4871" style="stop-color:#F3F4F6"/>
					<stop  offset="0.6662" style="stop-color:#E3E6EB"/>
					<stop  offset="0.8309" style="stop-color:#CDD2DA"/>
					<stop  offset="0.9845" style="stop-color:#B0B9C5"/>
					<stop  offset="1" style="stop-color:#ADB6C3"/>
				</radialGradient>
				<path fill="url(#SVGID_10_)" d="M372.21,371.446c0,43.383-35.166,78.549-78.547,78.549c-43.387,0-78.553-35.166-78.553-78.549
					c0-43.387,35.166-78.554,78.553-78.554C337.044,292.892,372.21,328.059,372.21,371.446z"/>
			</g>
		</g>
		<g>
			<path fill-rule="evenodd" clip-rule="evenodd" fill="#AF1E8B" d="M235.591,392.831l-3.073-0.007h-0.605
				c-0.338,0-0.67-0.027-0.989-0.082c-3.269-0.199-6.081-0.723-7.936-1.594c-2.021-1.112-3.704-2.6-5.048-4.471l0.013-0.02
				c-0.007-0.007-0.013-0.014-0.019-0.027c-0.217-0.301-0.421-0.603-0.619-0.918c-5.711-8.55,5.241-13.542,8.255-8.677
				c0.185,0.335,0.39,0.656,0.619,0.964l0.019-0.013c0.599,0.784,1.415,1.54,2.396,2.051c0.919,0.469,2.384,1.193,3.66,1.165
				l2.594-0.039c0.057,0,0.115,0.006,0.178,0.006c0.727-0.047,1.403-0.141,1.899-0.341c1.091-0.442,1.474-0.765,2.13-1.441
				c0.663-0.684,1.153-1.468,1.473-2.345c0.222-0.677,0.375-1.414,0.375-2.285v-32.681c0-3.264,2.55-5.917,5.693-5.917h1.078
				c3.148,0,5.699,2.653,5.699,5.917v32.432c0.031,0.966,0.051,2.594-0.121,3.593c-0.186,1.266-0.485,2.507-0.893,3.705
				c-0.746,2.158-1.854,4.048-3.34,5.677c-1.485,1.627-3.34,2.928-5.565,3.899C241.238,392.347,238.612,392.831,235.591,392.831z"/>
			<path fill-rule="evenodd" clip-rule="evenodd" fill="#AF1E8B" d="M240.919,341.942v27.997c0,3.311,2.55,5.991,5.692,5.991h1.084
				c3.142,0,5.693-2.681,5.693-5.991v-27.997c0-3.311-2.551-5.99-5.693-5.99h-1.084
				C243.469,335.952,240.919,338.631,240.919,341.942z"/>
			<path fill-rule="evenodd" clip-rule="evenodd" fill="#AF1E8B" d="M246.969,340.923c0.676,0,1.217,0.569,1.217,1.273
				c0,0.703-0.541,1.28-1.217,1.28c-0.668,0-1.211-0.577-1.211-1.28C245.758,341.493,246.3,340.923,246.969,340.923z"/>
			<path fill-rule="evenodd" clip-rule="evenodd" fill="#AF1E8B" d="M246.969,370c0.676,0,1.217,0.568,1.217,1.272
				s-0.541,1.279-1.217,1.279c-0.668,0-1.211-0.575-1.211-1.279S246.3,370,246.969,370z"/>
			<g>
				<path fill-rule="evenodd" clip-rule="evenodd" fill="#AF1E8B" d="M301.213,355.04v15.574c0,3.135,2.519,5.683,5.616,5.683h1.07
					c3.1,0,5.617-2.548,5.617-5.683V355.04c0-3.142-2.518-5.683-5.617-5.683h-1.07C303.731,349.357,301.213,351.898,301.213,355.04z
					"/>
				<path fill-rule="evenodd" clip-rule="evenodd" fill="#AF1E8B" d="M271.553,355.04v15.574c0,3.135,2.518,5.683,5.623,5.683h1.064
					c3.104,0,5.623-2.548,5.623-5.683V355.04c0-3.142-2.519-5.683-5.623-5.683h-1.064
					C274.071,349.357,271.553,351.898,271.553,355.04z"/>
				<path fill-rule="evenodd" clip-rule="evenodd" fill="#AF1E8B" d="M284.582,391.848c-2.524-0.764-4.762-1.909-6.712-3.442
					c-1.951-1.529-3.5-3.445-4.647-5.744c-1.096-2.204-1.67-4.778-1.715-7.733l0,0v-0.214v-3.351l0,0v-0.623
					c0-3.283,2.55-5.943,5.693-5.943h1.083c3.143,0,5.692,2.66,5.692,5.943v2.8c0.108,1.053,0.352,1.972,0.714,2.762
					c0.521,1.126,1.198,2.024,2.033,2.707c0.835,0.685,1.759,1.193,2.772,1.522c1.013,0.328,2.04,0.487,3.085,0.487
					c0.988,0,2.002-0.159,3.047-0.487c1.039-0.329,1.962-0.838,2.774-1.522c0.809-0.683,1.471-1.581,1.988-2.707
					c0.484-1.039,0.739-2.298,0.777-3.779v-1.782c0-3.283,2.55-5.943,5.699-5.943h1.082c3.144,0,5.693,2.66,5.693,5.943l0.014,3.799
					c0,3.116-0.574,5.824-1.723,8.122c-1.14,2.299-2.677,4.215-4.602,5.744c-1.925,1.533-4.163,2.679-6.713,3.442
					c-2.549,0.771-5.227,1.153-8.038,1.153C289.771,393.001,287.1,392.62,284.582,391.848z"/>
				<path fill-rule="evenodd" clip-rule="evenodd" fill="#AF1E8B" d="M271.508,356.87v-0.623l0,0v-3.17c0-0.087,0-0.168,0-0.255
					v-0.14l0,0c0.045-2.949,0.619-5.529,1.715-7.734c1.148-2.291,2.696-4.208,4.647-5.741c1.95-1.535,4.188-2.682,6.712-3.445
					c2.518-0.765,5.188-1.152,8-1.152c2.812,0,5.489,0.388,8.038,1.152c2.55,0.764,4.788,1.91,6.713,3.445
					c1.925,1.533,3.462,3.45,4.602,5.741c1.148,2.3,1.723,5.007,1.723,8.129v3.17h-0.014v0.623c0,3.284-2.55,5.943-5.693,5.943
					h-1.082c-3.149,0-5.699-2.659-5.699-5.943v-1.783c-0.038-1.48-0.293-2.74-0.777-3.778c-0.518-1.127-1.18-2.024-1.988-2.707
					c-0.812-0.684-1.735-1.194-2.774-1.521c-1.045-0.328-2.059-0.489-3.047-0.489c-1.045,0-2.072,0.161-3.085,0.489
					c-1.013,0.327-1.938,0.838-2.772,1.521c-0.835,0.683-1.512,1.58-2.033,2.707c-0.363,0.79-0.606,1.715-0.714,2.768v2.794
					c0,3.284-2.55,5.943-5.692,5.943h-1.083C274.058,362.813,271.508,360.154,271.508,356.87z"/>
				<path fill-rule="evenodd" clip-rule="evenodd" fill="#AF1E8B" d="M307.32,369.314c0.669,0,1.211,0.569,1.211,1.272
					s-0.542,1.279-1.211,1.279c-0.677,0-1.218-0.576-1.218-1.279S306.643,369.314,307.32,369.314z"/>
				<path fill-rule="evenodd" clip-rule="evenodd" fill="#AF1E8B" d="M277.737,369.314c0.675,0,1.217,0.569,1.217,1.272
					s-0.542,1.279-1.217,1.279c-0.669,0-1.211-0.576-1.211-1.279S277.067,369.314,277.737,369.314z"/>
				<path fill-rule="evenodd" clip-rule="evenodd" fill="#AF1E8B" d="M307.32,357.003c0.669,0,1.211,0.57,1.211,1.272
					c0,0.705-0.542,1.28-1.211,1.28c-0.677,0-1.218-0.575-1.218-1.28C306.102,357.574,306.643,357.003,307.32,357.003z"/>
				<path fill-rule="evenodd" clip-rule="evenodd" fill="#AF1E8B" d="M277.737,357.003c0.675,0,1.217,0.57,1.217,1.272
					c0,0.705-0.542,1.28-1.217,1.28c-0.669,0-1.211-0.575-1.211-1.28C276.525,357.574,277.067,357.003,277.737,357.003z"/>
			</g>
			<g>
				<path fill-rule="evenodd" clip-rule="evenodd" fill="#AF1E8B" d="M330.305,341.227v43.932c0,3.265,2.518,5.917,5.622,5.917h1.07
					c3.105,0,5.623-2.652,5.623-5.917v-43.932c0-3.263-2.518-5.917-5.623-5.917h-1.07
					C332.823,335.31,330.305,337.964,330.305,341.227z"/>
				<path fill-rule="evenodd" clip-rule="evenodd" fill="#AF1E8B" d="M362.33,340.584v43.751c0,3.263,2.519,5.91,5.623,5.91h1.063
					c3.112,0,5.629-2.647,5.629-5.91v-43.751c0-3.264-2.517-5.911-5.629-5.911h-1.063
					C364.848,334.673,362.33,337.321,362.33,340.584z"/>
				<path fill-rule="evenodd" clip-rule="evenodd" fill="#AF1E8B" d="M363.032,388.202l-31.916-43.791
					c-1.658-2.848-0.797-6.587,1.931-8.35l0.938-0.604c2.727-1.762,6.283-0.884,7.947,1.963l31.916,43.793
					c1.664,2.847,0.797,6.587-1.924,8.349l-0.938,0.603C368.259,391.927,365.04,390.969,363.032,388.202z"/>
				<path fill-rule="evenodd" clip-rule="evenodd" fill="#AF1E8B" d="M336.821,340.243c0.668,0,1.211,0.576,1.211,1.279
					c0,0.704-0.543,1.274-1.211,1.274c-0.677,0-1.218-0.57-1.218-1.274C335.603,340.819,336.144,340.243,336.821,340.243z"/>
				<path fill-rule="evenodd" clip-rule="evenodd" fill="#AF1E8B" d="M368.055,383.015c0.669,0,1.211,0.576,1.211,1.28
					c0,0.702-0.542,1.272-1.211,1.272c-0.676,0-1.218-0.57-1.218-1.272C366.838,383.591,367.38,383.015,368.055,383.015z"/>
			</g>
		</g>
	</g>
</g>
</svg>
