<?xml version="1.0" encoding="utf-8"?>
<!-- Generator: Adobe Illustrator 15.0.0, SVG Export Plug-In . SVG Version: 6.00 Build 0)  -->
<!DOCTYPE svg PUBLIC "-//W3C//DTD SVG 1.1//EN" "http://www.w3.org/Graphics/SVG/1.1/DTD/svg11.dtd">
<svg version="1.1" id="图层_1" xmlns="http://www.w3.org/2000/svg" xmlns:xlink="http://www.w3.org/1999/xlink" x="0px" y="0px"
	 width="595.279px" height="841.89px" viewBox="0 0 595.279 841.89" enable-background="new 0 0 595.279 841.89"
	 xml:space="preserve">
<g>
	<g>
		
			<radialGradient id="SVGID_1_" cx="297.5398" cy="1728.5073" r="122.3935" gradientTransform="matrix(1 0 0 0.323 0 -13.6804)" gradientUnits="userSpaceOnUse">
			<stop  offset="0" style="stop-color:#CFD4DC"/>
			<stop  offset="0.4532" style="stop-color:#E4E6EB"/>
			<stop  offset="0.9515" style="stop-color:#FFFFFF"/>
		</radialGradient>
		<ellipse opacity="0.7" fill="url(#SVGID_1_)" cx="297.54" cy="544.626" rx="122.396" ry="39.533"/>
		<g>
			<linearGradient id="SVGID_2_" gradientUnits="userSpaceOnUse" x1="386.239" y1="287.4736" x2="219.1999" y2="450.0579">
				<stop  offset="0" style="stop-color:#F59D9A"/>
				<stop  offset="0.28" style="stop-color:#D87B79"/>
				<stop  offset="0.8962" style="stop-color:#902426"/>
				<stop  offset="1" style="stop-color:#831517"/>
			</linearGradient>
			<path fill="url(#SVGID_2_)" d="M410.991,371.708c0,62.562-59.742,112.394-113.275,156.352
				c-49.992-38.29-113.279-93.79-113.279-156.352c0-62.559,50.719-113.271,113.279-113.271
				C360.272,258.436,410.991,309.149,410.991,371.708z"/>
			<linearGradient id="SVGID_3_" gradientUnits="userSpaceOnUse" x1="381.7068" y1="296.8174" x2="214.1371" y2="451.547">
				<stop  offset="0" style="stop-color:#ED2523"/>
				<stop  offset="0.446" style="stop-color:#CB2121"/>
				<stop  offset="1" style="stop-color:#9B1B1F"/>
			</linearGradient>
			<path fill="url(#SVGID_3_)" d="M297.667,525.36c-21.016-16.147-50.922-40.382-73.709-67.729
				c-24.818-29.779-37.404-58.687-37.404-85.924c0-61.292,49.867-111.156,111.162-111.156c61.293,0,111.156,49.864,111.156,111.156
				c0,27.46-11.801,54.867-36.072,83.789C351.151,481.296,322.852,504.676,297.667,525.36z"/>
			<linearGradient id="SVGID_4_" gradientUnits="userSpaceOnUse" x1="212.1316" y1="446.8022" x2="376.4911" y2="294.6409">
				<stop  offset="0" style="stop-color:#ED2523"/>
				<stop  offset="0.446" style="stop-color:#CB2121"/>
				<stop  offset="1" style="stop-color:#9B1B1F"/>
			</linearGradient>
			<path fill="url(#SVGID_4_)" d="M387.622,367.571c0,49.655-40.252,89.912-89.906,89.912c-49.66,0-89.912-40.257-89.912-89.912
				c0-49.656,40.252-89.91,89.912-89.91C347.37,277.661,387.622,317.915,387.622,367.571z"/>
			<g>
				<path fill="#828892" d="M383.2,367.571c0,47.212-38.275,85.487-85.484,85.487c-47.211,0-85.488-38.275-85.488-85.487
					c0-47.211,38.277-85.488,85.488-85.488C344.925,282.083,383.2,320.36,383.2,367.571z"/>
				<radialGradient id="SVGID_5_" cx="348.8562" cy="332.2451" r="139.0043" gradientUnits="userSpaceOnUse">
					<stop  offset="0" style="stop-color:#90959E"/>
					<stop  offset="0.6521" style="stop-color:#8D929C"/>
					<stop  offset="1" style="stop-color:#878D97"/>
				</radialGradient>
				<path fill="url(#SVGID_5_)" d="M382.016,368.001c0,46.787-37.931,84.717-84.714,84.717c-46.786,0-84.718-37.93-84.718-84.717
					c0-46.786,37.932-84.717,84.718-84.717C344.086,283.284,382.016,321.216,382.016,368.001z"/>
				<radialGradient id="SVGID_6_" cx="347.9734" cy="333.001" r="137.74" gradientUnits="userSpaceOnUse">
					<stop  offset="0" style="stop-color:#9EA2AA"/>
					<stop  offset="0.5019" style="stop-color:#9B9FA8"/>
					<stop  offset="0.863" style="stop-color:#9297A1"/>
					<stop  offset="1" style="stop-color:#8C929D"/>
				</radialGradient>
				<path fill="url(#SVGID_6_)" d="M380.832,368.432c0,46.361-37.584,83.946-83.942,83.946c-46.362,0-83.948-37.585-83.948-83.946
					c0-46.36,37.586-83.946,83.948-83.946C343.248,284.486,380.832,322.072,380.832,368.432z"/>
				<radialGradient id="SVGID_7_" cx="347.0916" cy="333.7573" r="136.4742" gradientUnits="userSpaceOnUse">
					<stop  offset="0" style="stop-color:#ACB0B6"/>
					<stop  offset="0.4248" style="stop-color:#A9ADB4"/>
					<stop  offset="0.7304" style="stop-color:#A0A5AD"/>
					<stop  offset="0.9983" style="stop-color:#9097A2"/>
					<stop  offset="1" style="stop-color:#9097A2"/>
				</radialGradient>
				<path fill="url(#SVGID_7_)" d="M379.648,368.863c0,45.936-37.239,83.174-83.172,83.174c-45.937,0-83.177-37.239-83.177-83.174
					s37.24-83.176,83.177-83.176C342.409,285.688,379.648,322.928,379.648,368.863z"/>
				<radialGradient id="SVGID_8_" cx="346.2087" cy="334.5132" r="135.2099" gradientUnits="userSpaceOnUse">
					<stop  offset="0" style="stop-color:#BABDC2"/>
					<stop  offset="0.3824" style="stop-color:#B7BAC0"/>
					<stop  offset="0.6578" style="stop-color:#AEB2B9"/>
					<stop  offset="0.8988" style="stop-color:#9EA4AE"/>
					<stop  offset="1" style="stop-color:#959CA8"/>
				</radialGradient>
				<path fill="url(#SVGID_8_)" d="M378.464,369.294c0,45.51-36.894,82.404-82.401,82.404c-45.512,0-82.407-36.894-82.407-82.404
					s36.895-82.405,82.407-82.405C341.57,286.889,378.464,323.784,378.464,369.294z"/>
				<radialGradient id="SVGID_9_" cx="345.3269" cy="335.269" r="133.9456" gradientUnits="userSpaceOnUse">
					<stop  offset="0" style="stop-color:#C7CACF"/>
					<stop  offset="0.3552" style="stop-color:#C4C7CD"/>
					<stop  offset="0.6109" style="stop-color:#BBBFC6"/>
					<stop  offset="0.8348" style="stop-color:#ABB1BA"/>
					<stop  offset="1" style="stop-color:#9AA2AD"/>
				</radialGradient>
				<circle fill="url(#SVGID_9_)" cx="295.647" cy="369.725" r="81.633"/>
				<radialGradient id="SVGID_10_" cx="344.4441" cy="336.0249" r="132.6813" gradientUnits="userSpaceOnUse">
					<stop  offset="0" style="stop-color:#D5D7DB"/>
					<stop  offset="0.3315" style="stop-color:#D2D4D9"/>
					<stop  offset="0.5703" style="stop-color:#C9CCD2"/>
					<stop  offset="0.7799" style="stop-color:#B9BEC6"/>
					<stop  offset="0.9717" style="stop-color:#A3ABB6"/>
					<stop  offset="1" style="stop-color:#9FA7B3"/>
				</radialGradient>
				<path fill="url(#SVGID_10_)" d="M376.095,370.155c0,44.66-36.202,80.863-80.859,80.863c-44.663,0-80.866-36.203-80.866-80.863
					s36.203-80.863,80.866-80.863C339.893,289.292,376.095,325.495,376.095,370.155z"/>
				<radialGradient id="SVGID_11_" cx="343.5623" cy="336.7813" r="131.4154" gradientUnits="userSpaceOnUse">
					<stop  offset="0" style="stop-color:#E3E5E7"/>
					<stop  offset="0.3109" style="stop-color:#E0E2E5"/>
					<stop  offset="0.5348" style="stop-color:#D7DADE"/>
					<stop  offset="0.7314" style="stop-color:#C7CCD2"/>
					<stop  offset="0.9113" style="stop-color:#B1B8C2"/>
					<stop  offset="1" style="stop-color:#A3ACB8"/>
				</radialGradient>
				<path fill="url(#SVGID_11_)" d="M374.912,370.586c0,44.234-35.857,80.091-80.089,80.091c-44.238,0-80.095-35.856-80.095-80.091
					c0-44.235,35.857-80.093,80.095-80.093C339.054,290.494,374.912,326.351,374.912,370.586z"/>
				<radialGradient id="SVGID_12_" cx="342.6785" cy="337.5371" r="130.1514" gradientUnits="userSpaceOnUse">
					<stop  offset="0" style="stop-color:#F1F2F3"/>
					<stop  offset="0.2959" style="stop-color:#EEEFF1"/>
					<stop  offset="0.5089" style="stop-color:#E5E7EA"/>
					<stop  offset="0.696" style="stop-color:#D5D9DF"/>
					<stop  offset="0.8672" style="stop-color:#BFC5CF"/>
					<stop  offset="1" style="stop-color:#A8B1BE"/>
				</radialGradient>
				<path fill="url(#SVGID_12_)" d="M373.727,371.017c0,43.809-35.511,79.32-79.317,79.32c-43.813,0-79.325-35.511-79.325-79.32
					c0-43.81,35.512-79.322,79.325-79.322C338.217,291.695,373.727,327.207,373.727,371.017z"/>
				<radialGradient id="SVGID_13_" cx="341.7966" cy="338.2935" r="128.8866" gradientUnits="userSpaceOnUse">
					<stop  offset="0" style="stop-color:#FFFFFF"/>
					<stop  offset="0.2832" style="stop-color:#FCFCFD"/>
					<stop  offset="0.4871" style="stop-color:#F3F4F6"/>
					<stop  offset="0.6662" style="stop-color:#E3E6EB"/>
					<stop  offset="0.8309" style="stop-color:#CDD2DA"/>
					<stop  offset="0.9845" style="stop-color:#B0B9C5"/>
					<stop  offset="1" style="stop-color:#ADB6C3"/>
				</radialGradient>
				<path fill="url(#SVGID_13_)" d="M372.544,371.448c0,43.384-35.166,78.55-78.547,78.55c-43.389,0-78.555-35.166-78.555-78.55
					c0-43.385,35.166-78.551,78.555-78.551C337.378,292.897,372.544,328.063,372.544,371.448z"/>
			</g>
		</g>
	</g>
	<g>
		<path fill-rule="evenodd" clip-rule="evenodd" fill="#4370B6" d="M245.139,386.12l-18.164-38.647
			c-1.275-3.12-0.229-6.925,2.326-8.499l0.881-0.545c2.555-1.573,5.66-0.315,6.93,2.805l18.164,38.641
			c1.27,3.125,0.229,6.932-2.326,8.506l-0.881,0.538C249.512,390.492,246.409,389.239,245.139,386.12z"/>
		<path fill-rule="evenodd" clip-rule="evenodd" fill="#4370B6" d="M226.387,343.471v46.671c0,3.42,2.248,6.189,5.018,6.189h0.955
			c2.771,0,5.02-2.77,5.02-6.189v-46.671c0-3.421-2.248-6.19-5.02-6.19h-0.955C228.635,337.281,226.387,340.05,226.387,343.471z"/>
		<path fill-rule="evenodd" clip-rule="evenodd" fill="#4370B6" d="M255.276,386.77l18.279-39.598
			c1.268-3.12,0.568-6.961-1.986-8.535l-0.881-0.545c-2.555-1.566-5.662-0.314-6.93,2.805l-18.619,39.634
			c-1.275,3.119-0.229,6.925,2.326,8.499l0.881,0.545C250.901,391.149,254.009,389.89,255.276,386.77z"/>
		<path fill-rule="evenodd" clip-rule="evenodd" fill="#4370B6" d="M274.231,343.471v46.671c0,3.42-2.246,6.189-5.016,6.189h-0.957
			c-2.771,0-5.018-2.77-5.018-6.189v-46.671c0-3.421,2.246-6.19,5.018-6.19h0.957C271.985,337.281,274.231,340.05,274.231,343.471z"
			/>
		<path fill-rule="evenodd" clip-rule="evenodd" fill="#4370B6" d="M231.917,343.22c0.598,0,1.088,0.601,1.088,1.336
			c0,0.733-0.49,1.329-1.088,1.329c-0.596,0-1.08-0.596-1.08-1.329C230.837,343.821,231.321,343.22,231.917,343.22z"/>
		<path fill-rule="evenodd" clip-rule="evenodd" fill="#4370B6" d="M268.815,343.22c0.6,0,1.082,0.601,1.082,1.336
			c0,0.733-0.482,1.329-1.082,1.329c-0.596,0-1.08-0.596-1.08-1.329C267.735,343.821,268.219,343.22,268.815,343.22z"/>
		<path fill-rule="evenodd" clip-rule="evenodd" fill="#4370B6" d="M250.249,383.125c0.596,0,1.08,0.595,1.08,1.328
			c0,0.735-0.484,1.33-1.08,1.33c-0.604,0-1.088-0.595-1.088-1.33C249.161,383.72,249.645,383.125,250.249,383.125z"/>
		<g>
			<path fill-rule="evenodd" clip-rule="evenodd" fill="#4370B6" d="M310.505,358.57v16.257c0,3.273,2.248,5.932,5.012,5.932h0.957
				c2.766,0,5.012-2.658,5.012-5.932V358.57c0-3.279-2.246-5.932-5.012-5.932h-0.957
				C312.753,352.638,310.505,355.291,310.505,358.57z"/>
			<path fill-rule="evenodd" clip-rule="evenodd" fill="#4370B6" d="M284.034,358.57v16.257c0,3.273,2.248,5.932,5.018,5.932h0.951
				c2.77,0,5.018-2.658,5.018-5.932V358.57c0-3.279-2.248-5.932-5.018-5.932h-0.951C286.282,352.638,284.034,355.291,284.034,358.57
				z"/>
			<path fill-rule="evenodd" clip-rule="evenodd" fill="#4370B6" d="M295.663,396.993c-2.254-0.796-4.25-1.992-5.99-3.594
				c-1.742-1.596-3.123-3.596-4.148-5.995c-0.979-2.303-1.49-4.987-1.529-8.073l0,0v-0.224v-3.497l0,0v-0.65
				c0-3.427,2.275-6.205,5.08-6.205h0.967c2.805,0,5.08,2.778,5.08,6.205v2.924c0.098,1.098,0.314,2.057,0.639,2.882
				c0.465,1.176,1.068,2.112,1.814,2.826c0.744,0.714,1.57,1.245,2.475,1.589c0.904,0.343,1.818,0.509,2.752,0.509
				c0.883,0,1.787-0.166,2.721-0.509c0.926-0.344,1.752-0.875,2.475-1.589s1.314-1.65,1.775-2.826
				c0.432-1.085,0.658-2.399,0.693-3.945v-1.86c0-3.427,2.275-6.205,5.086-6.205h0.967c2.805,0,5.08,2.778,5.08,6.205l0.012,3.966
				c0,3.253-0.512,6.079-1.537,8.479c-1.018,2.399-2.389,4.399-4.105,5.995c-1.719,1.602-3.717,2.798-5.992,3.594
				c-2.275,0.805-4.664,1.204-7.174,1.204C300.294,398.197,297.909,397.797,295.663,396.993z"/>
			<path fill-rule="evenodd" clip-rule="evenodd" fill="#4370B6" d="M283.995,360.48v-0.649l0,0v-3.31c0-0.092,0-0.175,0-0.266
				v-0.146l0,0c0.039-3.079,0.551-5.771,1.529-8.073c1.025-2.393,2.406-4.392,4.148-5.993c1.74-1.604,3.736-2.799,5.99-3.596
				c2.246-0.798,4.631-1.204,7.139-1.204c2.51,0,4.898,0.406,7.174,1.204c2.275,0.797,4.273,1.992,5.992,3.596
				c1.717,1.602,3.088,3.601,4.105,5.993c1.025,2.4,1.537,5.227,1.537,8.485v3.31h-0.012v0.649c0,3.429-2.275,6.204-5.08,6.204
				h-0.967c-2.811,0-5.086-2.775-5.086-6.204v-1.86c-0.035-1.547-0.262-2.86-0.693-3.945c-0.461-1.176-1.053-2.113-1.775-2.826
				s-1.549-1.245-2.475-1.588c-0.934-0.342-1.838-0.51-2.721-0.51c-0.934,0-1.848,0.168-2.752,0.51
				c-0.904,0.343-1.73,0.875-2.475,1.588c-0.746,0.713-1.35,1.65-1.814,2.826c-0.324,0.825-0.541,1.791-0.639,2.89v2.916
				c0,3.429-2.275,6.204-5.08,6.204h-0.967C286.27,366.684,283.995,363.909,283.995,360.48z"/>
			<path fill-rule="evenodd" clip-rule="evenodd" fill="#4370B6" d="M315.956,373.47c0.598,0,1.08,0.594,1.08,1.329
				c0,0.733-0.482,1.335-1.08,1.335c-0.604,0-1.088-0.602-1.088-1.335C314.868,374.064,315.352,373.47,315.956,373.47z"/>
			<ellipse fill-rule="evenodd" clip-rule="evenodd" fill="#4370B6" cx="289.553" cy="374.802" rx="1.086" ry="1.332"/>
			<path fill-rule="evenodd" clip-rule="evenodd" fill="#4370B6" d="M315.956,360.62c0.598,0,1.08,0.596,1.08,1.329
				c0,0.735-0.482,1.336-1.08,1.336c-0.604,0-1.088-0.601-1.088-1.336C314.868,361.215,315.352,360.62,315.956,360.62z"/>
			<path fill-rule="evenodd" clip-rule="evenodd" fill="#4370B6" d="M289.553,360.62c0.602,0,1.086,0.596,1.086,1.329
				c0,0.735-0.484,1.336-1.086,1.336c-0.598,0-1.082-0.601-1.082-1.336C288.471,361.215,288.956,360.62,289.553,360.62z"/>
		</g>
		<g>
			<path fill-rule="evenodd" clip-rule="evenodd" fill="#4370B6" d="M340.214,340.037h10.383c2.834,0,4.551,2.848,4.551,6.275v1.175
				c0,3.428-2.297,6.205-5.131,6.205l-5.711-0.091l-4.092,0.021c-2.832,0-5.131-2.776-5.131-6.204v-1.175
				C335.083,342.815,337.382,340.037,340.214,340.037z"/>
			<path fill-rule="evenodd" clip-rule="evenodd" fill="#4370B6" d="M344.288,372.613l4.006,0.069h3.246c0.008,0,0.008,0,0.012,0
				h2.34c2.77,0,5.018,2.764,5.018,6.17v1.175c0,3.407-2.248,6.17-5.018,6.17l-5.592-0.091l-4.012,0.021
				c-2.766,0-5.018-2.77-5.018-6.177v-1.169C339.27,375.376,341.522,372.606,344.288,372.613z"/>
			<path fill-rule="evenodd" clip-rule="evenodd" fill="#4370B6" d="M350.466,340.037h0.529l0,0h2.697c0.068,0,0.143,0,0.215,0
				h0.113l0,0c2.51,0.05,4.701,0.679,6.566,1.883c1.951,1.259,3.578,2.951,4.881,5.1c1.297,2.141,2.275,4.596,2.924,7.366
				c0.648,2.77,0.973,5.692,0.973,8.777s-0.324,6.022-0.973,8.82s-1.627,5.254-2.924,7.367c-1.303,2.111-2.93,3.798-4.881,5.049
				c-1.951,1.26-4.25,1.89-6.895,1.89h-2.697v-0.014h-0.529c-2.781,0-5.047-2.807-5.047-6.255v-1.182
				c0-3.448,2.266-6.253,5.047-6.253h1.514c1.264-0.043,2.332-0.322,3.215-0.854c0.949-0.566,1.717-1.3,2.299-2.182
				c0.578-0.889,1.006-1.902,1.285-3.043c0.277-1.146,0.42-2.259,0.42-3.344c0-1.147-0.143-2.273-0.42-3.385
				c-0.279-1.112-0.707-2.127-1.285-3.043c-0.582-0.916-1.35-1.658-2.299-2.23c-0.678-0.406-1.457-0.666-2.35-0.785h-2.379
				c-2.781,0-5.047-2.797-5.047-6.246v-1.188C345.419,342.835,347.684,340.037,350.466,340.037z"/>
			<path fill-rule="evenodd" clip-rule="evenodd" fill="#4370B6" d="M367.915,389.737l-5.576-14.115
				c-1.133-3.105-4.104-4.505-6.633-3.114l-0.871,0.483c-2.525,1.393-3.664,5.044-2.531,8.156l5.576,14.109
				c1.131,3.111,4.1,4.504,6.633,3.111l0.869-0.475C367.907,396.5,369.046,392.849,367.915,389.737z"/>
			<path fill-rule="evenodd" clip-rule="evenodd" fill="#4370B6" d="M333.7,346.194l-0.086,46.565
				c0.029,3.392,2.293,6.154,5.053,6.154h0.951c2.758,0,4.973-2.763,4.943-6.154l0.086-46.565c-0.029-3.399-2.289-6.157-5.047-6.157
				h-0.951C335.891,340.037,333.673,342.794,333.7,346.194z"/>
			<path fill-rule="evenodd" clip-rule="evenodd" fill="#4370B6" d="M349.93,345.312c0.598,0,1.088,0.594,1.088,1.329
				c0,0.74-0.49,1.337-1.088,1.337c-0.596,0-1.08-0.597-1.08-1.337C348.85,345.906,349.335,345.312,349.93,345.312z"/>
			<path fill-rule="evenodd" clip-rule="evenodd" fill="#4370B6" d="M349.93,378c0.598,0,1.088,0.602,1.088,1.337
				c0,0.733-0.49,1.327-1.088,1.327c-0.596,0-1.08-0.594-1.08-1.327C348.85,378.601,349.335,378,349.93,378z"/>
			<path fill-rule="evenodd" clip-rule="evenodd" fill="#4370B6" d="M357.026,376.298c0.602,0,1.086,0.603,1.086,1.337
				s-0.484,1.329-1.086,1.329c-0.6,0-1.082-0.595-1.082-1.329S356.427,376.298,357.026,376.298z"/>
			<path fill-rule="evenodd" clip-rule="evenodd" fill="#4370B6" d="M338.911,378c0.598,0,1.082,0.602,1.082,1.337
				c0,0.733-0.484,1.327-1.082,1.327s-1.086-0.594-1.086-1.327C337.825,378.601,338.313,378,338.911,378z"/>
			<path fill-rule="evenodd" clip-rule="evenodd" fill="#4370B6" d="M338.911,345.284c0.598,0,1.082,0.595,1.082,1.328
				c0,0.742-0.484,1.337-1.082,1.337s-1.086-0.595-1.086-1.337C337.825,345.878,338.313,345.284,338.911,345.284z"/>
		</g>
	</g>
</g>
</svg>
