<?xml version="1.0" encoding="utf-8"?>
<!-- Generator: Adobe Illustrator 15.0.0, SVG Export Plug-In . SVG Version: 6.00 Build 0)  -->
<!DOCTYPE svg PUBLIC "-//W3C//DTD SVG 1.1//EN" "http://www.w3.org/Graphics/SVG/1.1/DTD/svg11.dtd">
<svg version="1.1" id="图层_1" xmlns="http://www.w3.org/2000/svg" xmlns:xlink="http://www.w3.org/1999/xlink" x="0px" y="0px"
	 width="595.279px" height="841.89px" viewBox="0 0 595.279 841.89" enable-background="new 0 0 595.279 841.89"
	 xml:space="preserve">
<g>
	<g>
		
			<radialGradient id="SVGID_1_" cx="297.7839" cy="1724.1753" r="122.3911" gradientTransform="matrix(1 0 0 0.323 0 -13.6804)" gradientUnits="userSpaceOnUse">
			<stop  offset="0" style="stop-color:#CFD4DC"/>
			<stop  offset="0.4532" style="stop-color:#E4E6EB"/>
			<stop  offset="0.9515" style="stop-color:#FFFFFF"/>
		</radialGradient>
		<path opacity="0.7" fill="url(#SVGID_1_)" d="M420.178,543.23c0,21.83-54.799,39.529-122.394,39.529
			c-67.597,0-122.395-17.699-122.395-39.529c0-21.836,54.797-39.533,122.395-39.533C365.38,503.697,420.178,521.394,420.178,543.23z
			"/>
		<g>
			<linearGradient id="SVGID_2_" gradientUnits="userSpaceOnUse" x1="380.2664" y1="291.3306" x2="209.456" y2="462.1409">
				<stop  offset="0" style="stop-color:#92D4F4"/>
				<stop  offset="0.1269" style="stop-color:#8CCDED"/>
				<stop  offset="0.3132" style="stop-color:#7CBBD9"/>
				<stop  offset="0.536" style="stop-color:#629CB9"/>
				<stop  offset="0.7849" style="stop-color:#3F728C"/>
				<stop  offset="1" style="stop-color:#1B4860"/>
			</linearGradient>
			<path fill="url(#SVGID_2_)" d="M411.233,372.024c0,62.559-59.746,112.387-113.276,156.348
				c-49.992-38.287-113.277-93.789-113.277-156.348c0-62.56,50.718-113.273,113.277-113.273
				C360.514,258.751,411.233,309.465,411.233,372.024z"/>
			<path fill="#8964AA" d="M297.909,525.667c-21.018-16.145-50.925-40.375-73.711-67.725
				c-24.817-29.773-37.404-58.682-37.404-85.921c0-61.29,49.873-111.158,111.163-111.158c61.291,0,111.153,49.868,111.153,111.158
				c0,27.46-11.797,54.873-36.063,83.794C351.395,481.611,323.094,504.99,297.909,525.667z"/>
			<path fill="#8964AA" d="M387.864,367.888c0,49.655-40.256,89.907-89.907,89.907c-49.656,0-89.911-40.251-89.911-89.907
				c0-49.657,40.255-89.915,89.911-89.915C347.608,277.973,387.864,318.23,387.864,367.888z"/>
			<g>
				<path fill="#828892" d="M383.438,367.888c0,47.213-38.271,85.481-85.481,85.481c-47.212,0-85.488-38.268-85.488-85.481
					c0-47.214,38.276-85.488,85.488-85.488C345.167,282.399,383.438,320.674,383.438,367.888z"/>
				<radialGradient id="SVGID_3_" cx="349.0955" cy="332.5601" r="138.9993" gradientUnits="userSpaceOnUse">
					<stop  offset="0" style="stop-color:#90959E"/>
					<stop  offset="0.6521" style="stop-color:#8D929C"/>
					<stop  offset="1" style="stop-color:#878D97"/>
				</radialGradient>
				<path fill="url(#SVGID_3_)" d="M382.255,368.318c0,46.788-37.927,84.711-84.711,84.711c-46.787,0-84.717-37.923-84.717-84.711
					s37.93-84.717,84.717-84.717C344.328,283.601,382.255,321.53,382.255,368.318z"/>
				<radialGradient id="SVGID_4_" cx="348.2136" cy="333.3159" r="137.735" gradientUnits="userSpaceOnUse">
					<stop  offset="0" style="stop-color:#9EA2AA"/>
					<stop  offset="0.5019" style="stop-color:#9B9FA8"/>
					<stop  offset="0.863" style="stop-color:#9297A1"/>
					<stop  offset="1" style="stop-color:#8C929D"/>
				</radialGradient>
				<path fill="url(#SVGID_4_)" d="M381.071,368.748c0,46.362-37.582,83.941-83.94,83.941c-46.362,0-83.947-37.579-83.947-83.941
					c0-46.361,37.585-83.946,83.947-83.946C343.489,284.802,381.071,322.387,381.071,368.748z"/>
				<radialGradient id="SVGID_5_" cx="347.3308" cy="334.0718" r="136.4718" gradientUnits="userSpaceOnUse">
					<stop  offset="0" style="stop-color:#ACB0B6"/>
					<stop  offset="0.4248" style="stop-color:#A9ADB4"/>
					<stop  offset="0.7304" style="stop-color:#A0A5AD"/>
					<stop  offset="0.9983" style="stop-color:#9097A2"/>
					<stop  offset="1" style="stop-color:#9097A2"/>
				</radialGradient>
				<path fill="url(#SVGID_5_)" d="M379.886,369.178c0,45.938-37.236,83.172-83.169,83.172c-45.938,0-83.177-37.234-83.177-83.172
					c0-45.935,37.239-83.175,83.177-83.175C342.65,286.003,379.886,323.243,379.886,369.178z"/>
				<radialGradient id="SVGID_6_" cx="346.448" cy="334.8276" r="135.2078" gradientUnits="userSpaceOnUse">
					<stop  offset="0" style="stop-color:#BABDC2"/>
					<stop  offset="0.3824" style="stop-color:#B7BAC0"/>
					<stop  offset="0.6578" style="stop-color:#AEB2B9"/>
					<stop  offset="0.8988" style="stop-color:#9EA4AE"/>
					<stop  offset="1" style="stop-color:#959CA8"/>
				</radialGradient>
				<path fill="url(#SVGID_6_)" d="M378.703,369.608c0,45.512-36.892,82.402-82.398,82.402c-45.513,0-82.406-36.89-82.406-82.402
					c0-45.509,36.894-82.404,82.406-82.404C341.811,287.205,378.703,324.1,378.703,369.608z"/>
				<radialGradient id="SVGID_7_" cx="345.5662" cy="335.5835" r="133.9435" gradientUnits="userSpaceOnUse">
					<stop  offset="0" style="stop-color:#C7CACF"/>
					<stop  offset="0.3552" style="stop-color:#C4C7CD"/>
					<stop  offset="0.6109" style="stop-color:#BBBFC6"/>
					<stop  offset="0.8348" style="stop-color:#ABB1BA"/>
					<stop  offset="1" style="stop-color:#9AA2AD"/>
				</radialGradient>
				<path fill="url(#SVGID_7_)" d="M377.519,370.038c0,45.087-36.546,81.632-81.628,81.632c-45.087,0-81.636-36.545-81.636-81.632
					c0-45.082,36.549-81.632,81.636-81.632C340.973,288.406,377.519,324.956,377.519,370.038z"/>
				<radialGradient id="SVGID_8_" cx="344.6843" cy="336.3394" r="132.6792" gradientUnits="userSpaceOnUse">
					<stop  offset="0" style="stop-color:#D5D7DB"/>
					<stop  offset="0.3315" style="stop-color:#D2D4D9"/>
					<stop  offset="0.5703" style="stop-color:#C9CCD2"/>
					<stop  offset="0.7799" style="stop-color:#B9BEC6"/>
					<stop  offset="0.9717" style="stop-color:#A3ABB6"/>
					<stop  offset="1" style="stop-color:#9FA7B3"/>
				</radialGradient>
				<path fill="url(#SVGID_8_)" d="M376.336,370.468c0,44.662-36.201,80.862-80.857,80.862c-44.663,0-80.866-36.2-80.866-80.862
					c0-44.656,36.203-80.861,80.866-80.861C340.135,289.607,376.336,325.813,376.336,370.468z"/>
				<radialGradient id="SVGID_9_" cx="343.8015" cy="337.0957" r="131.4154" gradientUnits="userSpaceOnUse">
					<stop  offset="0" style="stop-color:#E3E5E7"/>
					<stop  offset="0.3109" style="stop-color:#E0E2E5"/>
					<stop  offset="0.5348" style="stop-color:#D7DADE"/>
					<stop  offset="0.7314" style="stop-color:#C7CCD2"/>
					<stop  offset="0.9113" style="stop-color:#B1B8C2"/>
					<stop  offset="1" style="stop-color:#A3ACB8"/>
				</radialGradient>
				<path fill="url(#SVGID_9_)" d="M375.151,370.898c0,44.237-35.855,80.093-80.086,80.093c-44.238,0-80.095-35.856-80.095-80.093
					c0-44.229,35.857-80.09,80.095-80.09C339.296,290.809,375.151,326.669,375.151,370.898z"/>
				<radialGradient id="SVGID_10_" cx="342.9197" cy="337.8516" r="130.1511" gradientUnits="userSpaceOnUse">
					<stop  offset="0" style="stop-color:#F1F2F3"/>
					<stop  offset="0.2959" style="stop-color:#EEEFF1"/>
					<stop  offset="0.5089" style="stop-color:#E5E7EA"/>
					<stop  offset="0.696" style="stop-color:#D5D9DF"/>
					<stop  offset="0.8672" style="stop-color:#BFC5CF"/>
					<stop  offset="1" style="stop-color:#A8B1BE"/>
				</radialGradient>
				<path fill="url(#SVGID_10_)" d="M373.968,371.329c0,43.812-35.511,79.323-79.315,79.323c-43.813,0-79.325-35.511-79.325-79.323
					c0-43.803,35.512-79.319,79.325-79.319C338.457,292.01,373.968,327.525,373.968,371.329z"/>
				<radialGradient id="SVGID_11_" cx="342.0378" cy="338.6074" r="128.8868" gradientUnits="userSpaceOnUse">
					<stop  offset="0" style="stop-color:#FFFFFF"/>
					<stop  offset="0.2832" style="stop-color:#FCFCFD"/>
					<stop  offset="0.4871" style="stop-color:#F3F4F6"/>
					<stop  offset="0.6662" style="stop-color:#E3E6EB"/>
					<stop  offset="0.8309" style="stop-color:#CDD2DA"/>
					<stop  offset="0.9845" style="stop-color:#B0B9C5"/>
					<stop  offset="1" style="stop-color:#ADB6C3"/>
				</radialGradient>
				<path fill="url(#SVGID_11_)" d="M372.784,371.759c0,43.387-35.166,78.553-78.545,78.553c-43.388,0-78.555-35.167-78.555-78.553
					c0-43.377,35.167-78.548,78.555-78.548C337.618,293.211,372.784,328.382,372.784,371.759z"/>
			</g>
		</g>
	</g>
	<g>
		<path fill-rule="evenodd" clip-rule="evenodd" fill="#00BDE0" d="M240.063,384.016l-18.774-32.484
			c-1.317-2.623-0.235-5.822,2.405-7.145l0.911-0.459c2.64-1.323,5.851-0.266,7.161,2.357l18.775,32.48
			c1.311,2.627,0.235,5.826-2.405,7.149l-0.912,0.453C244.584,387.691,241.374,386.638,240.063,384.016z"/>
		<path fill-rule="evenodd" clip-rule="evenodd" fill="#00BDE0" d="M220.683,348.167v39.229c0,2.875,2.323,5.203,5.186,5.203h0.988
			c2.864,0,5.186-2.328,5.186-5.203v-39.229c0-2.875-2.322-5.204-5.186-5.204h-0.988
			C223.006,342.963,220.683,345.292,220.683,348.167z"/>
		<path fill-rule="evenodd" clip-rule="evenodd" fill="#00BDE0" d="M250.541,384.563l18.892-33.285
			c1.312-2.623,0.588-5.851-2.052-7.174l-0.911-0.458c-2.64-1.317-5.851-0.265-7.161,2.358l-19.245,33.314
			c-1.317,2.622-0.235,5.82,2.404,7.144l0.911,0.458C246.018,388.243,249.229,387.186,250.541,384.563z"/>
		<path fill-rule="evenodd" clip-rule="evenodd" fill="#00BDE0" d="M270.132,348.167v39.229c0,2.875-2.322,5.203-5.185,5.203h-0.988
			c-2.863,0-5.186-2.328-5.186-5.203v-39.229c0-2.875,2.322-5.204,5.186-5.204h0.988
			C267.81,342.963,270.132,345.292,270.132,348.167z"/>
		<path fill-rule="evenodd" clip-rule="evenodd" fill="#00BDE0" d="M226.398,347.955c0.617,0,1.124,0.506,1.124,1.124
			c0,0.616-0.507,1.116-1.124,1.116c-0.618,0-1.117-0.5-1.117-1.116C225.281,348.461,225.781,347.955,226.398,347.955z"/>
		<path fill-rule="evenodd" clip-rule="evenodd" fill="#00BDE0" d="M264.534,347.955c0.618,0,1.118,0.506,1.118,1.124
			c0,0.616-0.5,1.116-1.118,1.116c-0.617,0-1.117-0.5-1.117-1.116C263.417,348.461,263.918,347.955,264.534,347.955z"/>
		<path fill-rule="evenodd" clip-rule="evenodd" fill="#00BDE0" d="M245.344,381.499c0.616,0,1.116,0.501,1.116,1.117
			c0,0.618-0.5,1.117-1.116,1.117c-0.624,0-1.123-0.499-1.123-1.117C244.22,382,244.72,381.499,245.344,381.499z"/>
		<g>
			<path fill-rule="evenodd" clip-rule="evenodd" fill="#00BDE0" d="M305.54,359.593v13.665c0,2.752,2.323,4.986,5.18,4.986h0.988
				c2.859,0,5.18-2.234,5.18-4.986v-13.665c0-2.757-2.32-4.985-5.18-4.985h-0.988C307.863,354.607,305.54,356.836,305.54,359.593z"
				/>
			<path fill-rule="evenodd" clip-rule="evenodd" fill="#00BDE0" d="M278.181,359.593v13.665c0,2.752,2.323,4.986,5.187,4.986h0.982
				c2.864,0,5.186-2.234,5.186-4.986v-13.665c0-2.757-2.322-4.985-5.186-4.985h-0.982
				C280.505,354.607,278.181,356.836,278.181,359.593z"/>
			<path fill-rule="evenodd" clip-rule="evenodd" fill="#00BDE0" d="M290.2,391.891c-2.329-0.67-4.392-1.675-6.191-3.021
				c-1.8-1.342-3.229-3.022-4.287-5.039c-1.011-1.936-1.541-4.192-1.582-6.785l0,0v-0.189v-2.939l0,0v-0.547
				c0-2.88,2.352-5.215,5.251-5.215h1c2.898,0,5.25,2.335,5.25,5.215v2.458c0.1,0.923,0.324,1.729,0.658,2.423
				c0.482,0.988,1.105,1.775,1.876,2.375c0.77,0.601,1.623,1.047,2.558,1.336c0.935,0.288,1.881,0.428,2.845,0.428
				c0.912,0,1.848-0.14,2.811-0.428c0.959-0.289,1.811-0.735,2.559-1.336c0.746-0.6,1.357-1.387,1.834-2.375
				c0.447-0.912,0.682-2.017,0.717-3.316v-1.564c0-2.88,2.354-5.215,5.257-5.215h0.999c2.9,0,5.251,2.335,5.251,5.215l0.013,3.334
				c0,2.734-0.529,5.11-1.588,7.127c-1.053,2.017-2.47,3.697-4.244,5.039c-1.777,1.347-3.842,2.352-6.193,3.021
				c-2.352,0.677-4.82,1.012-7.414,1.012C294.986,392.902,292.523,392.567,290.2,391.891z"/>
			<path fill-rule="evenodd" clip-rule="evenodd" fill="#00BDE0" d="M278.14,361.198v-0.547l0,0v-2.78c0-0.077,0-0.147,0-0.224
				v-0.124l0,0c0.041-2.587,0.571-4.851,1.582-6.785c1.058-2.011,2.487-3.692,4.287-5.038c1.799-1.348,3.863-2.352,6.191-3.022
				c2.322-0.671,4.786-1.012,7.378-1.012c2.594,0,5.063,0.341,7.414,1.012s4.416,1.675,6.193,3.022
				c1.774,1.346,3.191,3.027,4.244,5.038c1.059,2.018,1.588,4.393,1.588,7.133v2.78h-0.013v0.547c0,2.882-2.351,5.215-5.251,5.215
				h-0.999c-2.903,0-5.257-2.333-5.257-5.215v-1.563c-0.035-1.3-0.27-2.404-0.717-3.316c-0.477-0.988-1.088-1.775-1.834-2.375
				c-0.748-0.6-1.6-1.047-2.559-1.335c-0.963-0.288-1.898-0.429-2.811-0.429c-0.964,0-1.91,0.141-2.845,0.429
				c-0.935,0.288-1.788,0.735-2.558,1.335c-0.771,0.6-1.394,1.387-1.876,2.375c-0.334,0.693-0.559,1.506-0.658,2.429v2.451
				c0,2.882-2.352,5.215-5.25,5.215h-1C280.492,366.413,278.14,364.08,278.14,361.198z"/>
			<path fill-rule="evenodd" clip-rule="evenodd" fill="#00BDE0" d="M311.173,372.118c0.618,0,1.117,0.499,1.117,1.117
				c0,0.616-0.499,1.121-1.117,1.121c-0.623,0-1.123-0.505-1.123-1.121C310.05,372.617,310.55,372.118,311.173,372.118z"/>
			<path fill-rule="evenodd" clip-rule="evenodd" fill="#00BDE0" d="M283.885,372.118c0.623,0,1.123,0.499,1.123,1.117
				c0,0.616-0.5,1.121-1.123,1.121c-0.618,0-1.117-0.505-1.117-1.121C282.768,372.617,283.268,372.118,283.885,372.118z"/>
			<path fill-rule="evenodd" clip-rule="evenodd" fill="#00BDE0" d="M311.173,361.315c0.618,0,1.117,0.501,1.117,1.118
				s-0.499,1.123-1.117,1.123c-0.623,0-1.123-0.506-1.123-1.123S310.55,361.315,311.173,361.315z"/>
			<path fill-rule="evenodd" clip-rule="evenodd" fill="#00BDE0" d="M283.885,361.315c0.623,0,1.123,0.501,1.123,1.118
				s-0.5,1.123-1.123,1.123c-0.618,0-1.117-0.506-1.117-1.123S283.268,361.315,283.885,361.315z"/>
		</g>
		<g>
			<path fill-rule="evenodd" clip-rule="evenodd" fill="#00BDE0" d="M354.703,349.763v28.564c0,2.851,2.347,5.168,5.233,5.168h0.993
				c2.888,0,5.233-2.317,5.233-5.168v-28.564c0-2.856-2.346-5.168-5.233-5.168h-0.993
				C357.05,344.595,354.703,346.906,354.703,349.763z"/>
			<path fill-rule="evenodd" clip-rule="evenodd" fill="#00BDE0" d="M327.186,349.763v28.564c0,2.851,2.34,5.168,5.232,5.168h0.988
				c2.893,0,5.232-2.317,5.232-5.168v-28.564c0-2.856-2.34-5.168-5.232-5.168h-0.988
				C329.526,344.595,327.186,346.906,327.186,349.763z"/>
			<path fill-rule="evenodd" clip-rule="evenodd" fill="#00BDE0" d="M339.252,393.373c-2.341-0.677-4.415-1.688-6.227-3.046
				c-1.817-1.353-3.253-3.039-4.315-5.068c-1.018-1.946-1.547-4.222-1.589-6.832l0,0l-0.005-0.188v-2.957h0.005v-0.554
				c0-2.893,2.364-5.245,5.286-5.245h1.006c2.916,0,5.286,2.353,5.286,5.245l-0.007,2.476c0.107,0.93,0.324,1.74,0.665,2.441
				c0.482,0.993,1.112,1.786,1.888,2.392c0.77,0.601,1.629,1.048,2.574,1.335c0.941,0.295,1.895,0.436,2.857,0.436
				c0.924,0,1.864-0.141,2.834-0.436c0.965-0.287,1.823-0.734,2.576-1.335c0.747-0.605,1.365-1.398,1.846-2.392
				c0.447-0.918,0.689-2.029,0.724-3.341v-1.576c0-2.893,2.363-5.245,5.286-5.245h1.006c2.916,0,5.279,2.353,5.279,5.245
				l0.018,3.358c0,2.751-0.534,5.139-1.594,7.173c-1.063,2.029-2.492,3.716-4.273,5.068c-1.787,1.358-3.869,2.369-6.232,3.046
				c-2.371,0.677-4.857,1.018-7.469,1.018C344.073,394.391,341.598,394.05,339.252,393.373z"/>
			<path fill-rule="evenodd" clip-rule="evenodd" fill="#00BDE0" d="M327.151,349.646v13.753c0,2.77,2.393,5.014,5.345,5.014h1.017
				c2.951,0,5.352-2.244,5.352-5.014v-13.753c0-2.775-2.4-5.022-5.352-5.022h-1.017C329.544,344.623,327.151,346.87,327.151,349.646
				z"/>
			<path fill-rule="evenodd" clip-rule="evenodd" fill="#00BDE0" d="M354.644,349.61v13.752c0,2.77,2.375,5.021,5.304,5.021h1.006
				c2.922,0,5.297-2.252,5.297-5.021V349.61c0-2.771-2.375-5.016-5.297-5.016h-1.006C357.019,344.595,354.644,346.84,354.644,349.61
				z"/>
			<path fill-rule="evenodd" clip-rule="evenodd" fill="#00BDE0" d="M332.884,363.198c0.623,0,1.123,0.505,1.123,1.123
				c0,0.624-0.5,1.128-1.123,1.128s-1.129-0.504-1.129-1.128C331.755,363.703,332.26,363.198,332.884,363.198z"/>
			<path fill-rule="evenodd" clip-rule="evenodd" fill="#00BDE0" d="M360.618,363.198c0.625,0,1.13,0.505,1.13,1.123
				c0,0.624-0.505,1.128-1.13,1.128c-0.623,0-1.129-0.504-1.129-1.128C359.489,363.703,359.995,363.198,360.618,363.198z"/>
			<path fill-rule="evenodd" clip-rule="evenodd" fill="#00BDE0" d="M332.884,371.746c0.623,0,1.123,0.507,1.123,1.13
				s-0.5,1.129-1.123,1.129s-1.129-0.506-1.129-1.129S332.26,371.746,332.884,371.746z"/>
			<circle fill-rule="evenodd" clip-rule="evenodd" fill="#00BDE0" cx="360.618" cy="372.875" r="1.129"/>
		</g>
	</g>
</g>
</svg>
