<?xml version="1.0" encoding="utf-8"?>
<!-- Generator: Adobe Illustrator 15.0.0, SVG Export Plug-In . SVG Version: 6.00 Build 0)  -->
<!DOCTYPE svg PUBLIC "-//W3C//DTD SVG 1.1//EN" "http://www.w3.org/Graphics/SVG/1.1/DTD/svg11.dtd">
<svg version="1.1" id="图层_1" xmlns="http://www.w3.org/2000/svg" xmlns:xlink="http://www.w3.org/1999/xlink" x="0px" y="0px"
	 width="595.279px" height="841.89px" viewBox="0 0 595.279 841.89" enable-background="new 0 0 595.279 841.89"
	 xml:space="preserve">
<g>
	<g>
		<g>
			
				<radialGradient id="SVGID_1_" cx="298.0652" cy="1728.4106" r="122.3926" gradientTransform="matrix(1 0 0 0.323 0 -13.6804)" gradientUnits="userSpaceOnUse">
				<stop  offset="0" style="stop-color:#CFD4DC"/>
				<stop  offset="0.4532" style="stop-color:#E4E6EB"/>
				<stop  offset="0.9515" style="stop-color:#FFFFFF"/>
			</radialGradient>
			<ellipse opacity="0.7" fill="url(#SVGID_1_)" cx="298.065" cy="544.595" rx="122.395" ry="39.533"/>
			<g>
				<linearGradient id="SVGID_2_" gradientUnits="userSpaceOnUse" x1="380.699" y1="290.9863" x2="209.89" y2="461.7953">
					<stop  offset="0" style="stop-color:#FFF099"/>
					<stop  offset="0.1812" style="stop-color:#FCED96"/>
					<stop  offset="0.3401" style="stop-color:#F1E28E"/>
					<stop  offset="0.4908" style="stop-color:#DFD081"/>
					<stop  offset="0.6363" style="stop-color:#C5B76D"/>
					<stop  offset="0.7781" style="stop-color:#A59754"/>
					<stop  offset="0.9154" style="stop-color:#7D7037"/>
					<stop  offset="1" style="stop-color:#615421"/>
				</linearGradient>
				<path fill="url(#SVGID_2_)" d="M411.664,371.676c0,62.562-59.743,112.394-113.274,156.352
					c-49.991-38.29-113.275-93.79-113.275-156.352c0-62.557,50.717-113.271,113.275-113.271
					C360.946,258.405,411.664,309.12,411.664,371.676z"/>
				<linearGradient id="SVGID_3_" gradientUnits="userSpaceOnUse" x1="382.3796" y1="296.7861" x2="214.8105" y2="451.5152">
					<stop  offset="0" style="stop-color:#FDD800"/>
					<stop  offset="0.2114" style="stop-color:#FAD501"/>
					<stop  offset="0.3968" style="stop-color:#EFCC06"/>
					<stop  offset="0.5723" style="stop-color:#DDBE0E"/>
					<stop  offset="0.7419" style="stop-color:#C4A918"/>
					<stop  offset="0.9057" style="stop-color:#A38E26"/>
					<stop  offset="1" style="stop-color:#8D7C2F"/>
				</linearGradient>
				<path fill="url(#SVGID_3_)" d="M298.343,525.329c-21.018-16.15-50.927-40.382-73.71-67.729
					c-24.819-29.779-37.403-58.687-37.403-85.924c0-61.295,49.869-111.158,111.16-111.158c61.289,0,111.153,49.863,111.153,111.158
					c0,27.46-11.798,54.867-36.066,83.789C351.825,481.262,323.526,504.642,298.343,525.329z"/>
				<linearGradient id="SVGID_4_" gradientUnits="userSpaceOnUse" x1="212.8064" y1="446.769" x2="377.1652" y2="294.6085">
					<stop  offset="0" style="stop-color:#FDD800"/>
					<stop  offset="0.2114" style="stop-color:#FAD501"/>
					<stop  offset="0.3968" style="stop-color:#EFCC06"/>
					<stop  offset="0.5723" style="stop-color:#DDBE0E"/>
					<stop  offset="0.7419" style="stop-color:#C4A918"/>
					<stop  offset="0.9057" style="stop-color:#A38E26"/>
					<stop  offset="1" style="stop-color:#8D7C2F"/>
				</linearGradient>
				<path fill="url(#SVGID_4_)" d="M388.298,367.538c0,49.657-40.256,89.912-89.908,89.912c-49.659,0-89.91-40.255-89.91-89.912
					s40.251-89.908,89.91-89.908C348.042,277.629,388.298,317.88,388.298,367.538z"/>
				<g>
					<path fill="#828892" d="M383.871,367.538c0,47.214-38.274,85.489-85.481,85.489c-47.213,0-85.486-38.275-85.486-85.489
						c0-47.213,38.272-85.486,85.486-85.486C345.596,282.051,383.871,320.325,383.871,367.538z"/>
					<radialGradient id="SVGID_5_" cx="349.5281" cy="332.2139" r="139.004" gradientUnits="userSpaceOnUse">
						<stop  offset="0" style="stop-color:#90959E"/>
						<stop  offset="0.6521" style="stop-color:#8D929C"/>
						<stop  offset="1" style="stop-color:#878D97"/>
					</radialGradient>
					<path fill="url(#SVGID_5_)" d="M382.687,367.969c0,46.788-37.93,84.718-84.711,84.718c-46.789,0-84.716-37.93-84.716-84.718
						c0-46.788,37.927-84.716,84.716-84.716C344.758,283.253,382.687,321.181,382.687,367.969z"/>
					<radialGradient id="SVGID_6_" cx="348.6462" cy="332.9697" r="137.7397" gradientUnits="userSpaceOnUse">
						<stop  offset="0" style="stop-color:#9EA2AA"/>
						<stop  offset="0.5019" style="stop-color:#9B9FA8"/>
						<stop  offset="0.863" style="stop-color:#9297A1"/>
						<stop  offset="1" style="stop-color:#8C929D"/>
					</radialGradient>
					<path fill="url(#SVGID_6_)" d="M381.504,368.399c0,46.363-37.585,83.948-83.941,83.948c-46.363,0-83.945-37.585-83.945-83.948
						c0-46.362,37.582-83.945,83.945-83.945C343.919,284.455,381.504,322.038,381.504,368.399z"/>
					<radialGradient id="SVGID_7_" cx="347.7634" cy="333.7261" r="136.4742" gradientUnits="userSpaceOnUse">
						<stop  offset="0" style="stop-color:#ACB0B6"/>
						<stop  offset="0.4248" style="stop-color:#A9ADB4"/>
						<stop  offset="0.7304" style="stop-color:#A0A5AD"/>
						<stop  offset="0.9983" style="stop-color:#9097A2"/>
						<stop  offset="1" style="stop-color:#9097A2"/>
					</radialGradient>
					<path fill="url(#SVGID_7_)" d="M380.32,368.831c0,45.937-37.24,83.176-83.17,83.176c-45.938,0-83.175-37.239-83.175-83.176
						s37.236-83.174,83.175-83.174C343.08,285.656,380.32,322.894,380.32,368.831z"/>
					<radialGradient id="SVGID_8_" cx="346.8816" cy="334.4819" r="135.2099" gradientUnits="userSpaceOnUse">
						<stop  offset="0" style="stop-color:#BABDC2"/>
						<stop  offset="0.3824" style="stop-color:#B7BAC0"/>
						<stop  offset="0.6578" style="stop-color:#AEB2B9"/>
						<stop  offset="0.8988" style="stop-color:#9EA4AE"/>
						<stop  offset="1" style="stop-color:#959CA8"/>
					</radialGradient>
					<path fill="url(#SVGID_8_)" d="M379.136,369.262c0,45.511-36.896,82.405-82.4,82.405c-45.513,0-82.404-36.894-82.404-82.405
						c0-45.512,36.891-82.404,82.404-82.404C342.241,286.858,379.136,323.75,379.136,369.262z"/>
					<radialGradient id="SVGID_9_" cx="345.9998" cy="335.2378" r="133.9456" gradientUnits="userSpaceOnUse">
						<stop  offset="0" style="stop-color:#C7CACF"/>
						<stop  offset="0.3552" style="stop-color:#C4C7CD"/>
						<stop  offset="0.6109" style="stop-color:#BBBFC6"/>
						<stop  offset="0.8348" style="stop-color:#ABB1BA"/>
						<stop  offset="1" style="stop-color:#9AA2AD"/>
					</radialGradient>
					<path fill="url(#SVGID_9_)" d="M377.953,369.692c0,45.086-36.55,81.634-81.63,81.634c-45.088,0-81.634-36.548-81.634-81.634
						c0-45.086,36.545-81.633,81.634-81.633C341.403,288.059,377.953,324.606,377.953,369.692z"/>
					<radialGradient id="SVGID_10_" cx="345.1179" cy="335.9937" r="132.6813" gradientUnits="userSpaceOnUse">
						<stop  offset="0" style="stop-color:#D5D7DB"/>
						<stop  offset="0.3315" style="stop-color:#D2D4D9"/>
						<stop  offset="0.5703" style="stop-color:#C9CCD2"/>
						<stop  offset="0.7799" style="stop-color:#B9BEC6"/>
						<stop  offset="0.9717" style="stop-color:#A3ABB6"/>
						<stop  offset="1" style="stop-color:#9FA7B3"/>
					</radialGradient>
					<path fill="url(#SVGID_10_)" d="M376.769,370.124c0,44.661-36.205,80.863-80.86,80.863c-44.663,0-80.863-36.203-80.863-80.863
						s36.2-80.863,80.863-80.863C340.564,289.261,376.769,325.463,376.769,370.124z"/>
					<radialGradient id="SVGID_11_" cx="344.2361" cy="336.75" r="131.4154" gradientUnits="userSpaceOnUse">
						<stop  offset="0" style="stop-color:#E3E5E7"/>
						<stop  offset="0.3109" style="stop-color:#E0E2E5"/>
						<stop  offset="0.5348" style="stop-color:#D7DADE"/>
						<stop  offset="0.7314" style="stop-color:#C7CCD2"/>
						<stop  offset="0.9113" style="stop-color:#B1B8C2"/>
						<stop  offset="1" style="stop-color:#A3ACB8"/>
					</radialGradient>
					<path fill="url(#SVGID_11_)" d="M375.586,370.555c0,44.235-35.86,80.091-80.089,80.091c-44.238,0-80.093-35.856-80.093-80.091
						c0-44.236,35.855-80.092,80.093-80.092C339.725,290.462,375.586,326.319,375.586,370.555z"/>
					<radialGradient id="SVGID_12_" cx="343.3542" cy="337.5059" r="130.1511" gradientUnits="userSpaceOnUse">
						<stop  offset="0" style="stop-color:#F1F2F3"/>
						<stop  offset="0.2959" style="stop-color:#EEEFF1"/>
						<stop  offset="0.5089" style="stop-color:#E5E7EA"/>
						<stop  offset="0.696" style="stop-color:#D5D9DF"/>
						<stop  offset="0.8672" style="stop-color:#BFC5CF"/>
						<stop  offset="1" style="stop-color:#A8B1BE"/>
					</radialGradient>
					<path fill="url(#SVGID_12_)" d="M374.402,370.985c0,43.81-35.516,79.321-79.319,79.321c-43.813,0-79.322-35.511-79.322-79.321
						c0-43.81,35.509-79.321,79.322-79.321C338.886,291.664,374.402,327.175,374.402,370.985z"/>
					<radialGradient id="SVGID_13_" cx="342.4714" cy="338.2622" r="128.8866" gradientUnits="userSpaceOnUse">
						<stop  offset="0" style="stop-color:#FFFFFF"/>
						<stop  offset="0.2832" style="stop-color:#FCFCFD"/>
						<stop  offset="0.4871" style="stop-color:#F3F4F6"/>
						<stop  offset="0.6662" style="stop-color:#E3E6EB"/>
						<stop  offset="0.8309" style="stop-color:#CDD2DA"/>
						<stop  offset="0.9845" style="stop-color:#B0B9C5"/>
						<stop  offset="1" style="stop-color:#ADB6C3"/>
					</radialGradient>
					<path fill="url(#SVGID_13_)" d="M373.219,371.417c0,43.384-35.171,78.55-78.549,78.55c-43.388,0-78.552-35.166-78.552-78.55
						c0-43.385,35.164-78.551,78.552-78.551C338.048,292.866,373.219,328.032,373.219,371.417z"/>
				</g>
			</g>
		</g>
	</g>
	<g>
		<path fill-rule="evenodd" clip-rule="evenodd" fill="#344FA1" d="M223.713,345.954v39.534c0,2.938,2.383,5.325,5.319,5.325h1.013
			c2.938,0,5.319-2.388,5.319-5.325v-39.534c0-2.937-2.381-5.324-5.319-5.324h-1.013
			C226.095,340.629,223.713,343.017,223.713,345.954z"/>
		<path fill-rule="evenodd" clip-rule="evenodd" fill="#344FA1" d="M254.009,345.375v39.372c0,2.937,2.383,5.318,5.319,5.318h1.007
			c2.943,0,5.325-2.382,5.325-5.318v-39.372c0-2.937-2.382-5.318-5.325-5.318h-1.007
			C256.392,340.056,254.009,342.438,254.009,345.375z"/>
		<path fill-rule="evenodd" clip-rule="evenodd" fill="#344FA1" d="M254.672,388.226l-30.193-39.408
			c-1.568-2.563-0.753-5.928,1.827-7.514l0.887-0.543c2.581-1.586,5.945-0.796,7.519,1.767l30.194,39.408
			c1.573,2.563,0.754,5.928-1.821,7.514l-0.887,0.543C259.618,391.579,256.572,390.716,254.672,388.226z"/>
		<path fill-rule="evenodd" clip-rule="evenodd" d="M229.876,345.068c0.633,0,1.146,0.518,1.146,1.151
			c0,0.633-0.513,1.146-1.146,1.146c-0.64,0-1.152-0.513-1.152-1.146C228.724,345.585,229.237,345.068,229.876,345.068z"/>
		<path fill-rule="evenodd" clip-rule="evenodd" d="M259.425,383.559c0.634,0,1.146,0.518,1.146,1.151
			c0,0.633-0.512,1.146-1.146,1.146c-0.64,0-1.152-0.513-1.152-1.146C258.273,384.077,258.785,383.559,259.425,383.559z"/>
		<g>
			<path fill-rule="evenodd" clip-rule="evenodd" fill="#344FA1" d="M280.839,345.437v40.332c0,2.954,2.417,5.353,5.389,5.353h1.02
				c2.979,0,5.388-2.398,5.388-5.353v-40.332c0-2.954-2.41-5.352-5.388-5.352h-1.02
				C283.256,340.085,280.839,342.483,280.839,345.437z"/>
			<path fill-rule="evenodd" clip-rule="evenodd" fill="#344FA1" d="M311.321,340.018h-25.186c-2.972,0-5.383,2.41-5.383,5.383
				v1.025c0,2.971,2.411,5.382,5.383,5.382h25.186c2.979,0,5.389-2.411,5.389-5.382v-1.025
				C316.71,342.428,314.3,340.018,311.321,340.018z"/>
			<path fill-rule="evenodd" clip-rule="evenodd" fill="#344FA1" d="M311.321,359.504h-25.186c-2.972,0-5.383,2.41-5.383,5.383
				v1.024c0,2.972,2.411,5.383,5.383,5.383h25.186c2.979,0,5.389-2.411,5.389-5.383v-1.024
				C316.71,361.915,314.3,359.504,311.321,359.504z"/>
			<path fill-rule="evenodd" clip-rule="evenodd" fill="#344FA1" d="M311.321,379.556h-25.186c-2.972,0-5.383,2.418-5.383,5.39v1.02
				c0,2.972,2.411,5.388,5.383,5.388h25.186c2.979,0,5.389-2.416,5.389-5.388v-1.02C316.71,381.974,314.3,379.556,311.321,379.556z"
				/>
			<path fill-rule="evenodd" clip-rule="evenodd" d="M286.52,384.409c0.64,0,1.16,0.52,1.16,1.16s-0.52,1.165-1.16,1.165
				c-0.641,0-1.166-0.524-1.166-1.165S285.879,384.409,286.52,384.409z"/>
			<circle fill-rule="evenodd" clip-rule="evenodd" cx="286.52" cy="365.253" r="1.16"/>
			<circle fill-rule="evenodd" clip-rule="evenodd" cx="286.52" cy="345.721" r="1.163"/>
		</g>
	</g>
	<g>
		<path fill-rule="evenodd" clip-rule="evenodd" fill="#344FA1" d="M356.574,359.022v14.184c0,2.855,2.41,5.175,5.376,5.175h1.025
			c2.967,0,5.377-2.319,5.377-5.175v-14.184c0-2.86-2.41-5.176-5.377-5.176h-1.025C358.984,353.846,356.574,356.162,356.574,359.022
			z"/>
		<path fill-rule="evenodd" clip-rule="evenodd" fill="#344FA1" d="M328.177,359.022v14.184c0,2.855,2.411,5.175,5.383,5.175h1.019
			c2.973,0,5.383-2.319,5.383-5.175v-14.184c0-2.86-2.41-5.176-5.383-5.176h-1.019C330.589,353.846,328.177,356.162,328.177,359.022
			z"/>
		<path fill-rule="evenodd" clip-rule="evenodd" fill="#344FA1" d="M340.652,392.545c-2.417-0.696-4.559-1.739-6.427-3.136
			c-1.867-1.393-3.35-3.138-4.449-5.231c-1.049-2.009-1.599-4.352-1.642-7.044l0,0v-0.193v-3.052l0,0v-0.568
			c0-2.989,2.441-5.412,5.45-5.412h1.037c3.01,0,5.451,2.423,5.451,5.412v2.551c0.103,0.959,0.334,1.795,0.683,2.515
			c0.499,1.024,1.147,1.844,1.947,2.466c0.8,0.624,1.685,1.087,2.654,1.387c0.97,0.299,1.952,0.444,2.954,0.444
			c0.946,0,1.916-0.146,2.916-0.444c0.996-0.3,1.879-0.763,2.655-1.387c0.775-0.622,1.409-1.441,1.903-2.466
			c0.465-0.946,0.709-2.093,0.746-3.441v-1.624c0-2.989,2.441-5.412,5.455-5.412h1.037c3.009,0,5.45,2.423,5.45,5.412l0.013,3.461
			c0,2.838-0.549,5.305-1.648,7.396c-1.092,2.094-2.563,3.839-4.405,5.231c-1.843,1.396-3.985,2.439-6.427,3.136
			c-2.441,0.701-5.004,1.049-7.695,1.049S343.063,393.247,340.652,392.545z"/>
		<path fill-rule="evenodd" clip-rule="evenodd" fill="#344FA1" d="M328.135,360.688v-0.566l0,0v-2.887c0-0.08,0-0.152,0-0.232
			v-0.128l0,0c0.043-2.685,0.593-5.035,1.642-7.044c1.1-2.087,2.582-3.832,4.449-5.229c1.868-1.398,4.01-2.441,6.427-3.137
			c2.411-0.697,4.968-1.051,7.659-1.051s5.254,0.354,7.695,1.051c2.441,0.695,4.584,1.738,6.427,3.137
			c1.843,1.396,3.313,3.142,4.405,5.229c1.1,2.095,1.648,4.561,1.648,7.404v2.887h-0.013v0.566c0,2.991-2.441,5.413-5.45,5.413
			h-1.037c-3.014,0-5.455-2.422-5.455-5.413v-1.623c-0.037-1.35-0.281-2.495-0.746-3.441c-0.494-1.025-1.128-1.844-1.903-2.466
			c-0.776-0.622-1.659-1.087-2.655-1.385c-1-0.299-1.97-0.446-2.916-0.446c-1.002,0-1.984,0.147-2.954,0.446
			c-0.97,0.298-1.854,0.763-2.654,1.385s-1.448,1.44-1.947,2.466c-0.349,0.719-0.58,1.562-0.683,2.521v2.543
			c0,2.991-2.441,5.413-5.451,5.413h-1.037C330.576,366.101,328.135,363.679,328.135,360.688z"/>
		<path fill-rule="evenodd" clip-rule="evenodd" fill="#344FA1" d="M362.421,372.023c0.641,0,1.158,0.517,1.158,1.159
			c0,0.64-0.518,1.164-1.158,1.164c-0.646,0-1.166-0.524-1.166-1.164C361.255,372.54,361.774,372.023,362.421,372.023z"/>
		<path fill-rule="evenodd" clip-rule="evenodd" fill="#344FA1" d="M334.097,372.023c0.647,0,1.166,0.517,1.166,1.159
			c0,0.64-0.519,1.164-1.166,1.164c-0.642,0-1.159-0.524-1.159-1.164C332.938,372.54,333.456,372.023,334.097,372.023z"/>
		<path fill-rule="evenodd" clip-rule="evenodd" fill="#344FA1" d="M362.421,360.811c0.641,0,1.158,0.519,1.158,1.158
			c0,0.642-0.518,1.166-1.158,1.166c-0.646,0-1.166-0.524-1.166-1.166C361.255,361.33,361.774,360.811,362.421,360.811z"/>
		<path fill-rule="evenodd" clip-rule="evenodd" fill="#344FA1" d="M334.097,360.811c0.647,0,1.166,0.519,1.166,1.158
			c0,0.642-0.519,1.166-1.166,1.166c-0.642,0-1.159-0.524-1.159-1.166C332.938,361.33,333.456,360.811,334.097,360.811z"/>
	</g>
</g>
</svg>
