<?xml version="1.0" encoding="utf-8"?>
<!-- Generator: Adobe Illustrator 15.0.0, SVG Export Plug-In . SVG Version: 6.00 Build 0)  -->
<!DOCTYPE svg PUBLIC "-//W3C//DTD SVG 1.1//EN" "http://www.w3.org/Graphics/SVG/1.1/DTD/svg11.dtd">
<svg version="1.1" id="图层_1" xmlns="http://www.w3.org/2000/svg" xmlns:xlink="http://www.w3.org/1999/xlink" x="0px" y="0px"
	 width="595.279px" height="841.89px" viewBox="0 0 595.279 841.89" enable-background="new 0 0 595.279 841.89"
	 xml:space="preserve">
<g>
	<g>
		<g>
			
				<radialGradient id="SVGID_1_" cx="297.8923" cy="1726.3853" r="122.3926" gradientTransform="matrix(1 0 0 0.323 0 -13.6804)" gradientUnits="userSpaceOnUse">
				<stop  offset="0" style="stop-color:#CFD4DC"/>
				<stop  offset="0.4532" style="stop-color:#E4E6EB"/>
				<stop  offset="0.9515" style="stop-color:#FFFFFF"/>
			</radialGradient>
			<ellipse opacity="0.7" fill="url(#SVGID_1_)" cx="297.892" cy="543.941" rx="122.395" ry="39.533"/>
			<g>
				<linearGradient id="SVGID_2_" gradientUnits="userSpaceOnUse" x1="380.5261" y1="290.332" x2="209.7173" y2="461.1409">
					<stop  offset="0" style="stop-color:#FFF099"/>
					<stop  offset="0.1812" style="stop-color:#FCED96"/>
					<stop  offset="0.3401" style="stop-color:#F1E28E"/>
					<stop  offset="0.4908" style="stop-color:#DFD081"/>
					<stop  offset="0.6363" style="stop-color:#C5B76D"/>
					<stop  offset="0.7781" style="stop-color:#A59754"/>
					<stop  offset="0.9154" style="stop-color:#7D7037"/>
					<stop  offset="1" style="stop-color:#615421"/>
				</linearGradient>
				<path fill="url(#SVGID_2_)" d="M411.491,371.022c0,62.561-59.743,112.393-113.275,156.352
					c-49.99-38.291-113.274-93.791-113.274-156.352c0-62.557,50.717-113.271,113.274-113.271
					C360.773,257.751,411.491,308.466,411.491,371.022z"/>
				<path fill="#DCB393" d="M298.169,524.675c-21.017-16.15-50.926-40.383-73.709-67.729
					c-24.819-29.779-37.403-58.687-37.403-85.924c0-61.295,49.869-111.158,111.159-111.158c61.29,0,111.154,49.863,111.154,111.158
					c0,27.46-11.798,54.868-36.066,83.79C351.652,480.609,323.353,503.988,298.169,524.675z"/>
				<circle fill="#DCB393" cx="298.216" cy="366.884" r="89.909"/>
				<g>
					<path fill="#828892" d="M383.698,366.884c0,47.214-38.274,85.489-85.482,85.489c-47.212,0-85.485-38.275-85.485-85.489
						c0-47.213,38.272-85.486,85.485-85.486C345.424,281.397,383.698,319.671,383.698,366.884z"/>
					<radialGradient id="SVGID_3_" cx="349.3552" cy="331.5596" r="139.004" gradientUnits="userSpaceOnUse">
						<stop  offset="0" style="stop-color:#90959E"/>
						<stop  offset="0.6521" style="stop-color:#8D929C"/>
						<stop  offset="1" style="stop-color:#878D97"/>
					</radialGradient>
					<path fill="url(#SVGID_3_)" d="M382.514,367.315c0,46.788-37.93,84.718-84.712,84.718c-46.788,0-84.715-37.93-84.715-84.718
						c0-46.788,37.927-84.716,84.715-84.716C344.585,282.599,382.514,320.527,382.514,367.315z"/>
					<radialGradient id="SVGID_4_" cx="348.4734" cy="332.3154" r="137.7397" gradientUnits="userSpaceOnUse">
						<stop  offset="0" style="stop-color:#9EA2AA"/>
						<stop  offset="0.5019" style="stop-color:#9B9FA8"/>
						<stop  offset="0.863" style="stop-color:#9297A1"/>
						<stop  offset="1" style="stop-color:#8C929D"/>
					</radialGradient>
					<path fill="url(#SVGID_4_)" d="M381.331,367.746c0,46.363-37.585,83.947-83.941,83.947c-46.363,0-83.944-37.584-83.944-83.947
						c0-46.362,37.582-83.945,83.944-83.945C343.746,283.801,381.331,321.384,381.331,367.746z"/>
					<radialGradient id="SVGID_5_" cx="347.5906" cy="333.0718" r="136.4742" gradientUnits="userSpaceOnUse">
						<stop  offset="0" style="stop-color:#ACB0B6"/>
						<stop  offset="0.4248" style="stop-color:#A9ADB4"/>
						<stop  offset="0.7304" style="stop-color:#A0A5AD"/>
						<stop  offset="0.9983" style="stop-color:#9097A2"/>
						<stop  offset="1" style="stop-color:#9097A2"/>
					</radialGradient>
					<path fill="url(#SVGID_5_)" d="M380.147,368.177c0,45.937-37.24,83.175-83.171,83.175c-45.938,0-83.174-37.238-83.174-83.175
						s37.236-83.174,83.174-83.174C342.907,285.002,380.147,322.24,380.147,368.177z"/>
					<radialGradient id="SVGID_6_" cx="346.7087" cy="333.8276" r="135.2099" gradientUnits="userSpaceOnUse">
						<stop  offset="0" style="stop-color:#BABDC2"/>
						<stop  offset="0.3824" style="stop-color:#B7BAC0"/>
						<stop  offset="0.6578" style="stop-color:#AEB2B9"/>
						<stop  offset="0.8988" style="stop-color:#9EA4AE"/>
						<stop  offset="1" style="stop-color:#959CA8"/>
					</radialGradient>
					<path fill="url(#SVGID_6_)" d="M378.964,368.608c0,45.511-36.896,82.404-82.401,82.404c-45.513,0-82.404-36.893-82.404-82.404
						c0-45.512,36.891-82.404,82.404-82.404C342.068,286.204,378.964,323.096,378.964,368.608z"/>
					<radialGradient id="SVGID_7_" cx="345.8269" cy="334.5835" r="133.9456" gradientUnits="userSpaceOnUse">
						<stop  offset="0" style="stop-color:#C7CACF"/>
						<stop  offset="0.3552" style="stop-color:#C4C7CD"/>
						<stop  offset="0.6109" style="stop-color:#BBBFC6"/>
						<stop  offset="0.8348" style="stop-color:#ABB1BA"/>
						<stop  offset="1" style="stop-color:#9AA2AD"/>
					</radialGradient>
					<path fill="url(#SVGID_7_)" d="M377.78,369.039c0,45.086-36.55,81.634-81.63,81.634c-45.088,0-81.633-36.547-81.633-81.634
						c0-45.086,36.545-81.633,81.633-81.633C341.23,287.405,377.78,323.953,377.78,369.039z"/>
					<radialGradient id="SVGID_8_" cx="344.9451" cy="335.3403" r="132.6802" gradientUnits="userSpaceOnUse">
						<stop  offset="0" style="stop-color:#D5D7DB"/>
						<stop  offset="0.3315" style="stop-color:#D2D4D9"/>
						<stop  offset="0.5703" style="stop-color:#C9CCD2"/>
						<stop  offset="0.7799" style="stop-color:#B9BEC6"/>
						<stop  offset="0.9717" style="stop-color:#A3ABB6"/>
						<stop  offset="1" style="stop-color:#9FA7B3"/>
					</radialGradient>
					<path fill="url(#SVGID_8_)" d="M376.596,369.47c0,44.661-36.205,80.863-80.86,80.863c-44.663,0-80.863-36.202-80.863-80.863
						s36.2-80.863,80.863-80.863C340.391,288.607,376.596,324.809,376.596,369.47z"/>
					<radialGradient id="SVGID_9_" cx="344.0632" cy="336.0957" r="131.4154" gradientUnits="userSpaceOnUse">
						<stop  offset="0" style="stop-color:#E3E5E7"/>
						<stop  offset="0.3109" style="stop-color:#E0E2E5"/>
						<stop  offset="0.5348" style="stop-color:#D7DADE"/>
						<stop  offset="0.7314" style="stop-color:#C7CCD2"/>
						<stop  offset="0.9113" style="stop-color:#B1B8C2"/>
						<stop  offset="1" style="stop-color:#A3ACB8"/>
					</radialGradient>
					<path fill="url(#SVGID_9_)" d="M375.413,369.901c0,44.235-35.86,80.091-80.09,80.091c-44.238,0-80.093-35.856-80.093-80.091
						c0-44.236,35.855-80.092,80.093-80.092C339.552,289.809,375.413,325.665,375.413,369.901z"/>
					<radialGradient id="SVGID_10_" cx="343.1814" cy="336.8521" r="130.1506" gradientUnits="userSpaceOnUse">
						<stop  offset="0" style="stop-color:#F1F2F3"/>
						<stop  offset="0.2959" style="stop-color:#EEEFF1"/>
						<stop  offset="0.5089" style="stop-color:#E5E7EA"/>
						<stop  offset="0.696" style="stop-color:#D5D9DF"/>
						<stop  offset="0.8672" style="stop-color:#BFC5CF"/>
						<stop  offset="1" style="stop-color:#A8B1BE"/>
					</radialGradient>
					<path fill="url(#SVGID_10_)" d="M374.229,370.332c0,43.81-35.516,79.32-79.319,79.32c-43.813,0-79.322-35.511-79.322-79.32
						c0-43.81,35.509-79.321,79.322-79.321C338.714,291.01,374.229,326.521,374.229,370.332z"/>
					<radialGradient id="SVGID_11_" cx="342.2986" cy="337.6089" r="128.8856" gradientUnits="userSpaceOnUse">
						<stop  offset="0" style="stop-color:#FFFFFF"/>
						<stop  offset="0.2832" style="stop-color:#FCFCFD"/>
						<stop  offset="0.4871" style="stop-color:#F3F4F6"/>
						<stop  offset="0.6662" style="stop-color:#E3E6EB"/>
						<stop  offset="0.8309" style="stop-color:#CDD2DA"/>
						<stop  offset="0.9845" style="stop-color:#B0B9C5"/>
						<stop  offset="1" style="stop-color:#ADB6C3"/>
					</radialGradient>
					<path fill="url(#SVGID_11_)" d="M373.046,370.763c0,43.384-35.171,78.549-78.549,78.549c-43.388,0-78.552-35.166-78.552-78.549
						c0-43.385,35.164-78.551,78.552-78.551C337.875,292.212,373.046,327.378,373.046,370.763z"/>
				</g>
			</g>
		</g>
	</g>
	<g>
		<path fill-rule="evenodd" clip-rule="evenodd" fill="#B79F30" d="M254.67,357.902v15.678c0,3.156,2.653,5.721,5.917,5.721h1.128
			c3.264,0,5.917-2.564,5.917-5.721v-15.678c0-3.163-2.652-5.721-5.917-5.721h-1.128C257.323,352.182,254.67,354.739,254.67,357.902
			z"/>
		<path fill-rule="evenodd" clip-rule="evenodd" fill="#B79F30" d="M223.419,357.902v15.678c0,3.156,2.653,5.721,5.924,5.721h1.122
			c3.271,0,5.924-2.564,5.924-5.721v-15.678c0-3.163-2.653-5.721-5.924-5.721h-1.122
			C226.072,352.182,223.419,354.739,223.419,357.902z"/>
		<path fill-rule="evenodd" clip-rule="evenodd" fill="#B79F30" d="M237.147,394.956c-2.66-0.769-5.017-1.922-7.072-3.467
			c-2.056-1.539-3.688-3.468-4.896-5.781c-1.155-2.22-1.759-4.81-1.807-7.784l0,0v-0.217v-3.373l0,0v-0.627
			c0-3.304,2.687-5.982,5.998-5.982h1.143c3.31,0,5.997,2.679,5.997,5.982v2.819c0.114,1.06,0.37,1.985,0.752,2.78
			c0.55,1.133,1.263,2.037,2.143,2.725c0.879,0.688,1.854,1.202,2.921,1.532c1.067,0.331,2.148,0.491,3.25,0.491
			c1.042,0,2.109-0.16,3.21-0.491c1.095-0.33,2.068-0.844,2.921-1.532c0.854-0.688,1.551-1.592,2.096-2.725
			c0.51-1.046,0.779-2.313,0.82-3.805v-1.795c0-3.304,2.687-5.982,6.003-5.982h1.142c3.312,0,5.998,2.679,5.998,5.982l0.014,3.824
			c0,3.138-0.604,5.864-1.814,8.177c-1.202,2.313-2.821,4.242-4.848,5.781c-2.029,1.545-4.387,2.698-7.073,3.467
			c-2.687,0.776-5.507,1.161-8.469,1.161S239.8,395.732,237.147,394.956z"/>
		<path fill-rule="evenodd" clip-rule="evenodd" fill="#B79F30" d="M223.372,359.745v-0.628l0,0v-3.191c0-0.088,0-0.168,0-0.256
			v-0.142l0,0c0.047-2.969,0.652-5.565,1.807-7.785c1.209-2.308,2.841-4.235,4.896-5.78c2.055-1.545,4.413-2.697,7.072-3.467
			c2.653-0.77,5.466-1.161,8.428-1.161s5.782,0.392,8.469,1.161s5.044,1.922,7.073,3.467c2.027,1.545,3.646,3.473,4.848,5.78
			c1.209,2.315,1.814,5.04,1.814,8.183v3.191h-0.014v0.628c0,3.305-2.687,5.981-5.998,5.981h-1.142
			c-3.317,0-6.003-2.677-6.003-5.981v-1.796c-0.041-1.49-0.31-2.758-0.82-3.804c-0.544-1.134-1.242-2.038-2.096-2.725
			c-0.853-0.688-1.827-1.202-2.921-1.531c-1.101-0.33-2.168-0.493-3.21-0.493c-1.102,0-2.183,0.163-3.25,0.493
			c-1.068,0.329-2.042,0.843-2.921,1.531c-0.88,0.687-1.593,1.591-2.143,2.725c-0.382,0.795-0.638,1.727-0.752,2.786v2.813
			c0,3.305-2.687,5.981-5.997,5.981h-1.143C226.058,365.727,223.372,363.05,223.372,359.745z"/>
		<path fill-rule="evenodd" clip-rule="evenodd" fill="#B79F30" d="M261.104,372.271c0.705,0,1.275,0.573,1.275,1.282
			c0,0.707-0.571,1.287-1.275,1.287c-0.712,0-1.283-0.58-1.283-1.287C259.821,372.845,260.392,372.271,261.104,372.271z"/>
		<path fill-rule="evenodd" clip-rule="evenodd" fill="#B79F30" d="M229.934,372.271c0.712,0,1.283,0.573,1.283,1.282
			c0,0.707-0.571,1.287-1.283,1.287c-0.705,0-1.275-0.58-1.275-1.287C228.658,372.845,229.229,372.271,229.934,372.271z"/>
		<path fill-rule="evenodd" clip-rule="evenodd" fill="#B79F30" d="M261.104,359.879c0.705,0,1.275,0.574,1.275,1.282
			c0,0.709-0.571,1.288-1.275,1.288c-0.712,0-1.283-0.579-1.283-1.288C259.821,360.453,260.392,359.879,261.104,359.879z"/>
		<path fill-rule="evenodd" clip-rule="evenodd" fill="#B79F30" d="M229.934,359.879c0.712,0,1.283,0.574,1.283,1.282
			c0,0.709-0.571,1.288-1.283,1.288c-0.705,0-1.275-0.579-1.275-1.288C228.658,360.453,229.229,359.879,229.934,359.879z"/>
		<g>
			<path fill-rule="evenodd" clip-rule="evenodd" fill="#B79F30" d="M285.395,340.214h12.257c3.345,0,5.373,2.745,5.373,6.052v1.132
				c0,3.307-2.713,5.984-6.058,5.984l-6.742-0.088l-4.83,0.02c-3.345,0-6.058-2.677-6.058-5.982v-1.134
				C279.337,342.892,282.05,340.214,285.395,340.214z"/>
			<path fill-rule="evenodd" clip-rule="evenodd" fill="#B79F30" d="M290.203,371.628l4.729,0.067h3.834c0.006,0,0.006,0,0.014,0
				h2.761c3.271,0,5.924,2.665,5.924,5.95v1.133c0,3.286-2.653,5.95-5.924,5.95l-6.602-0.088l-4.735,0.021
				c-3.264,0-5.924-2.671-5.924-5.957v-1.126C284.28,374.293,286.939,371.621,290.203,371.628z"/>
			<path fill-rule="evenodd" clip-rule="evenodd" fill="#B79F30" d="M297.497,340.214h0.625l0,0h3.183c0.08,0,0.168,0,0.255,0h0.134
				l0,0c2.962,0.048,5.549,0.655,7.752,1.816c2.303,1.212,4.223,2.845,5.762,4.917c1.531,2.063,2.687,4.431,3.453,7.104
				c0.764,2.67,1.146,5.489,1.146,8.464c0,2.976-0.383,5.809-1.146,8.507c-0.767,2.697-1.922,5.066-3.453,7.104
				c-1.539,2.036-3.459,3.663-5.762,4.869c-2.305,1.215-5.018,1.822-8.141,1.822h-3.183v-0.014h-0.625
				c-3.283,0-5.957-2.706-5.957-6.031v-1.14c0-3.325,2.674-6.029,5.957-6.029h1.786c1.491-0.041,2.755-0.312,3.795-0.824
				c1.122-0.546,2.028-1.255,2.714-2.104c0.686-0.857,1.189-1.835,1.518-2.937c0.33-1.104,0.498-2.178,0.498-3.224
				c0-1.106-0.168-2.192-0.498-3.265c-0.328-1.071-0.832-2.049-1.518-2.934s-1.592-1.6-2.714-2.152
				c-0.799-0.391-1.72-0.641-2.772-0.755h-2.809c-3.283,0-5.957-2.699-5.957-6.024v-1.146
				C291.54,342.912,294.214,340.214,297.497,340.214z"/>
			<path fill-rule="evenodd" clip-rule="evenodd" fill="#B79F30" d="M318.096,388.142l-6.582-13.612
				c-1.338-2.994-4.844-4.344-7.832-3.003l-1.027,0.467c-2.982,1.343-4.325,4.863-2.988,7.866l6.582,13.604
				c1.336,3.002,4.842,4.344,7.831,3.002l1.026-0.458C318.089,394.665,319.431,391.144,318.096,388.142z"/>
			<path fill-rule="evenodd" clip-rule="evenodd" fill="#B79F30" d="M277.704,346.15l-0.1,44.905
				c0.034,3.271,2.707,5.936,5.964,5.936h1.121c3.257,0,5.87-2.664,5.836-5.936l0.101-44.905c-0.034-3.277-2.701-5.937-5.958-5.937
				h-1.121C280.291,340.214,277.672,342.873,277.704,346.15z"/>
			<path fill-rule="evenodd" clip-rule="evenodd" fill="#B79F30" d="M296.866,345.301c0.706,0,1.283,0.572,1.283,1.281
				c0,0.715-0.578,1.289-1.283,1.289c-0.705,0-1.277-0.574-1.277-1.289C295.589,345.873,296.161,345.301,296.866,345.301z"/>
			<path fill-rule="evenodd" clip-rule="evenodd" fill="#B79F30" d="M296.866,376.823c0.706,0,1.283,0.58,1.283,1.289
				c0,0.707-0.578,1.28-1.283,1.28c-0.705,0-1.277-0.573-1.277-1.28C295.589,377.403,296.161,376.823,296.866,376.823z"/>
			<path fill-rule="evenodd" clip-rule="evenodd" fill="#B79F30" d="M305.241,375.183c0.713,0,1.283,0.581,1.283,1.289
				s-0.57,1.281-1.283,1.281c-0.705,0-1.275-0.573-1.275-1.281S304.536,375.183,305.241,375.183z"/>
			<path fill-rule="evenodd" clip-rule="evenodd" fill="#B79F30" d="M283.857,376.823c0.705,0,1.276,0.58,1.276,1.289
				c0,0.707-0.571,1.28-1.276,1.28c-0.706,0-1.283-0.573-1.283-1.28C282.574,377.403,283.152,376.823,283.857,376.823z"/>
			<path fill-rule="evenodd" clip-rule="evenodd" fill="#B79F30" d="M283.857,345.272c0.705,0,1.276,0.575,1.276,1.282
				c0,0.716-0.571,1.289-1.276,1.289c-0.706,0-1.283-0.573-1.283-1.289C282.574,345.848,283.152,345.272,283.857,345.272z"/>
		</g>
		<g>
			<path fill-rule="evenodd" clip-rule="evenodd" fill="#B79F30" d="M359.069,349.684l-17.18,44.178
				c-1.115,3.17-4.701,4.836-7.992,3.724l-1.129-0.385c-3.29-1.113-5.057-4.587-3.936-7.757l17.174-44.172
				c1.121-3.17,4.701-4.842,7.992-3.73l1.128,0.386C358.417,343.039,360.184,346.521,359.069,349.684z"/>
			<path fill-rule="evenodd" clip-rule="evenodd" fill="#B79F30" d="M345.664,349.414l17.085,44.48
				c1.123,3.171,4.702,4.837,7.992,3.724l1.136-0.384c3.291-1.114,5.05-4.595,3.936-7.758l-17.093-44.474
				c-1.115-3.171-4.694-4.843-7.984-3.73l-1.136,0.384C346.308,342.77,344.55,346.251,345.664,349.414z"/>
			<path fill-rule="evenodd" clip-rule="evenodd" fill="#B79F30" d="M352.421,346.413c0.705,0,1.275,0.579,1.275,1.288
				c0,0.708-0.57,1.281-1.275,1.281c-0.706,0-1.283-0.573-1.283-1.281C351.137,346.992,351.715,346.413,352.421,346.413z"/>
			<path fill-rule="evenodd" clip-rule="evenodd" fill="#B79F30" d="M366.262,376.255h-27.718c-3.271,0-5.923,2.665-5.923,5.957
				v1.126c0,3.285,2.652,5.957,5.923,5.957h27.718c3.277,0,5.93-2.672,5.93-5.957v-1.126
				C372.192,378.92,369.54,376.255,366.262,376.255z"/>
			<path fill-rule="evenodd" clip-rule="evenodd" fill="#B79F30" d="M338.604,381.227c0.706,0,1.283,0.573,1.283,1.281
				c0,0.709-0.577,1.288-1.283,1.288c-0.705,0-1.275-0.579-1.275-1.288C337.329,381.8,337.899,381.227,338.604,381.227z"/>
			<path fill-rule="evenodd" clip-rule="evenodd" fill="#B79F30" d="M365.772,381.227c0.705,0,1.275,0.573,1.275,1.281
				c0,0.709-0.57,1.288-1.275,1.288c-0.713,0-1.283-0.579-1.283-1.288C364.489,381.8,365.059,381.227,365.772,381.227z"/>
		</g>
	</g>
</g>
</svg>
