<?xml version="1.0" encoding="utf-8"?>
<!-- Generator: Adobe Illustrator 15.0.0, SVG Export Plug-In . SVG Version: 6.00 Build 0)  -->
<!DOCTYPE svg PUBLIC "-//W3C//DTD SVG 1.1//EN" "http://www.w3.org/Graphics/SVG/1.1/DTD/svg11.dtd">
<svg version="1.1" id="图层_1" xmlns="http://www.w3.org/2000/svg" xmlns:xlink="http://www.w3.org/1999/xlink" x="0px" y="0px"
	 width="595.279px" height="841.89px" viewBox="0 0 595.279 841.89" enable-background="new 0 0 595.279 841.89"
	 xml:space="preserve">
<g>
	<g>
		
			<radialGradient id="SVGID_1_" cx="298.0906" cy="1726.5366" r="122.3926" gradientTransform="matrix(1 0 0 0.323 0 -13.6804)" gradientUnits="userSpaceOnUse">
			<stop  offset="0" style="stop-color:#CFD4DC"/>
			<stop  offset="0.4532" style="stop-color:#E4E6EB"/>
			<stop  offset="0.9515" style="stop-color:#FFFFFF"/>
		</radialGradient>
		<ellipse opacity="0.7" fill="url(#SVGID_1_)" cx="298.091" cy="543.99" rx="122.395" ry="39.533"/>
		<g>
			<linearGradient id="SVGID_2_" gradientUnits="userSpaceOnUse" x1="386.7878" y1="286.8398" x2="219.7496" y2="449.4233">
				<stop  offset="0" style="stop-color:#F59D9A"/>
				<stop  offset="0.28" style="stop-color:#D87B79"/>
				<stop  offset="0.8962" style="stop-color:#902426"/>
				<stop  offset="1" style="stop-color:#831517"/>
			</linearGradient>
			<path fill="url(#SVGID_2_)" d="M411.542,371.072c0,62.563-59.744,112.393-113.277,156.355
				c-49.991-38.293-113.277-93.793-113.277-156.355c0-62.557,50.718-113.268,113.277-113.268
				C360.821,257.804,411.542,308.515,411.542,371.072z"/>
			<path fill="#ED4483" d="M298.219,524.724c-21.017-16.146-50.923-40.385-73.71-67.729c-24.819-29.779-37.405-58.686-37.405-85.924
				c0-61.293,49.869-111.156,111.162-111.156s111.156,49.863,111.156,111.156c0,27.461-11.799,54.867-36.066,83.789
				C351.702,480.662,323.403,504.041,298.219,524.724z"/>
			<path fill="#ED4483" d="M388.175,366.935c0,49.654-40.256,89.91-89.91,89.91c-49.659,0-89.911-40.256-89.911-89.91
				c0-49.656,40.252-89.912,89.911-89.912C347.919,277.023,388.175,317.279,388.175,366.935z"/>
			<g>
				<path fill="#828892" d="M383.749,366.935c0,47.213-38.275,85.486-85.484,85.486c-47.212,0-85.488-38.273-85.488-85.486
					s38.276-85.488,85.488-85.488C345.473,281.447,383.749,319.722,383.749,366.935z"/>
				<radialGradient id="SVGID_3_" cx="349.405" cy="331.6084" r="139.0043" gradientUnits="userSpaceOnUse">
					<stop  offset="0" style="stop-color:#90959E"/>
					<stop  offset="0.6521" style="stop-color:#8D929C"/>
					<stop  offset="1" style="stop-color:#878D97"/>
				</radialGradient>
				<path fill="url(#SVGID_3_)" d="M382.565,367.366c0,46.787-37.931,84.715-84.714,84.715c-46.788,0-84.718-37.928-84.718-84.715
					c0-46.788,37.93-84.718,84.718-84.718C344.635,282.648,382.565,320.578,382.565,367.366z"/>
				<radialGradient id="SVGID_4_" cx="348.5222" cy="332.3643" r="137.74" gradientUnits="userSpaceOnUse">
					<stop  offset="0" style="stop-color:#9EA2AA"/>
					<stop  offset="0.5019" style="stop-color:#9B9FA8"/>
					<stop  offset="0.863" style="stop-color:#9297A1"/>
					<stop  offset="1" style="stop-color:#8C929D"/>
				</radialGradient>
				<circle fill="url(#SVGID_4_)" cx="297.436" cy="367.797" r="83.945"/>
				<radialGradient id="SVGID_5_" cx="347.6404" cy="333.1201" r="136.4757" gradientUnits="userSpaceOnUse">
					<stop  offset="0" style="stop-color:#ACB0B6"/>
					<stop  offset="0.4248" style="stop-color:#A9ADB4"/>
					<stop  offset="0.7304" style="stop-color:#A0A5AD"/>
					<stop  offset="0.9983" style="stop-color:#9097A2"/>
					<stop  offset="1" style="stop-color:#9097A2"/>
				</radialGradient>
				<path fill="url(#SVGID_5_)" d="M380.197,368.228c0,45.936-37.239,83.174-83.172,83.174c-45.938,0-83.177-37.238-83.177-83.174
					c0-45.938,37.239-83.177,83.177-83.177C342.958,285.051,380.197,322.291,380.197,368.228z"/>
				<radialGradient id="SVGID_6_" cx="346.7576" cy="333.877" r="135.2104" gradientUnits="userSpaceOnUse">
					<stop  offset="0" style="stop-color:#BABDC2"/>
					<stop  offset="0.3824" style="stop-color:#B7BAC0"/>
					<stop  offset="0.6578" style="stop-color:#AEB2B9"/>
					<stop  offset="0.8988" style="stop-color:#9EA4AE"/>
					<stop  offset="1" style="stop-color:#959CA8"/>
				</radialGradient>
				<path fill="url(#SVGID_6_)" d="M379.012,368.659c0,45.51-36.894,82.403-82.401,82.403c-45.513,0-82.406-36.893-82.406-82.403
					c0-45.513,36.894-82.407,82.406-82.407C342.119,286.252,379.012,323.146,379.012,368.659z"/>
				<radialGradient id="SVGID_7_" cx="345.8757" cy="334.6328" r="133.9461" gradientUnits="userSpaceOnUse">
					<stop  offset="0" style="stop-color:#C7CACF"/>
					<stop  offset="0.3552" style="stop-color:#C4C7CD"/>
					<stop  offset="0.6109" style="stop-color:#BBBFC6"/>
					<stop  offset="0.8348" style="stop-color:#ABB1BA"/>
					<stop  offset="1" style="stop-color:#9AA2AD"/>
				</radialGradient>
				<path fill="url(#SVGID_7_)" d="M377.829,369.09c0,45.085-36.548,81.632-81.631,81.632c-45.087,0-81.635-36.547-81.635-81.632
					c0-45.087,36.548-81.636,81.635-81.636C341.281,287.454,377.829,324.003,377.829,369.09z"/>
				<radialGradient id="SVGID_8_" cx="344.9929" cy="335.3892" r="132.6813" gradientUnits="userSpaceOnUse">
					<stop  offset="0" style="stop-color:#D5D7DB"/>
					<stop  offset="0.3315" style="stop-color:#D2D4D9"/>
					<stop  offset="0.5703" style="stop-color:#C9CCD2"/>
					<stop  offset="0.7799" style="stop-color:#B9BEC6"/>
					<stop  offset="0.9717" style="stop-color:#A3ABB6"/>
					<stop  offset="1" style="stop-color:#9FA7B3"/>
				</radialGradient>
				<path fill="url(#SVGID_8_)" d="M376.644,369.521c0,44.66-36.202,80.861-80.859,80.861c-44.662,0-80.865-36.202-80.865-80.861
					c0-44.662,36.203-80.866,80.865-80.866C340.442,288.655,376.644,324.859,376.644,369.521z"/>
				<radialGradient id="SVGID_9_" cx="344.1111" cy="336.145" r="131.417" gradientUnits="userSpaceOnUse">
					<stop  offset="0" style="stop-color:#E3E5E7"/>
					<stop  offset="0.3109" style="stop-color:#E0E2E5"/>
					<stop  offset="0.5348" style="stop-color:#D7DADE"/>
					<stop  offset="0.7314" style="stop-color:#C7CCD2"/>
					<stop  offset="0.9113" style="stop-color:#B1B8C2"/>
					<stop  offset="1" style="stop-color:#A3ACB8"/>
				</radialGradient>
				<path fill="url(#SVGID_9_)" d="M375.461,369.952c0,44.234-35.857,80.09-80.089,80.09c-44.237,0-80.095-35.856-80.095-80.09
					c0-44.237,35.857-80.096,80.095-80.096C339.603,289.856,375.461,325.715,375.461,369.952z"/>
				<radialGradient id="SVGID_10_" cx="343.2283" cy="336.9009" r="130.1527" gradientUnits="userSpaceOnUse">
					<stop  offset="0" style="stop-color:#F1F2F3"/>
					<stop  offset="0.2959" style="stop-color:#EEEFF1"/>
					<stop  offset="0.5089" style="stop-color:#E5E7EA"/>
					<stop  offset="0.696" style="stop-color:#D5D9DF"/>
					<stop  offset="0.8672" style="stop-color:#BFC5CF"/>
					<stop  offset="1" style="stop-color:#A8B1BE"/>
				</radialGradient>
				<path fill="url(#SVGID_10_)" d="M374.276,370.383c0,43.809-35.511,79.32-79.318,79.32c-43.812,0-79.324-35.511-79.324-79.32
					c0-43.812,35.512-79.325,79.324-79.325C338.765,291.058,374.276,326.571,374.276,370.383z"/>
				<radialGradient id="SVGID_11_" cx="342.3455" cy="337.6567" r="128.8887" gradientUnits="userSpaceOnUse">
					<stop  offset="0" style="stop-color:#FFFFFF"/>
					<stop  offset="0.2832" style="stop-color:#FCFCFD"/>
					<stop  offset="0.4871" style="stop-color:#F3F4F6"/>
					<stop  offset="0.6662" style="stop-color:#E3E6EB"/>
					<stop  offset="0.8309" style="stop-color:#CDD2DA"/>
					<stop  offset="0.9845" style="stop-color:#B0B9C5"/>
					<stop  offset="1" style="stop-color:#ADB6C3"/>
				</radialGradient>
				<path fill="url(#SVGID_11_)" d="M373.093,370.814c0,43.383-35.166,78.549-78.547,78.549c-43.387,0-78.553-35.166-78.553-78.549
					c0-43.387,35.166-78.555,78.553-78.555C337.927,292.259,373.093,327.427,373.093,370.814z"/>
			</g>
		</g>
		<g>
			<path fill-rule="evenodd" clip-rule="evenodd" fill="#0B0C1C" d="M230.98,338.779h11.423c3.118,0,5.007,3.006,5.007,6.625v1.242
				c0,3.619-2.528,6.553-5.646,6.553l-6.284-0.098l-4.501,0.021c-3.118,0-5.647-2.93-5.647-6.551v-1.242
				C225.333,341.71,227.862,338.779,230.98,338.779z"/>
			<path fill-rule="evenodd" clip-rule="evenodd" fill="#0B0C1C" d="M235.461,373.181l4.407,0.072h3.573c0.006,0,0.006,0,0.012,0
				h2.574c3.047,0,5.521,2.92,5.521,6.518v1.24c0,3.598-2.473,6.516-5.521,6.516l-6.153-0.096l-4.413,0.021
				c-3.042,0-5.521-2.924-5.521-6.521v-1.234C229.94,376.099,232.42,373.173,235.461,373.181z"/>
			<path fill-rule="evenodd" clip-rule="evenodd" fill="#0B0C1C" d="M242.258,338.779h0.583l0,0h2.967c0.074,0,0.156,0,0.237,0
				h0.125l0,0c2.761,0.051,5.171,0.715,7.224,1.988c2.148,1.328,3.938,3.115,5.371,5.383c1.427,2.262,2.503,4.854,3.218,7.781
				c0.712,2.924,1.069,6.012,1.069,9.27s-0.357,6.359-1.069,9.314c-0.714,2.955-1.791,5.551-3.218,7.779
				c-1.434,2.23-3.223,4.012-5.371,5.334c-2.146,1.33-4.676,1.996-7.585,1.996h-2.967v-0.016h-0.583
				c-3.06,0-5.552-2.963-5.552-6.605v-1.248c0-3.641,2.492-6.604,5.552-6.604h1.666c1.39-0.045,2.567-0.342,3.537-0.902
				c1.045-0.6,1.89-1.373,2.529-2.303c0.638-0.939,1.107-2.012,1.414-3.215c0.307-1.211,0.464-2.387,0.464-3.531
				c0-1.213-0.157-2.4-0.464-3.576c-0.307-1.174-0.776-2.246-1.414-3.213c-0.639-0.967-1.484-1.752-2.529-2.355
				c-0.745-0.43-1.603-0.703-2.585-0.828h-2.617c-3.06,0-5.552-2.955-5.552-6.598v-1.256
				C236.706,341.732,239.198,338.779,242.258,338.779z"/>
			<path fill-rule="evenodd" clip-rule="evenodd" fill="#0B0C1C" d="M261.457,391.265l-6.134-14.908
				c-1.246-3.277-4.514-4.756-7.299-3.287l-0.957,0.512c-2.78,1.469-4.032,5.324-2.786,8.611l6.134,14.902
				c1.246,3.285,4.513,4.756,7.299,3.285l0.957-0.502C261.45,398.408,262.701,394.552,261.457,391.265z"/>
			<path fill-rule="evenodd" clip-rule="evenodd" fill="#0B0C1C" d="M223.813,345.279l-0.094,49.178
				c0.031,3.582,2.522,6.5,5.559,6.5h1.045c3.035,0,5.471-2.918,5.439-6.5l0.094-49.178c-0.032-3.59-2.518-6.5-5.552-6.5h-1.045
				C226.223,338.779,223.781,341.689,223.813,345.279z"/>
			<path fill-rule="evenodd" clip-rule="evenodd" fill="#0B0C1C" d="M241.67,344.347c0.658,0,1.195,0.629,1.195,1.404
				c0,0.783-0.538,1.412-1.195,1.412c-0.657,0-1.189-0.629-1.189-1.412C240.481,344.976,241.013,344.347,241.67,344.347z"/>
			<path fill-rule="evenodd" clip-rule="evenodd" fill="#0B0C1C" d="M241.67,378.871c0.658,0,1.195,0.635,1.195,1.41
				s-0.538,1.402-1.195,1.402c-0.657,0-1.189-0.627-1.189-1.402S241.013,378.871,241.67,378.871z"/>
			<path fill-rule="evenodd" clip-rule="evenodd" fill="#0B0C1C" d="M249.476,377.074c0.664,0,1.196,0.635,1.196,1.41
				c0,0.777-0.532,1.404-1.196,1.404c-0.658,0-1.189-0.627-1.189-1.404C248.287,377.708,248.819,377.074,249.476,377.074z"/>
			<path fill-rule="evenodd" clip-rule="evenodd" fill="#0B0C1C" d="M229.547,378.871c0.657,0,1.189,0.635,1.189,1.41
				s-0.532,1.402-1.189,1.402c-0.658,0-1.196-0.627-1.196-1.402S228.889,378.871,229.547,378.871z"/>
			<path fill-rule="evenodd" clip-rule="evenodd" fill="#0B0C1C" d="M229.547,344.318c0.657,0,1.189,0.629,1.189,1.404
				c0,0.783-0.532,1.41-1.189,1.41c-0.658,0-1.196-0.627-1.196-1.41C228.351,344.947,228.889,344.318,229.547,344.318z"/>
			<g>
				<path fill-rule="evenodd" clip-rule="evenodd" fill="#0B0C1C" d="M305.178,360.656v17.168c0,3.457,2.473,6.266,5.515,6.266
					h1.052c3.043,0,5.514-2.809,5.514-6.266v-17.168c0-3.465-2.471-6.266-5.514-6.266h-1.052
					C307.651,354.39,305.178,357.191,305.178,360.656z"/>
				<path fill-rule="evenodd" clip-rule="evenodd" fill="#0B0C1C" d="M276.054,360.656v17.168c0,3.457,2.473,6.266,5.521,6.266
					h1.045c3.049,0,5.521-2.809,5.521-6.266v-17.168c0-3.465-2.472-6.266-5.521-6.266h-1.045
					C278.527,354.39,276.054,357.191,276.054,360.656z"/>
				<path fill-rule="evenodd" clip-rule="evenodd" fill="#0B0C1C" d="M288.848,401.234c-2.479-0.84-4.675-2.105-6.591-3.797
					c-1.916-1.684-3.437-3.797-4.563-6.33c-1.076-2.432-1.64-5.268-1.684-8.525l0,0v-0.236v-3.695l0,0v-0.686
					c0-3.619,2.503-6.553,5.59-6.553h1.064c3.085,0,5.589,2.934,5.589,6.553v3.088c0.107,1.16,0.345,2.172,0.702,3.043
					c0.513,1.24,1.176,2.23,1.997,2.984c0.819,0.754,1.728,1.316,2.723,1.678c0.995,0.363,2.002,0.539,3.029,0.539
					c0.971,0,1.965-0.176,2.993-0.539c1.02-0.361,1.927-0.924,2.723-1.678c0.795-0.754,1.445-1.744,1.953-2.984
					c0.475-1.145,0.726-2.533,0.764-4.166v-1.965c0-3.619,2.504-6.553,5.596-6.553h1.063c3.087,0,5.591,2.934,5.591,6.553
					l0.013,4.188c0,3.436-0.564,6.422-1.691,8.955c-1.119,2.533-2.627,4.646-4.518,6.33c-1.891,1.691-4.088,2.957-6.592,3.797
					c-2.504,0.852-5.133,1.271-7.893,1.271S291.321,402.085,288.848,401.234z"/>
				<path fill-rule="evenodd" clip-rule="evenodd" fill="#0B0C1C" d="M276.01,362.671v-0.686l0,0v-3.494c0-0.098,0-0.186,0-0.281
					v-0.156l0,0c0.044-3.25,0.607-6.094,1.684-8.523c1.127-2.527,2.648-4.641,4.563-6.33c1.916-1.693,4.112-2.957,6.591-3.799
					c2.472-0.842,5.095-1.271,7.855-1.271s5.389,0.43,7.893,1.271s4.701,2.105,6.592,3.799c1.891,1.689,3.398,3.803,4.518,6.33
					c1.127,2.533,1.691,5.518,1.691,8.961v3.494h-0.013v0.686c0,3.621-2.504,6.553-5.591,6.553h-1.063
					c-3.092,0-5.596-2.932-5.596-6.553v-1.965c-0.038-1.633-0.289-3.021-0.764-4.166c-0.508-1.24-1.158-2.23-1.953-2.984
					c-0.796-0.752-1.703-1.316-2.723-1.678c-1.027-0.361-2.022-0.539-2.993-0.539c-1.027,0-2.034,0.178-3.029,0.539
					c-0.995,0.361-1.903,0.926-2.723,1.678c-0.82,0.754-1.484,1.744-1.997,2.984c-0.356,0.871-0.595,1.891-0.702,3.051v3.08
					c0,3.621-2.504,6.553-5.589,6.553H281.6C278.513,369.224,276.01,366.292,276.01,362.671z"/>
				<path fill-rule="evenodd" clip-rule="evenodd" fill="#0B0C1C" d="M311.175,376.39c0.658,0,1.189,0.629,1.189,1.404
					s-0.531,1.41-1.189,1.41c-0.662,0-1.195-0.635-1.195-1.41S310.512,376.39,311.175,376.39z"/>
				<path fill-rule="evenodd" clip-rule="evenodd" fill="#0B0C1C" d="M282.126,376.39c0.663,0,1.195,0.629,1.195,1.404
					s-0.533,1.41-1.195,1.41c-0.657,0-1.189-0.635-1.189-1.41S281.469,376.39,282.126,376.39z"/>
				<path fill-rule="evenodd" clip-rule="evenodd" fill="#0B0C1C" d="M311.175,362.82c0.658,0,1.189,0.629,1.189,1.404
					s-0.531,1.41-1.189,1.41c-0.662,0-1.195-0.635-1.195-1.41S310.512,362.82,311.175,362.82z"/>
				<path fill-rule="evenodd" clip-rule="evenodd" fill="#0B0C1C" d="M282.126,362.82c0.663,0,1.195,0.629,1.195,1.404
					s-0.533,1.41-1.195,1.41c-0.657,0-1.189-0.635-1.189-1.41S281.469,362.82,282.126,362.82z"/>
			</g>
			<g>
				<path fill-rule="evenodd" clip-rule="evenodd" fill="#0B0C1C" d="M348.937,402.087v-0.016h-0.563
					c-2.823,0-5.139-2.045-5.34-4.646c-0.062-0.303-0.1-0.629-0.1-0.953v-0.951c0-2.771,1.521-5.514,4.477-5.514h1.602
					c1.334-0.035,2.93,0,3.869-0.42c1.007-0.457,1.363-0.789,1.977-1.5c0.613-0.709,1.07-1.52,1.365-2.436
					c0.264-0.828,0.414-1.627,0.438-2.41c-0.006-0.221-0.023-0.443-0.05-0.664c-0.075-0.398-0.175-0.797-0.307-1.197
					c-0.294-0.916-0.751-1.736-1.364-2.445c-0.614-0.709-0.971-1.041-1.979-1.5c-0.938-0.422-2.528-0.383-3.868-0.422l-1.29-0.213
					c-2.134-0.361-4.469-2.74-4.469-5.51v-0.953c0-0.082,0-0.156,0.007-0.23c0-2.77,1.99-5.156,4.944-5.156h0.57l2.854-0.008
					c2.805,0,5.246,0.502,7.317,1.508c2.065,1.012,3.794,2.363,5.17,4.055c1.384,1.699,2.417,3.666,3.104,5.91
					c0.389,1.25,0.664,2.543,0.833,3.857c0.162,1.064,0.257,2.148,0.282,3.258h0.006c0,0.088,0,0.184,0,0.273
					c0,0.096,0,0.184,0,0.279h-0.006c-0.051,2.277-0.395,4.447-1.033,6.523c-0.688,2.246-1.721,4.219-3.099,5.91
					c-1.383,1.691-3.104,3.043-5.177,4.055c-2.072,1.004-4.506,1.516-7.316,1.516H348.937z"/>
				<path fill-rule="evenodd" clip-rule="evenodd" fill="#0B0C1C" d="M348.937,377.037v-0.016h-0.563
					c-2.823,0-5.139-2.045-5.34-4.646c-0.062-0.301-0.1-0.627-0.1-0.953v-0.951c0-2.77,1.521-5.512,4.477-5.512h1.602
					c1.334-0.029,2.93,0,3.869-0.422c1.007-0.459,1.363-0.789,1.977-1.5c0.613-0.707,1.07-1.521,1.365-2.438
					c0.264-0.826,0.414-1.625,0.438-2.408c-0.006-0.221-0.023-0.443-0.05-0.664c-0.075-0.4-0.175-0.797-0.307-1.197
					c-0.294-0.916-0.751-1.736-1.364-2.445c-0.614-0.709-0.971-1.041-1.979-1.5c-0.938-0.42-2.528-0.383-3.868-0.42h-1.603
					c-2.953,0-4.469-2.74-4.469-5.512V345.5c0-0.074,0-0.154,0.006-0.229c0-2.77,2.304-5.371,5.258-5.371h0.57l2.854-0.008
					c2.805,0,5.246,0.504,7.317,1.51c2.065,1.01,3.794,2.361,5.17,4.055c1.384,1.697,2.417,3.664,3.104,5.908
					c0.389,1.25,0.664,2.541,0.833,3.857c0.162,1.063,0.257,2.148,0.282,3.256h0.006c0,0.09,0,0.186,0,0.283
					c0,0.088,0,0.176,0,0.273h-0.006c-0.051,2.273-0.395,4.447-1.033,6.521c-0.688,2.246-1.721,4.219-3.099,5.91
					c-1.383,1.691-3.104,3.043-5.177,4.057c-2.072,1.004-4.506,1.514-7.316,1.514H348.937z"/>
				<path fill-rule="evenodd" clip-rule="evenodd" fill="#0B0C1C" d="M329.902,346.41v49.154c0,3.598,2.474,6.516,5.521,6.516h1.052
					c3.048,0,5.521-2.918,5.521-6.516V346.41c0-3.598-2.473-6.518-5.521-6.518h-1.052
					C332.376,339.892,329.902,342.812,329.902,346.41z"/>
				<path fill-rule="evenodd" clip-rule="evenodd" fill="#0B0C1C" d="M335.712,344.613c0.656,0,1.188,0.629,1.188,1.404
					s-0.532,1.412-1.188,1.412c-0.664,0-1.195-0.637-1.195-1.412S335.048,344.613,335.712,344.613z"/>
				<path fill-rule="evenodd" clip-rule="evenodd" fill="#0B0C1C" d="M348.08,344.613c0.657,0,1.195,0.629,1.195,1.404
					s-0.538,1.412-1.195,1.412s-1.188-0.637-1.188-1.412S347.423,344.613,348.08,344.613z"/>
				<path fill-rule="evenodd" clip-rule="evenodd" fill="#0B0C1C" d="M348.08,369.746c0.657,0,1.195,0.627,1.195,1.402
					s-0.538,1.412-1.195,1.412s-1.188-0.637-1.188-1.412S347.423,369.746,348.08,369.746z"/>
				<path fill-rule="evenodd" clip-rule="evenodd" fill="#0B0C1C" d="M348.08,394.884c0.657,0,1.195,0.629,1.195,1.404
					c0,0.783-0.538,1.41-1.195,1.41s-1.188-0.627-1.188-1.41C346.891,395.513,347.423,394.884,348.08,394.884z"/>
				<path fill-rule="evenodd" clip-rule="evenodd" fill="#0B0C1C" d="M335.93,394.884c0.656,0,1.189,0.629,1.189,1.404
					c0,0.783-0.533,1.41-1.189,1.41c-0.657,0-1.195-0.627-1.195-1.41C334.735,395.513,335.273,394.884,335.93,394.884z"/>
			</g>
		</g>
	</g>
</g>
</svg>
