<?xml version="1.0" encoding="utf-8"?>
<!-- Generator: Adobe Illustrator 15.0.0, SVG Export Plug-In . SVG Version: 6.00 Build 0)  -->
<!DOCTYPE svg PUBLIC "-//W3C//DTD SVG 1.1//EN" "http://www.w3.org/Graphics/SVG/1.1/DTD/svg11.dtd">
<svg version="1.1" id="图层_1" xmlns="http://www.w3.org/2000/svg" xmlns:xlink="http://www.w3.org/1999/xlink" x="0px" y="0px"
	 width="595.279px" height="841.89px" viewBox="0 0 595.279 841.89" enable-background="new 0 0 595.279 841.89"
	 xml:space="preserve">
<g>
	<g>
		
			<radialGradient id="SVGID_1_" cx="297.3474" cy="1726.3726" r="122.3926" gradientTransform="matrix(1 0 0 0.323 0 -13.6804)" gradientUnits="userSpaceOnUse">
			<stop  offset="0" style="stop-color:#CFD4DC"/>
			<stop  offset="0.4532" style="stop-color:#E4E6EB"/>
			<stop  offset="0.9515" style="stop-color:#FFFFFF"/>
		</radialGradient>
		<ellipse opacity="0.7" fill="url(#SVGID_1_)" cx="297.347" cy="543.937" rx="122.394" ry="39.533"/>
		<g>
			<path fill="#A0A8C2" d="M410.798,371.019c0,62.563-59.744,112.393-113.278,156.355c-49.99-38.293-113.275-93.793-113.275-156.355
				c0-62.557,50.717-113.268,113.275-113.268C360.079,257.751,410.798,308.462,410.798,371.019z"/>
			<path fill="#A0A8C2" d="M297.303,525.402c-21.016-16.146-50.922-40.385-73.711-67.729
				c-24.818-29.779-37.404-58.686-37.404-85.924c0-61.293,49.869-111.156,111.16-111.156c61.293,0,111.159,49.863,111.159,111.156
				c0,27.461-11.799,54.867-36.068,83.789C350.786,481.339,322.489,504.718,297.303,525.402z"/>
			<circle fill="#A0A8C2" cx="297.52" cy="366.882" r="89.91"/>
			<g>
				<circle fill="#828892" cx="297.519" cy="366.882" r="85.486"/>
				<radialGradient id="SVGID_2_" cx="348.6619" cy="331.5557" r="139.004" gradientUnits="userSpaceOnUse">
					<stop  offset="0" style="stop-color:#90959E"/>
					<stop  offset="0.6521" style="stop-color:#8D929C"/>
					<stop  offset="1" style="stop-color:#878D97"/>
				</radialGradient>
				<circle fill="url(#SVGID_2_)" cx="297.106" cy="367.313" r="84.715"/>
				<radialGradient id="SVGID_3_" cx="347.7791" cy="332.3115" r="137.74" gradientUnits="userSpaceOnUse">
					<stop  offset="0" style="stop-color:#9EA2AA"/>
					<stop  offset="0.5019" style="stop-color:#9B9FA8"/>
					<stop  offset="0.863" style="stop-color:#9297A1"/>
					<stop  offset="1" style="stop-color:#8C929D"/>
				</radialGradient>
				<circle fill="url(#SVGID_3_)" cx="296.693" cy="367.744" r="83.945"/>
				<radialGradient id="SVGID_4_" cx="346.8962" cy="333.0674" r="136.4757" gradientUnits="userSpaceOnUse">
					<stop  offset="0" style="stop-color:#ACB0B6"/>
					<stop  offset="0.4248" style="stop-color:#A9ADB4"/>
					<stop  offset="0.7304" style="stop-color:#A0A5AD"/>
					<stop  offset="0.9983" style="stop-color:#9097A2"/>
					<stop  offset="1" style="stop-color:#9097A2"/>
				</radialGradient>
				<circle fill="url(#SVGID_4_)" cx="296.279" cy="368.175" r="83.174"/>
				<radialGradient id="SVGID_5_" cx="346.0144" cy="333.8242" r="135.2104" gradientUnits="userSpaceOnUse">
					<stop  offset="0" style="stop-color:#BABDC2"/>
					<stop  offset="0.3824" style="stop-color:#B7BAC0"/>
					<stop  offset="0.6578" style="stop-color:#AEB2B9"/>
					<stop  offset="0.8988" style="stop-color:#9EA4AE"/>
					<stop  offset="1" style="stop-color:#959CA8"/>
				</radialGradient>
				<path fill="url(#SVGID_5_)" d="M378.269,368.606c0,45.51-36.893,82.403-82.402,82.403c-45.511,0-82.405-36.893-82.405-82.403
					c0-45.513,36.894-82.407,82.405-82.407C341.377,286.2,378.269,323.094,378.269,368.606z"/>
				<radialGradient id="SVGID_6_" cx="345.1326" cy="334.5801" r="133.9461" gradientUnits="userSpaceOnUse">
					<stop  offset="0" style="stop-color:#C7CACF"/>
					<stop  offset="0.3552" style="stop-color:#C4C7CD"/>
					<stop  offset="0.6109" style="stop-color:#BBBFC6"/>
					<stop  offset="0.8348" style="stop-color:#ABB1BA"/>
					<stop  offset="1" style="stop-color:#9AA2AD"/>
				</radialGradient>
				<circle fill="url(#SVGID_6_)" cx="295.453" cy="369.037" r="81.633"/>
				<radialGradient id="SVGID_7_" cx="344.2507" cy="335.3364" r="132.6813" gradientUnits="userSpaceOnUse">
					<stop  offset="0" style="stop-color:#D5D7DB"/>
					<stop  offset="0.3315" style="stop-color:#D2D4D9"/>
					<stop  offset="0.5703" style="stop-color:#C9CCD2"/>
					<stop  offset="0.7799" style="stop-color:#B9BEC6"/>
					<stop  offset="0.9717" style="stop-color:#A3ABB6"/>
					<stop  offset="1" style="stop-color:#9FA7B3"/>
				</radialGradient>
				<path fill="url(#SVGID_7_)" d="M375.902,369.468c0,44.66-36.202,80.861-80.861,80.861c-44.662,0-80.864-36.202-80.864-80.861
					c0-44.662,36.203-80.866,80.864-80.866C339.7,288.603,375.902,324.806,375.902,369.468z"/>
				<radialGradient id="SVGID_8_" cx="343.3679" cy="336.0923" r="131.417" gradientUnits="userSpaceOnUse">
					<stop  offset="0" style="stop-color:#E3E5E7"/>
					<stop  offset="0.3109" style="stop-color:#E0E2E5"/>
					<stop  offset="0.5348" style="stop-color:#D7DADE"/>
					<stop  offset="0.7314" style="stop-color:#C7CCD2"/>
					<stop  offset="0.9113" style="stop-color:#B1B8C2"/>
					<stop  offset="1" style="stop-color:#A3ACB8"/>
				</radialGradient>
				<path fill="url(#SVGID_8_)" d="M374.718,369.899c0,44.234-35.856,80.09-80.09,80.09c-44.236,0-80.093-35.856-80.093-80.09
					c0-44.237,35.857-80.096,80.093-80.096C338.861,289.804,374.718,325.662,374.718,369.899z"/>
				<radialGradient id="SVGID_9_" cx="342.4861" cy="336.8481" r="130.1527" gradientUnits="userSpaceOnUse">
					<stop  offset="0" style="stop-color:#F1F2F3"/>
					<stop  offset="0.2959" style="stop-color:#EEEFF1"/>
					<stop  offset="0.5089" style="stop-color:#E5E7EA"/>
					<stop  offset="0.696" style="stop-color:#D5D9DF"/>
					<stop  offset="0.8672" style="stop-color:#BFC5CF"/>
					<stop  offset="1" style="stop-color:#A8B1BE"/>
				</radialGradient>
				<path fill="url(#SVGID_9_)" d="M373.534,370.33c0,43.809-35.511,79.32-79.32,79.32c-43.812,0-79.323-35.511-79.323-79.32
					c0-43.812,35.512-79.325,79.323-79.325C338.023,291.005,373.534,326.519,373.534,370.33z"/>
				<radialGradient id="SVGID_10_" cx="341.6033" cy="337.604" r="128.8887" gradientUnits="userSpaceOnUse">
					<stop  offset="0" style="stop-color:#FFFFFF"/>
					<stop  offset="0.2832" style="stop-color:#FCFCFD"/>
					<stop  offset="0.4871" style="stop-color:#F3F4F6"/>
					<stop  offset="0.6662" style="stop-color:#E3E6EB"/>
					<stop  offset="0.8309" style="stop-color:#CDD2DA"/>
					<stop  offset="0.9845" style="stop-color:#B0B9C5"/>
					<stop  offset="1" style="stop-color:#ADB6C3"/>
				</radialGradient>
				<path fill="url(#SVGID_10_)" d="M372.35,370.761c0,43.383-35.166,78.549-78.549,78.549c-43.387,0-78.553-35.166-78.553-78.549
					c0-43.387,35.166-78.555,78.553-78.555C337.184,292.207,372.35,327.375,372.35,370.761z"/>
			</g>
		</g>
		<g>
			<path fill-rule="evenodd" clip-rule="evenodd" fill="#8A8C8F" d="M253.541,375.308v-0.006h0.58c2.891,0,5.27-2.043,5.477-4.615
				c0.064-0.309,0.096-0.627,0.096-0.949v-0.949c0-2.746-1.553-5.477-4.582-5.477h-1.652c-1.369-0.029-3.006,0.006-3.965-0.418
				c-1.041-0.453-1.398-0.783-2.029-1.488c-0.633-0.705-1.1-1.516-1.402-2.424c-0.271-0.818-0.424-1.617-0.455-2.393
				c0.014-0.217,0.025-0.439,0.057-0.662c0.07-0.387,0.178-0.783,0.311-1.186c0.303-0.914,0.77-1.719,1.406-2.43
				c0.625-0.705,0.992-1.027,2.033-1.488c0.953-0.418,2.594-0.381,3.963-0.418h1.646c3.035,0,4.588-2.723,4.588-5.477v-0.941
				c0-0.08,0-0.158-0.008-0.23c0-2.754-2.365-5.334-5.4-5.334h-0.574l-2.934-0.014c-2.885,0-5.383,0.502-7.51,1.502
				c-2.127,1.006-3.895,2.342-5.309,4.031c-1.42,1.684-2.48,3.639-3.186,5.867c-0.398,1.244-0.676,2.523-0.854,3.832
				c-0.17,1.057-0.266,2.135-0.289,3.234h-0.006c0,0.094,0,0.18,0,0.273c0,0.092,0,0.188,0,0.271h0.006
				c0.051,2.266,0.404,4.422,1.053,6.486c0.715,2.229,1.773,4.191,3.188,5.873s3.188,3.025,5.314,4.025
				c2.119,1,4.625,1.502,7.502,1.502H253.541z"/>
			<path fill-rule="evenodd" clip-rule="evenodd" fill="#8A8C8F" d="M252.903,400.232v-0.006h-0.574
				c-2.896,0-5.275-2.035-5.482-4.615c-0.064-0.309-0.096-0.627-0.096-0.949v-0.949c0-2.746,1.553-5.471,4.588-5.471h1.648
				c1.369-0.037,3.004,0,3.963-0.424c1.041-0.453,1.4-0.775,2.031-1.488c0.631-0.705,1.098-1.516,1.406-2.422
				c0.271-0.82,0.416-1.617,0.449-2.395c-0.006-0.217-0.025-0.439-0.051-0.662c-0.076-0.389-0.184-0.783-0.314-1.186
				c-0.305-0.914-0.771-1.719-1.402-2.424c-0.631-0.711-0.998-1.035-2.031-1.494c-0.961-0.418-2.602-0.381-3.971-0.418h-1.646
				c-3.029,0-4.588-2.725-4.588-5.471v-0.949c0-0.078,0-0.148,0.008-0.229c0-2.746,2.371-5.334,5.4-5.334h0.58l2.93-0.008
				c2.883,0,5.381,0.496,7.51,1.494c2.125,1.008,3.893,2.352,5.313,4.033c1.414,1.684,2.475,3.639,3.18,5.867
				c0.398,1.244,0.682,2.523,0.859,3.832c0.164,1.057,0.26,2.135,0.283,3.234h0.006c0,0.094,0,0.186,0,0.273
				c0,0.092,0,0.188,0,0.281h-0.006c-0.043,2.256-0.396,4.412-1.053,6.477c-0.707,2.234-1.766,4.191-3.188,5.873
				c-1.414,1.682-3.188,3.025-5.307,4.025c-2.127,1.006-4.631,1.502-7.51,1.502H252.903z"/>
			<path fill-rule="evenodd" clip-rule="evenodd" fill="#8A8C8F" d="M243.24,383.964c0.178,0.344,0.373,0.684,0.596,1l0.012-0.016
				c0.574,0.813,1.35,1.598,2.289,2.121c0.873,0.482,2.236,1.121,3.422,1.135l2.543,0.037c2.758,0,3.68,2.055,3.68,5.219v1.1
				c0,3.162-2.234,5.73-4.992,5.73h-0.523l0,0c-3.926-0.086-7.365-0.654-9.486-1.727c-1.93-1.15-3.539-2.695-4.82-4.629l0.014-0.014
				c-0.008-0.006-0.014-0.021-0.02-0.029c-0.201-0.309-0.398-0.625-0.586-0.957C229.914,384.101,240.365,378.941,243.24,383.964z"/>
			<path fill-rule="evenodd" clip-rule="evenodd" fill="#8A8C8F" d="M260.256,354.75c-0.178-0.346-0.373-0.684-0.594-1.008
				l-0.014,0.021c-0.574-0.811-1.35-1.602-2.289-2.127c-0.871-0.482-2.271-1.223-3.484-1.207l-2.48,0.041
				c-2.758,0-3.68-2.055-3.68-5.219v-1.1c0-3.162,2.234-5.729,4.992-5.729h0.523l0,0c3.926,0.086,7.365,0.654,9.492,1.725
				c1.924,1.15,3.533,2.695,4.814,4.629l-0.012,0.016c0.006,0.008,0.012,0.021,0.018,0.029c0.203,0.309,0.398,0.625,0.588,0.955
				C273.584,354.613,263.133,359.775,260.256,354.75z"/>
			<path fill-rule="evenodd" clip-rule="evenodd" fill="#8A8C8F" d="M252.311,343.203c0.662,0,1.199,0.611,1.199,1.367
				c0,0.762-0.537,1.373-1.199,1.373c-0.664,0-1.205-0.611-1.205-1.373C251.106,343.814,251.647,343.203,252.311,343.203z"/>
			<path fill-rule="evenodd" clip-rule="evenodd" fill="#8A8C8F" d="M251.496,367.904c0.662,0,1.199,0.613,1.199,1.373
				c0,0.756-0.537,1.367-1.199,1.367s-1.199-0.611-1.199-1.367C250.297,368.517,250.834,367.904,251.496,367.904z"/>
			<path fill-rule="evenodd" clip-rule="evenodd" fill="#8A8C8F" d="M252.311,392.714c0.662,0,1.199,0.611,1.199,1.363
				c0,0.756-0.537,1.375-1.199,1.375c-0.664,0-1.205-0.619-1.205-1.375C251.106,393.326,251.647,392.714,252.311,392.714z"/>
			<g>
				<path fill-rule="evenodd" clip-rule="evenodd" fill="#8A8C8F" d="M303.337,389.423l-20.149-39.717
					c-1.414-3.209-0.254-7.117,2.58-8.736l0.979-0.559c2.832-1.619,6.279-0.326,7.686,2.883l20.151,39.711
					c1.406,3.211,0.252,7.123-2.58,8.74l-0.979,0.553C308.19,393.917,304.745,392.63,303.337,389.423z"/>
				<path fill-rule="evenodd" clip-rule="evenodd" fill="#8A8C8F" d="M282.535,345.593v47.965c0,3.516,2.494,6.361,5.566,6.361
					h1.061c3.074,0,5.566-2.846,5.566-6.361v-47.965c0-3.516-2.492-6.361-5.566-6.361h-1.061
					C285.03,339.232,282.535,342.078,282.535,345.593z"/>
				<path fill-rule="evenodd" clip-rule="evenodd" fill="#8A8C8F" d="M314.583,390.093l20.275-40.695
					c1.408-3.209,0.631-7.154-2.201-8.771l-0.979-0.561c-2.834-1.611-6.279-0.324-7.686,2.883l-20.656,40.732
					c-1.414,3.205-0.252,7.117,2.582,8.732l0.977,0.561C309.729,394.591,313.175,393.298,314.583,390.093z"/>
				<path fill-rule="evenodd" clip-rule="evenodd" fill="#8A8C8F" d="M335.61,345.593v47.965c0,3.516-2.492,6.361-5.566,6.361
					h-1.061c-3.072,0-5.564-2.846-5.564-6.361v-47.965c0-3.516,2.492-6.361,5.564-6.361h1.061
					C333.118,339.232,335.61,342.078,335.61,345.593z"/>
				<path fill-rule="evenodd" clip-rule="evenodd" fill="#8A8C8F" d="M288.67,345.333c0.662,0,1.205,0.619,1.205,1.375
					c0,0.754-0.543,1.365-1.205,1.365s-1.199-0.611-1.199-1.365C287.471,345.953,288.008,345.333,288.67,345.333z"/>
				<path fill-rule="evenodd" clip-rule="evenodd" fill="#8A8C8F" d="M329.602,345.333c0.662,0,1.199,0.619,1.199,1.375
					c0,0.754-0.537,1.365-1.199,1.365s-1.199-0.611-1.199-1.365C328.403,345.953,328.94,345.333,329.602,345.333z"/>
				<path fill-rule="evenodd" clip-rule="evenodd" fill="#8A8C8F" d="M309.005,386.347c0.662,0,1.197,0.611,1.197,1.365
					c0,0.756-0.535,1.365-1.197,1.365c-0.67,0-1.207-0.609-1.207-1.365C307.798,386.958,308.335,386.347,309.005,386.347z"/>
			</g>
			<g>
				<path fill-rule="evenodd" clip-rule="evenodd" fill="#8A8C8F" d="M350.147,345.632v47.82c0,3.5,2.492,6.34,5.564,6.34h1.061
					c3.074,0,5.566-2.84,5.566-6.34v-47.82c0-3.502-2.492-6.348-5.566-6.348h-1.061C352.639,339.285,350.147,342.13,350.147,345.632
					z"/>
				<path fill-rule="evenodd" clip-rule="evenodd" fill="#8A8C8F" d="M356.274,344c0.662,0,1.199,0.619,1.199,1.373
					c0,0.756-0.537,1.367-1.199,1.367c-0.67,0-1.205-0.611-1.205-1.367C355.069,344.619,355.604,344,356.274,344z"/>
				<path fill-rule="evenodd" clip-rule="evenodd" fill="#8A8C8F" d="M356.274,391.978c0.662,0,1.199,0.611,1.199,1.365
					c0,0.756-0.537,1.367-1.199,1.367c-0.67,0-1.205-0.611-1.205-1.367C355.069,392.589,355.604,391.978,356.274,391.978z"/>
			</g>
		</g>
	</g>
</g>
</svg>
