<?xml version="1.0" encoding="utf-8"?>
<!-- Generator: Adobe Illustrator 15.0.0, SVG Export Plug-In . SVG Version: 6.00 Build 0)  -->
<!DOCTYPE svg PUBLIC "-//W3C//DTD SVG 1.1//EN" "http://www.w3.org/Graphics/SVG/1.1/DTD/svg11.dtd">
<svg version="1.1" id="图层_1" xmlns="http://www.w3.org/2000/svg" xmlns:xlink="http://www.w3.org/1999/xlink" x="0px" y="0px"
	 width="595.279px" height="841.89px" viewBox="0 0 595.279 841.89" enable-background="new 0 0 595.279 841.89"
	 xml:space="preserve">
<g>
	<g>
		
			<radialGradient id="SVGID_1_" cx="297.6072" cy="1724.8882" r="122.3916" gradientTransform="matrix(1 0 0 0.323 0 -13.6804)" gradientUnits="userSpaceOnUse">
			<stop  offset="0" style="stop-color:#CFD4DC"/>
			<stop  offset="0.4532" style="stop-color:#E4E6EB"/>
			<stop  offset="0.9515" style="stop-color:#FFFFFF"/>
		</radialGradient>
		<path opacity="0.7" fill="url(#SVGID_1_)" d="M420.003,543.46c0,21.828-54.801,39.529-122.395,39.529
			c-67.598,0-122.397-17.701-122.397-39.529c0-21.836,54.799-39.533,122.397-39.533C365.202,503.927,420.003,521.625,420.003,543.46
			z"/>
		<g>
			<linearGradient id="SVGID_2_" gradientUnits="userSpaceOnUse" x1="380.241" y1="291.5625" x2="209.4308" y2="462.3726">
				<stop  offset="0" style="stop-color:#CCDF83"/>
				<stop  offset="0.1341" style="stop-color:#C3D67D"/>
				<stop  offset="0.3527" style="stop-color:#ABBE6D"/>
				<stop  offset="0.6287" style="stop-color:#839853"/>
				<stop  offset="0.9484" style="stop-color:#4D622E"/>
				<stop  offset="1" style="stop-color:#435928"/>
			</linearGradient>
			<path fill="url(#SVGID_2_)" d="M411.204,372.257c0,62.559-59.74,112.385-113.273,156.348
				c-49.992-38.289-113.275-93.789-113.275-156.348c0-62.562,50.717-113.274,113.275-113.274
				C360.491,258.982,411.204,309.695,411.204,372.257z"/>
			<linearGradient id="SVGID_3_" gradientUnits="userSpaceOnUse" x1="381.9226" y1="297.3657" x2="214.3528" y2="452.0954">
				<stop  offset="0" style="stop-color:#B0D135"/>
				<stop  offset="0.1826" style="stop-color:#A7C835"/>
				<stop  offset="0.4803" style="stop-color:#8FB035"/>
				<stop  offset="0.8541" style="stop-color:#678935"/>
				<stop  offset="1" style="stop-color:#567835"/>
			</linearGradient>
			<path fill="url(#SVGID_3_)" d="M297.885,525.904c-21.016-16.145-50.926-40.381-73.715-67.725
				c-24.816-29.783-37.402-58.691-37.402-85.922c0-61.298,49.871-111.159,111.162-111.159s111.154,49.861,111.154,111.159
				c0,27.454-11.797,54.864-36.064,83.79C351.372,481.839,323.071,505.22,297.885,525.904z"/>
			<linearGradient id="SVGID_4_" gradientUnits="userSpaceOnUse" x1="212.3445" y1="447.3481" x2="376.7052" y2="295.1857">
				<stop  offset="0" style="stop-color:#B0D135"/>
				<stop  offset="0.1826" style="stop-color:#A7C835"/>
				<stop  offset="0.4803" style="stop-color:#8FB035"/>
				<stop  offset="0.8541" style="stop-color:#678935"/>
				<stop  offset="1" style="stop-color:#567835"/>
			</linearGradient>
			<path fill="url(#SVGID_4_)" d="M387.837,368.117c0,49.657-40.254,89.912-89.906,89.912c-49.66,0-89.912-40.254-89.912-89.912
				c0-49.656,40.252-89.915,89.912-89.915C347.583,278.203,387.837,318.461,387.837,368.117z"/>
			<g>
				<path fill="#828892" d="M383.413,368.117c0,47.213-38.273,85.484-85.482,85.484c-47.213,0-85.486-38.271-85.486-85.484
					c0-47.208,38.273-85.485,85.486-85.485C345.139,282.632,383.413,320.909,383.413,368.117z"/>
				<radialGradient id="SVGID_5_" cx="349.0701" cy="332.7925" r="138.9993" gradientUnits="userSpaceOnUse">
					<stop  offset="0" style="stop-color:#90959E"/>
					<stop  offset="0.6521" style="stop-color:#8D929C"/>
					<stop  offset="1" style="stop-color:#878D97"/>
				</radialGradient>
				<path fill="url(#SVGID_5_)" d="M382.229,368.547c0,46.789-37.929,84.714-84.712,84.714c-46.789,0-84.716-37.925-84.716-84.714
					c0-46.783,37.928-84.714,84.716-84.714C344.301,283.833,382.229,321.765,382.229,368.547z"/>
				<radialGradient id="SVGID_6_" cx="348.1873" cy="333.5483" r="137.735" gradientUnits="userSpaceOnUse">
					<stop  offset="0" style="stop-color:#9EA2AA"/>
					<stop  offset="0.5019" style="stop-color:#9B9FA8"/>
					<stop  offset="0.863" style="stop-color:#9297A1"/>
					<stop  offset="1" style="stop-color:#8C929D"/>
				</radialGradient>
				<path fill="url(#SVGID_6_)" d="M381.045,368.978c0,46.363-37.582,83.943-83.94,83.943c-46.364,0-83.946-37.58-83.946-83.943
					c0-46.357,37.582-83.944,83.946-83.944C343.463,285.034,381.045,322.621,381.045,368.978z"/>
				<radialGradient id="SVGID_7_" cx="347.3054" cy="334.3037" r="136.4702" gradientUnits="userSpaceOnUse">
					<stop  offset="0" style="stop-color:#ACB0B6"/>
					<stop  offset="0.4248" style="stop-color:#A9ADB4"/>
					<stop  offset="0.7304" style="stop-color:#A0A5AD"/>
					<stop  offset="0.9983" style="stop-color:#9097A2"/>
					<stop  offset="1" style="stop-color:#9097A2"/>
				</radialGradient>
				<path fill="url(#SVGID_7_)" d="M379.861,369.408c0,45.939-37.237,83.172-83.17,83.172c-45.939,0-83.176-37.233-83.176-83.172
					c0-45.932,37.236-83.172,83.176-83.172C342.624,286.236,379.861,323.477,379.861,369.408z"/>
				<radialGradient id="SVGID_8_" cx="346.4216" cy="335.0596" r="135.2062" gradientUnits="userSpaceOnUse">
					<stop  offset="0" style="stop-color:#BABDC2"/>
					<stop  offset="0.3824" style="stop-color:#B7BAC0"/>
					<stop  offset="0.6578" style="stop-color:#AEB2B9"/>
					<stop  offset="0.8988" style="stop-color:#9EA4AE"/>
					<stop  offset="1" style="stop-color:#959CA8"/>
				</radialGradient>
				<path fill="url(#SVGID_8_)" d="M378.677,369.838c0,45.514-36.892,82.402-82.399,82.402c-45.515,0-82.406-36.888-82.406-82.402
					c0-45.506,36.891-82.401,82.406-82.401C341.785,287.437,378.677,324.333,378.677,369.838z"/>
				<radialGradient id="SVGID_9_" cx="345.5398" cy="335.8154" r="133.9419" gradientUnits="userSpaceOnUse">
					<stop  offset="0" style="stop-color:#C7CACF"/>
					<stop  offset="0.3552" style="stop-color:#C4C7CD"/>
					<stop  offset="0.6109" style="stop-color:#BBBFC6"/>
					<stop  offset="0.8348" style="stop-color:#ABB1BA"/>
					<stop  offset="1" style="stop-color:#9AA2AD"/>
				</radialGradient>
				<path fill="url(#SVGID_9_)" d="M377.493,370.269c0,45.089-36.546,81.632-81.628,81.632c-45.09,0-81.635-36.542-81.635-81.632
					c0-45.081,36.545-81.631,81.635-81.631C340.947,288.638,377.493,325.188,377.493,370.269z"/>
				<radialGradient id="SVGID_10_" cx="344.657" cy="336.5713" r="132.6776" gradientUnits="userSpaceOnUse">
					<stop  offset="0" style="stop-color:#D5D7DB"/>
					<stop  offset="0.3315" style="stop-color:#D2D4D9"/>
					<stop  offset="0.5703" style="stop-color:#C9CCD2"/>
					<stop  offset="0.7799" style="stop-color:#B9BEC6"/>
					<stop  offset="0.9717" style="stop-color:#A3ABB6"/>
					<stop  offset="1" style="stop-color:#9FA7B3"/>
				</radialGradient>
				<path fill="url(#SVGID_10_)" d="M376.308,370.699c0,44.665-36.2,80.862-80.857,80.862c-44.666,0-80.865-36.197-80.865-80.862
					c0-44.655,36.199-80.86,80.865-80.86C340.108,289.839,376.308,326.044,376.308,370.699z"/>
				<radialGradient id="SVGID_11_" cx="343.7751" cy="337.3271" r="131.4123" gradientUnits="userSpaceOnUse">
					<stop  offset="0" style="stop-color:#E3E5E7"/>
					<stop  offset="0.3109" style="stop-color:#E0E2E5"/>
					<stop  offset="0.5348" style="stop-color:#D7DADE"/>
					<stop  offset="0.7314" style="stop-color:#C7CCD2"/>
					<stop  offset="0.9113" style="stop-color:#B1B8C2"/>
					<stop  offset="1" style="stop-color:#A3ACB8"/>
				</radialGradient>
				<path fill="url(#SVGID_11_)" d="M375.125,371.129c0,44.24-35.855,80.091-80.087,80.091c-44.241,0-80.095-35.851-80.095-80.091
					c0-44.229,35.854-80.088,80.095-80.088C339.269,291.041,375.125,326.9,375.125,371.129z"/>
				<radialGradient id="SVGID_12_" cx="342.8923" cy="338.083" r="130.148" gradientUnits="userSpaceOnUse">
					<stop  offset="0" style="stop-color:#F1F2F3"/>
					<stop  offset="0.2959" style="stop-color:#EEEFF1"/>
					<stop  offset="0.5089" style="stop-color:#E5E7EA"/>
					<stop  offset="0.696" style="stop-color:#D5D9DF"/>
					<stop  offset="0.8672" style="stop-color:#BFC5CF"/>
					<stop  offset="1" style="stop-color:#A8B1BE"/>
				</radialGradient>
				<path fill="url(#SVGID_12_)" d="M373.94,371.56c0,43.815-35.509,79.32-79.315,79.32c-43.817,0-79.325-35.505-79.325-79.32
					c0-43.804,35.508-79.318,79.325-79.318C338.431,292.242,373.94,327.756,373.94,371.56z"/>
				<radialGradient id="SVGID_13_" cx="342.0105" cy="338.8389" r="128.8837" gradientUnits="userSpaceOnUse">
					<stop  offset="0" style="stop-color:#FFFFFF"/>
					<stop  offset="0.2832" style="stop-color:#FCFCFD"/>
					<stop  offset="0.4871" style="stop-color:#F3F4F6"/>
					<stop  offset="0.6662" style="stop-color:#E3E6EB"/>
					<stop  offset="0.8309" style="stop-color:#CDD2DA"/>
					<stop  offset="0.9845" style="stop-color:#B0B9C5"/>
					<stop  offset="1" style="stop-color:#ADB6C3"/>
				</radialGradient>
				<path fill="url(#SVGID_13_)" d="M372.757,371.99c0,43.391-35.164,78.55-78.545,78.55c-43.393,0-78.555-35.16-78.555-78.55
					c0-43.378,35.162-78.547,78.555-78.547C337.593,293.443,372.757,328.612,372.757,371.99z"/>
			</g>
		</g>
	</g>
	<g>
		<path fill-rule="evenodd" clip-rule="evenodd" fill="#D383B7" d="M249.876,377.15v-0.009h0.709c3.529,0,6.436-2.261,6.689-5.11
			c0.078-0.343,0.115-0.693,0.115-1.052v-1.05c0-3.041-1.895-6.065-5.596-6.065h-2.018c-1.672-0.033-3.67,0.007-4.84-0.463
			c-1.273-0.501-1.711-0.867-2.48-1.647c-0.771-0.781-1.342-1.68-1.713-2.684c-0.33-0.907-0.516-1.791-0.555-2.649
			c0.018-0.24,0.031-0.486,0.068-0.734c0.088-0.43,0.217-0.867,0.379-1.312c0.369-1.012,0.939-1.904,1.719-2.691
			c0.762-0.78,1.209-1.139,2.482-1.648c1.162-0.462,3.166-0.422,4.838-0.462h2.012c3.707,0,5.604-3.017,5.604-6.065v-1.044
			c0-0.087,0-0.173-0.008-0.255c0-3.049-2.891-5.906-6.596-5.906h-0.701l-3.586-0.016c-3.521,0-6.572,0.557-9.17,1.664
			c-2.598,1.115-4.756,2.595-6.482,4.465c-1.734,1.865-3.029,4.029-3.891,6.496c-0.486,1.378-0.824,2.795-1.041,4.243
			c-0.209,1.171-0.324,2.365-0.354,3.583h-0.008c0,0.104,0,0.198,0,0.303c0,0.103,0,0.207,0,0.302h0.008
			c0.061,2.508,0.494,4.896,1.287,7.182c0.871,2.468,2.166,4.641,3.893,6.504c1.725,1.862,3.891,3.351,6.488,4.457
			c2.588,1.108,5.648,1.665,9.162,1.665H249.876z"/>
		<path fill-rule="evenodd" clip-rule="evenodd" fill="#D383B7" d="M249.096,404.75v-0.008h-0.701c-3.537,0-6.441-2.254-6.695-5.111
			c-0.078-0.342-0.115-0.693-0.115-1.051v-1.051c0-3.042,1.895-6.059,5.602-6.059h2.012c1.672-0.04,3.668,0,4.84-0.469
			c1.271-0.503,1.711-0.859,2.48-1.648c0.771-0.78,1.342-1.68,1.719-2.682c0.332-0.908,0.508-1.791,0.549-2.651
			c-0.008-0.239-0.033-0.487-0.063-0.732c-0.094-0.431-0.225-0.868-0.385-1.313c-0.371-1.013-0.941-1.903-1.713-2.684
			c-0.771-0.789-1.217-1.146-2.48-1.656c-1.172-0.462-3.176-0.422-4.848-0.462h-2.012c-3.699,0-5.602-3.016-5.602-6.058v-1.051
			c0-0.087,0-0.167,0.008-0.255c0-3.04,2.898-5.907,6.596-5.907h0.709l3.576-0.008c3.521,0,6.574,0.549,9.17,1.656
			c2.598,1.114,4.756,2.603,6.49,4.465c1.727,1.864,3.021,4.028,3.883,6.497c0.486,1.378,0.834,2.796,1.051,4.243
			c0.199,1.17,0.314,2.364,0.346,3.582h0.008c0,0.104,0,0.207,0,0.303c0,0.103,0,0.207,0,0.311h-0.008
			c-0.055,2.5-0.484,4.888-1.287,7.174c-0.863,2.475-2.156,4.641-3.891,6.503c-1.727,1.863-3.895,3.352-6.482,4.458
			c-2.598,1.115-5.656,1.664-9.172,1.664H249.096z"/>
		<path fill-rule="evenodd" clip-rule="evenodd" fill="#D383B7" d="M237.298,386.734c0.217,0.382,0.455,0.757,0.725,1.106
			l0.016-0.016c0.703,0.899,1.648,1.769,2.797,2.348c1.064,0.534,2.729,1.243,4.178,1.258l3.105,0.04
			c3.369,0,4.494,2.277,4.494,5.779v1.219c0,3.502-2.729,6.345-6.098,6.345h-0.639l0,0c-4.793-0.095-8.992-0.725-11.584-1.911
			c-2.357-1.273-4.322-2.985-5.887-5.126l0.016-0.016c-0.008-0.008-0.016-0.024-0.023-0.033c-0.246-0.341-0.486-0.69-0.717-1.059
			C221.022,386.887,233.786,381.171,237.298,386.734z"/>
		<path fill-rule="evenodd" clip-rule="evenodd" fill="#D383B7" d="M258.075,354.383c-0.215-0.383-0.453-0.758-0.723-1.115
			l-0.018,0.023c-0.701-0.898-1.646-1.774-2.795-2.355c-1.064-0.534-2.775-1.354-4.256-1.338l-3.029,0.047
			c-3.367,0-4.492-2.275-4.492-5.779v-1.217c0-3.504,2.729-6.345,6.096-6.345h0.639l0,0c4.795,0.096,8.994,0.724,11.592,1.91
			c2.35,1.273,4.316,2.986,5.881,5.126l-0.016,0.018c0.008,0.007,0.016,0.023,0.021,0.03c0.248,0.343,0.486,0.693,0.719,1.059
			C274.352,354.231,261.591,359.947,258.075,354.383z"/>
		<path fill-rule="evenodd" clip-rule="evenodd" fill="#D383B7" d="M248.374,341.597c0.809,0,1.465,0.676,1.465,1.513
			c0,0.845-0.656,1.521-1.465,1.521c-0.811,0-1.473-0.677-1.473-1.521C246.901,342.272,247.563,341.597,248.374,341.597z"/>
		<path fill-rule="evenodd" clip-rule="evenodd" fill="#D383B7" d="M247.378,368.949c0.811,0,1.465,0.679,1.465,1.521
			c0,0.836-0.654,1.513-1.465,1.513c-0.807,0-1.465-0.677-1.465-1.513C245.913,369.628,246.571,368.949,247.378,368.949z"/>
		<path fill-rule="evenodd" clip-rule="evenodd" fill="#D383B7" d="M248.374,396.423c0.809,0,1.465,0.678,1.465,1.512
			c0,0.837-0.656,1.521-1.465,1.521c-0.811,0-1.473-0.685-1.473-1.521C246.901,397.101,247.563,396.423,248.374,396.423z"/>
		<g>
			<path fill-rule="evenodd" clip-rule="evenodd" fill="#D383B7" d="M327.671,392.852l-14.033-50.98
				c-1.078-3.583-3.867-5.143-6.225-3.479l-0.809,0.574c-2.357,1.655-3.396,5.914-2.324,9.497l14.037,50.98
				c1.078,3.582,3.863,5.143,6.219,3.479l0.814-0.572C327.71,400.685,328.747,396.434,327.671,392.852z"/>
			<path fill-rule="evenodd" clip-rule="evenodd" fill="#D383B7" d="M318.098,394.825l9.016-53.001
				c0.717-3.679,3.32-5.788,5.811-4.722l0.857,0.374c2.496,1.066,3.938,4.92,3.219,8.599l-9.01,53.01
				c-0.717,3.678-3.32,5.788-5.811,4.721l-0.857-0.374C318.829,402.365,317.385,398.504,318.098,394.825z"/>
			<path fill-rule="evenodd" clip-rule="evenodd" fill="#D383B7" d="M299.77,394.174l-9.266-52.35
				c-0.713-3.679-3.322-5.788-5.813-4.722l-0.857,0.374c-2.496,1.066-3.938,4.92-3.219,8.599l9.262,52.35
				c0.717,3.678,3.318,5.794,5.816,4.72l0.855-0.365C299.04,401.704,300.487,397.851,299.77,394.174z"/>
			<path fill-rule="evenodd" clip-rule="evenodd" fill="#D383B7" d="M289.921,393.297l14.301-52.182
				c1.082-3.598,3.883-5.167,6.25-3.495l0.814,0.573c2.367,1.672,3.412,5.947,2.328,9.545l-14.295,52.184
				c-1.082,3.597-3.883,5.166-6.25,3.501l-0.814-0.58C289.887,401.179,288.843,396.903,289.921,393.297z"/>
			<ellipse fill-rule="evenodd" clip-rule="evenodd" fill="#D383B7" cx="294.751" cy="396.291" rx="1.018" ry="1.512"/>
			<ellipse fill-rule="evenodd" clip-rule="evenodd" fill="#D383B7" cx="323.327" cy="396.291" rx="1.023" ry="1.512"/>
			<path fill-rule="evenodd" clip-rule="evenodd" fill="#D383B7" d="M308.735,342.469c0.563,0,1.018,0.685,1.018,1.52
				c0,0.837-0.455,1.513-1.018,1.513c-0.561,0-1.021-0.676-1.021-1.513C307.714,343.153,308.175,342.469,308.735,342.469z"/>
		</g>
		<g>
			<path fill-rule="evenodd" clip-rule="evenodd" fill="#D383B7" d="M353.21,344.287v52.955c0,3.875,3.045,7.021,6.797,7.021h1.295
				c3.754,0,6.797-3.146,6.797-7.021v-52.955c0-3.878-3.043-7.029-6.797-7.029h-1.295
				C356.255,337.258,353.21,340.409,353.21,344.287z"/>
			<path fill-rule="evenodd" clip-rule="evenodd" fill="#D383B7" d="M360.692,342.479c0.809,0,1.465,0.687,1.465,1.521
				c0,0.837-0.656,1.513-1.465,1.513c-0.816,0-1.473-0.676-1.473-1.513C359.219,343.165,359.876,342.479,360.692,342.479z"/>
			<path fill-rule="evenodd" clip-rule="evenodd" fill="#D383B7" d="M360.692,395.609c0.809,0,1.465,0.677,1.465,1.513
				s-0.656,1.513-1.465,1.513c-0.816,0-1.473-0.677-1.473-1.513S359.876,395.609,360.692,395.609z"/>
		</g>
	</g>
</g>
</svg>
