<?xml version="1.0" encoding="utf-8"?>
<!-- Generator: Adobe Illustrator 15.0.0, SVG Export Plug-In . SVG Version: 6.00 Build 0)  -->
<!DOCTYPE svg PUBLIC "-//W3C//DTD SVG 1.1//EN" "http://www.w3.org/Graphics/SVG/1.1/DTD/svg11.dtd">
<svg version="1.1" id="图层_1" xmlns="http://www.w3.org/2000/svg" xmlns:xlink="http://www.w3.org/1999/xlink" x="0px" y="0px"
	 width="595.279px" height="841.89px" viewBox="0 0 595.279 841.89" enable-background="new 0 0 595.279 841.89"
	 xml:space="preserve">
<g>
	<g>
		
			<radialGradient id="SVGID_1_" cx="297.9436" cy="1727.5425" r="122.3884" gradientTransform="matrix(1 0 0 0.323 0 -13.6804)" gradientUnits="userSpaceOnUse">
			<stop  offset="0" style="stop-color:#CFD4DC"/>
			<stop  offset="0.4532" style="stop-color:#E4E6EB"/>
			<stop  offset="0.9515" style="stop-color:#FFFFFF"/>
		</radialGradient>
		<ellipse opacity="0.7" fill="url(#SVGID_1_)" cx="297.944" cy="544.316" rx="122.395" ry="39.529"/>
		<g>
			<linearGradient id="SVGID_2_" gradientUnits="userSpaceOnUse" x1="386.6404" y1="287.1626" x2="219.6009" y2="449.7472">
				<stop  offset="0" style="stop-color:#F59D9A"/>
				<stop  offset="0.28" style="stop-color:#D87B79"/>
				<stop  offset="0.8962" style="stop-color:#902426"/>
				<stop  offset="1" style="stop-color:#831517"/>
			</linearGradient>
			<path fill="url(#SVGID_2_)" d="M411.395,371.396c0,62.56-59.746,112.392-113.278,156.353
				c-49.991-38.289-113.278-93.793-113.278-156.353c0-62.559,50.72-113.271,113.278-113.271
				C360.673,258.125,411.395,308.838,411.395,371.396z"/>
			<path fill="#211A59" d="M298.072,525.048c-21.018-16.146-50.924-40.383-73.711-67.729
				c-24.819-29.777-37.403-58.687-37.403-85.923c0-61.292,49.866-111.155,111.16-111.155c61.295,0,111.155,49.864,111.155,111.155
				c0,27.458-11.799,54.869-36.068,83.791C351.555,480.986,323.255,504.367,298.072,525.048z"/>
			<path fill="#211A59" d="M388.026,367.262c0,49.654-40.253,89.91-89.909,89.91c-49.659,0-89.911-40.255-89.911-89.91
				c0-49.658,40.252-89.912,89.911-89.912C347.773,277.35,388.026,317.604,388.026,367.262z"/>
			<g>
				<path fill="#828892" d="M383.6,367.262c0,47.212-38.273,85.486-85.483,85.486c-47.212,0-85.488-38.274-85.488-85.486
					c0-47.213,38.276-85.49,85.488-85.49C345.327,281.772,383.6,320.049,383.6,367.262z"/>
				<radialGradient id="SVGID_3_" cx="349.2566" cy="331.9346" r="139.0043" gradientUnits="userSpaceOnUse">
					<stop  offset="0" style="stop-color:#90959E"/>
					<stop  offset="0.6521" style="stop-color:#8D929C"/>
					<stop  offset="1" style="stop-color:#878D97"/>
				</radialGradient>
				<path fill="url(#SVGID_3_)" d="M382.417,367.692c0,46.787-37.929,84.715-84.713,84.715c-46.787,0-84.718-37.929-84.718-84.715
					c0-46.788,37.931-84.719,84.718-84.719C344.488,282.974,382.417,320.905,382.417,367.692z"/>
				<radialGradient id="SVGID_4_" cx="348.3738" cy="332.6904" r="137.74" gradientUnits="userSpaceOnUse">
					<stop  offset="0" style="stop-color:#9EA2AA"/>
					<stop  offset="0.5019" style="stop-color:#9B9FA8"/>
					<stop  offset="0.863" style="stop-color:#9297A1"/>
					<stop  offset="1" style="stop-color:#8C929D"/>
				</radialGradient>
				<path fill="url(#SVGID_4_)" d="M381.232,368.123c0,46.361-37.583,83.945-83.942,83.945c-46.362,0-83.947-37.583-83.947-83.945
					c0-46.362,37.585-83.948,83.947-83.948C343.649,284.175,381.232,321.761,381.232,368.123z"/>
				<radialGradient id="SVGID_5_" cx="347.4919" cy="333.4468" r="136.4742" gradientUnits="userSpaceOnUse">
					<stop  offset="0" style="stop-color:#ACB0B6"/>
					<stop  offset="0.4248" style="stop-color:#A9ADB4"/>
					<stop  offset="0.7304" style="stop-color:#A0A5AD"/>
					<stop  offset="0.9983" style="stop-color:#9097A2"/>
					<stop  offset="1" style="stop-color:#9097A2"/>
				</radialGradient>
				<path fill="url(#SVGID_5_)" d="M380.049,368.554c0,45.936-37.238,83.173-83.171,83.173c-45.938,0-83.177-37.237-83.177-83.173
					c0-45.937,37.239-83.177,83.177-83.177C342.81,285.377,380.049,322.617,380.049,368.554z"/>
				<radialGradient id="SVGID_6_" cx="346.6091" cy="334.2026" r="135.2099" gradientUnits="userSpaceOnUse">
					<stop  offset="0" style="stop-color:#BABDC2"/>
					<stop  offset="0.3824" style="stop-color:#B7BAC0"/>
					<stop  offset="0.6578" style="stop-color:#AEB2B9"/>
					<stop  offset="0.8988" style="stop-color:#9EA4AE"/>
					<stop  offset="1" style="stop-color:#959CA8"/>
				</radialGradient>
				<path fill="url(#SVGID_6_)" d="M378.864,368.984c0,45.511-36.893,82.403-82.4,82.403c-45.512,0-82.406-36.892-82.406-82.403
					c0-45.512,36.894-82.406,82.406-82.406C341.971,286.579,378.864,323.473,378.864,368.984z"/>
				<radialGradient id="SVGID_7_" cx="345.7273" cy="334.9585" r="133.9456" gradientUnits="userSpaceOnUse">
					<stop  offset="0" style="stop-color:#C7CACF"/>
					<stop  offset="0.3552" style="stop-color:#C4C7CD"/>
					<stop  offset="0.6109" style="stop-color:#BBBFC6"/>
					<stop  offset="0.8348" style="stop-color:#ABB1BA"/>
					<stop  offset="1" style="stop-color:#9AA2AD"/>
				</radialGradient>
				<path fill="url(#SVGID_7_)" d="M377.68,369.415c0,45.086-36.547,81.632-81.63,81.632c-45.087,0-81.636-36.546-81.636-81.632
					c0-45.086,36.548-81.635,81.636-81.635C341.134,287.78,377.68,324.329,377.68,369.415z"/>
				<radialGradient id="SVGID_8_" cx="344.8445" cy="335.7144" r="132.6813" gradientUnits="userSpaceOnUse">
					<stop  offset="0" style="stop-color:#D5D7DB"/>
					<stop  offset="0.3315" style="stop-color:#D2D4D9"/>
					<stop  offset="0.5703" style="stop-color:#C9CCD2"/>
					<stop  offset="0.7799" style="stop-color:#B9BEC6"/>
					<stop  offset="0.9717" style="stop-color:#A3ABB6"/>
					<stop  offset="1" style="stop-color:#9FA7B3"/>
				</radialGradient>
				<path fill="url(#SVGID_8_)" d="M376.496,369.846c0,44.661-36.201,80.862-80.859,80.862c-44.662,0-80.865-36.201-80.865-80.862
					c0-44.661,36.203-80.864,80.865-80.864C340.295,288.981,376.496,325.185,376.496,369.846z"/>
				<radialGradient id="SVGID_9_" cx="343.9617" cy="336.4707" r="131.4157" gradientUnits="userSpaceOnUse">
					<stop  offset="0" style="stop-color:#E3E5E7"/>
					<stop  offset="0.3109" style="stop-color:#E0E2E5"/>
					<stop  offset="0.5348" style="stop-color:#D7DADE"/>
					<stop  offset="0.7314" style="stop-color:#C7CCD2"/>
					<stop  offset="0.9113" style="stop-color:#B1B8C2"/>
					<stop  offset="1" style="stop-color:#A3ACB8"/>
				</radialGradient>
				<path fill="url(#SVGID_9_)" d="M375.312,370.276c0,44.235-35.856,80.09-80.088,80.09c-44.238,0-80.095-35.855-80.095-80.09
					c0-44.236,35.857-80.093,80.095-80.093C339.456,290.183,375.312,326.041,375.312,370.276z"/>
				<radialGradient id="SVGID_10_" cx="343.0798" cy="337.2266" r="130.1511" gradientUnits="userSpaceOnUse">
					<stop  offset="0" style="stop-color:#F1F2F3"/>
					<stop  offset="0.2959" style="stop-color:#EEEFF1"/>
					<stop  offset="0.5089" style="stop-color:#E5E7EA"/>
					<stop  offset="0.696" style="stop-color:#D5D9DF"/>
					<stop  offset="0.8672" style="stop-color:#BFC5CF"/>
					<stop  offset="1" style="stop-color:#A8B1BE"/>
				</radialGradient>
				<path fill="url(#SVGID_10_)" d="M374.128,370.707c0,43.81-35.511,79.32-79.317,79.32c-43.813,0-79.324-35.51-79.324-79.32
					c0-43.811,35.511-79.322,79.324-79.322C338.617,291.385,374.128,326.896,374.128,370.707z"/>
				<radialGradient id="SVGID_11_" cx="342.197" cy="337.9829" r="128.8866" gradientUnits="userSpaceOnUse">
					<stop  offset="0" style="stop-color:#FFFFFF"/>
					<stop  offset="0.2832" style="stop-color:#FCFCFD"/>
					<stop  offset="0.4871" style="stop-color:#F3F4F6"/>
					<stop  offset="0.6662" style="stop-color:#E3E6EB"/>
					<stop  offset="0.8309" style="stop-color:#CDD2DA"/>
					<stop  offset="0.9845" style="stop-color:#B0B9C5"/>
					<stop  offset="1" style="stop-color:#ADB6C3"/>
				</radialGradient>
				<path fill="url(#SVGID_11_)" d="M372.944,371.138c0,43.385-35.166,78.549-78.547,78.549c-43.388,0-78.554-35.165-78.554-78.549
					c0-43.385,35.166-78.551,78.554-78.551C337.778,292.586,372.944,327.752,372.944,371.138z"/>
			</g>
		</g>
	</g>
	<g>
		<path fill-rule="evenodd" clip-rule="evenodd" fill="#E8E759" d="M253.472,339.634H224.97c-3.104,0-5.623,2.94-5.623,6.564v1.25
			c0,3.625,2.519,6.564,5.623,6.564h28.502c3.11,0,5.629-2.939,5.629-6.564v-1.25C259.102,342.574,256.583,339.634,253.472,339.634z
			"/>
		<path fill-rule="evenodd" clip-rule="evenodd" fill="#E8E759" d="M233.065,346.198v49.504c0,3.625,2.519,6.571,5.623,6.571h1.071
			c3.105,0,5.623-2.946,5.623-6.571v-49.504c0-3.624-2.518-6.564-5.623-6.564h-1.071
			C235.584,339.634,233.065,342.574,233.065,346.198z"/>
		<path fill-rule="evenodd" clip-rule="evenodd" fill="#E8E759" d="M239.007,345.246c0.67,0,1.211,0.633,1.211,1.414
			c0,0.788-0.542,1.422-1.211,1.422c-0.669,0-1.218-0.634-1.218-1.422C237.789,345.879,238.338,345.246,239.007,345.246z"/>
		<g>
			<path fill-rule="evenodd" clip-rule="evenodd" fill="#E8E759" d="M302.05,349.401l-16.308,48.738
				c-1.059,3.498-4.462,5.336-7.586,4.107l-1.071-0.423c-3.123-1.229-4.8-5.061-3.735-8.559l16.301-48.73
				c1.064-3.498,4.463-5.344,7.586-4.116l1.072,0.425C301.43,342.071,303.108,345.912,302.05,349.401z"/>
			<path fill-rule="evenodd" clip-rule="evenodd" fill="#E8E759" d="M289.325,349.104l16.216,49.073
				c1.064,3.498,4.463,5.336,7.586,4.108l1.078-0.424c3.123-1.229,4.795-5.069,3.736-8.559l-16.225-49.065
				c-1.059-3.498-4.457-5.343-7.581-4.115l-1.077,0.423C289.937,341.773,288.267,345.614,289.325,349.104z"/>
			<path fill-rule="evenodd" clip-rule="evenodd" fill="#E8E759" d="M295.738,345.793c0.67,0,1.211,0.64,1.211,1.421
				s-0.541,1.414-1.211,1.414c-0.669,0-1.218-0.633-1.218-1.414S295.069,345.793,295.738,345.793z"/>
			<path fill-rule="evenodd" clip-rule="evenodd" fill="#E8E759" d="M308.876,378.717h-26.308c-3.105,0-5.623,2.938-5.623,6.571
				v1.242c0,3.624,2.518,6.571,5.623,6.571h26.308c3.111,0,5.629-2.947,5.629-6.571v-1.242
				C314.505,381.655,311.987,378.717,308.876,378.717z"/>
			<path fill-rule="evenodd" clip-rule="evenodd" fill="#E8E759" d="M282.624,384.2c0.67,0,1.218,0.634,1.218,1.415
				s-0.548,1.421-1.218,1.421c-0.669,0-1.211-0.64-1.211-1.421S281.955,384.2,282.624,384.2z"/>
			<path fill-rule="evenodd" clip-rule="evenodd" fill="#E8E759" d="M308.411,384.2c0.67,0,1.211,0.634,1.211,1.415
				s-0.541,1.421-1.211,1.421c-0.676,0-1.217-0.64-1.217-1.421S307.735,384.2,308.411,384.2z"/>
		</g>
		<g>
			<path fill-rule="evenodd" clip-rule="evenodd" fill="#E8E759" d="M332.147,347.024v48.79c0,3.625,2.518,6.571,5.623,6.571h1.07
				c3.105,0,5.623-2.946,5.623-6.571v-48.79c0-3.624-2.518-6.571-5.623-6.571h-1.07C334.665,340.453,332.147,343.4,332.147,347.024z
				"/>
			<path fill-rule="evenodd" clip-rule="evenodd" fill="#E8E759" d="M364.175,346.311v48.589c0,3.624,2.52,6.563,5.623,6.563h1.064
				c3.111,0,5.629-2.939,5.629-6.563v-48.589c0-3.625-2.518-6.564-5.629-6.564h-1.064
				C366.694,339.746,364.175,342.686,364.175,346.311z"/>
			<path fill-rule="evenodd" clip-rule="evenodd" fill="#E8E759" d="M364.876,399.193l-31.918-48.634
				c-1.658-3.163-0.797-7.315,1.932-9.272l0.938-0.67c2.727-1.958,6.285-0.983,7.947,2.18l31.92,48.634
				c1.664,3.163,0.797,7.315-1.926,9.273l-0.938,0.67C370.104,403.331,366.884,402.267,364.876,399.193z"/>
			<path fill-rule="evenodd" clip-rule="evenodd" fill="#E8E759" d="M338.663,345.931c0.67,0,1.211,0.64,1.211,1.422
				c0,0.781-0.541,1.413-1.211,1.413c-0.676,0-1.219-0.632-1.219-1.413C337.444,346.57,337.987,345.931,338.663,345.931z"/>
			<path fill-rule="evenodd" clip-rule="evenodd" fill="#E8E759" d="M369.899,393.434c0.67,0,1.211,0.64,1.211,1.421
				s-0.541,1.414-1.211,1.414c-0.676,0-1.217-0.633-1.217-1.414S369.223,393.434,369.899,393.434z"/>
		</g>
	</g>
</g>
</svg>
