<?xml version="1.0" encoding="utf-8"?>
<!-- Generator: Adobe Illustrator 15.0.0, SVG Export Plug-In . SVG Version: 6.00 Build 0)  -->
<!DOCTYPE svg PUBLIC "-//W3C//DTD SVG 1.1//EN" "http://www.w3.org/Graphics/SVG/1.1/DTD/svg11.dtd">
<svg version="1.1" id="图层_1" xmlns="http://www.w3.org/2000/svg" xmlns:xlink="http://www.w3.org/1999/xlink" x="0px" y="0px"
	 width="595.279px" height="841.89px" viewBox="0 0 595.279 841.89" enable-background="new 0 0 595.279 841.89"
	 xml:space="preserve">
<g>
	<g>
		
			<radialGradient id="SVGID_1_" cx="297.2078" cy="1725.855" r="122.3916" gradientTransform="matrix(1 0 0 0.323 0 -13.6804)" gradientUnits="userSpaceOnUse">
			<stop  offset="0" style="stop-color:#CFD4DC"/>
			<stop  offset="0.4532" style="stop-color:#E4E6EB"/>
			<stop  offset="0.9515" style="stop-color:#FFFFFF"/>
		</radialGradient>
		<ellipse opacity="0.7" fill="url(#SVGID_1_)" cx="297.208" cy="543.769" rx="122.395" ry="39.533"/>
		<g>
			<linearGradient id="SVGID_2_" gradientUnits="userSpaceOnUse" x1="379.6912" y1="291.873" x2="208.8803" y2="462.6839">
				<stop  offset="0" style="stop-color:#92D4F4"/>
				<stop  offset="0.1269" style="stop-color:#8CCDED"/>
				<stop  offset="0.3132" style="stop-color:#7CBBD9"/>
				<stop  offset="0.536" style="stop-color:#629CB9"/>
				<stop  offset="0.7849" style="stop-color:#3F728C"/>
				<stop  offset="1" style="stop-color:#1B4860"/>
			</linearGradient>
			<path fill="url(#SVGID_2_)" d="M410.657,372.567c0,62.559-59.744,112.389-113.276,156.35
				c-49.993-38.288-113.278-93.791-113.278-156.35s50.718-113.274,113.278-113.274C359.938,259.292,410.657,310.008,410.657,372.567
				z"/>
			<linearGradient id="SVGID_3_" gradientUnits="userSpaceOnUse" x1="381.3718" y1="297.6748" x2="213.8033" y2="452.4033">
				<stop  offset="0" style="stop-color:#5BB6E6"/>
				<stop  offset="0.1633" style="stop-color:#57B0DF"/>
				<stop  offset="0.403" style="stop-color:#4D9FCB"/>
				<stop  offset="0.6898" style="stop-color:#3B84AB"/>
				<stop  offset="1" style="stop-color:#245F80"/>
			</linearGradient>
			<path fill="url(#SVGID_3_)" d="M297.334,526.209c-21.019-16.143-50.927-40.378-73.714-67.726
				c-24.816-29.773-37.403-58.681-37.403-85.92c0-61.292,49.872-111.159,111.163-111.159c61.29,0,111.153,49.867,111.153,111.159
				c0,27.459-11.797,54.869-36.063,83.792C350.819,482.152,322.518,505.534,297.334,526.209z"/>
			<linearGradient id="SVGID_4_" gradientUnits="userSpaceOnUse" x1="211.7966" y1="447.6577" x2="376.1559" y2="295.4966">
				<stop  offset="0" style="stop-color:#5BB6E6"/>
				<stop  offset="0.1633" style="stop-color:#57B0DF"/>
				<stop  offset="0.403" style="stop-color:#4D9FCB"/>
				<stop  offset="0.6898" style="stop-color:#3B84AB"/>
				<stop  offset="1" style="stop-color:#245F80"/>
			</linearGradient>
			<path fill="url(#SVGID_4_)" d="M387.286,368.43c0,49.654-40.252,89.907-89.905,89.907c-49.657,0-89.912-40.253-89.912-89.907
				c0-49.659,40.255-89.917,89.912-89.917C347.034,278.513,387.286,318.771,387.286,368.43z"/>
			<g>
				<path fill="#828892" d="M382.864,368.43c0,47.213-38.275,85.48-85.483,85.48c-47.212,0-85.489-38.268-85.489-85.48
					c0-47.217,38.277-85.489,85.489-85.489C344.589,282.941,382.864,321.213,382.864,368.43z"/>
				<radialGradient id="SVGID_5_" cx="348.5203" cy="333.1011" r="139.0007" gradientUnits="userSpaceOnUse">
					<stop  offset="0" style="stop-color:#90959E"/>
					<stop  offset="0.6521" style="stop-color:#8D929C"/>
					<stop  offset="1" style="stop-color:#878D97"/>
				</radialGradient>
				<path fill="url(#SVGID_5_)" d="M381.68,368.86c0,46.788-37.931,84.71-84.713,84.71c-46.788,0-84.719-37.923-84.719-84.71
					c0-46.791,37.931-84.718,84.719-84.718C343.75,284.142,381.68,322.07,381.68,368.86z"/>
				<radialGradient id="SVGID_6_" cx="347.6375" cy="333.8569" r="137.7364" gradientUnits="userSpaceOnUse">
					<stop  offset="0" style="stop-color:#9EA2AA"/>
					<stop  offset="0.5019" style="stop-color:#9B9FA8"/>
					<stop  offset="0.863" style="stop-color:#9297A1"/>
					<stop  offset="1" style="stop-color:#8C929D"/>
				</radialGradient>
				<path fill="url(#SVGID_6_)" d="M380.496,369.29c0,46.363-37.584,83.941-83.941,83.941c-46.363,0-83.948-37.578-83.948-83.941
					c0-46.364,37.585-83.947,83.948-83.947C342.912,285.343,380.496,322.926,380.496,369.29z"/>
				<radialGradient id="SVGID_7_" cx="346.7556" cy="334.6133" r="136.4726" gradientUnits="userSpaceOnUse">
					<stop  offset="0" style="stop-color:#ACB0B6"/>
					<stop  offset="0.4248" style="stop-color:#A9ADB4"/>
					<stop  offset="0.7304" style="stop-color:#A0A5AD"/>
					<stop  offset="0.9983" style="stop-color:#9097A2"/>
					<stop  offset="1" style="stop-color:#9097A2"/>
				</radialGradient>
				<path fill="url(#SVGID_7_)" d="M379.312,369.72c0,45.937-37.239,83.172-83.171,83.172c-45.938,0-83.178-37.235-83.178-83.172
					c0-45.938,37.241-83.175,83.178-83.175C342.073,286.545,379.312,323.783,379.312,369.72z"/>
				<radialGradient id="SVGID_8_" cx="345.8728" cy="335.3691" r="135.2083" gradientUnits="userSpaceOnUse">
					<stop  offset="0" style="stop-color:#BABDC2"/>
					<stop  offset="0.3824" style="stop-color:#B7BAC0"/>
					<stop  offset="0.6578" style="stop-color:#AEB2B9"/>
					<stop  offset="0.8988" style="stop-color:#9EA4AE"/>
					<stop  offset="1" style="stop-color:#959CA8"/>
				</radialGradient>
				<path fill="url(#SVGID_8_)" d="M378.128,370.15c0,45.512-36.894,82.402-82.399,82.402c-45.513,0-82.408-36.89-82.408-82.402
					c0-45.511,36.895-82.404,82.408-82.404C341.234,287.746,378.128,324.639,378.128,370.15z"/>
				<radialGradient id="SVGID_9_" cx="344.991" cy="336.125" r="133.944" gradientUnits="userSpaceOnUse">
					<stop  offset="0" style="stop-color:#C7CACF"/>
					<stop  offset="0.3552" style="stop-color:#C4C7CD"/>
					<stop  offset="0.6109" style="stop-color:#BBBFC6"/>
					<stop  offset="0.8348" style="stop-color:#ABB1BA"/>
					<stop  offset="1" style="stop-color:#9AA2AD"/>
				</radialGradient>
				<path fill="url(#SVGID_9_)" d="M376.944,370.58c0,45.087-36.548,81.632-81.628,81.632c-45.088,0-81.638-36.545-81.638-81.632
					c0-45.084,36.549-81.633,81.638-81.633C340.396,288.947,376.944,325.496,376.944,370.58z"/>
				<radialGradient id="SVGID_10_" cx="344.1082" cy="336.8809" r="132.6797" gradientUnits="userSpaceOnUse">
					<stop  offset="0" style="stop-color:#D5D7DB"/>
					<stop  offset="0.3315" style="stop-color:#D2D4D9"/>
					<stop  offset="0.5703" style="stop-color:#C9CCD2"/>
					<stop  offset="0.7799" style="stop-color:#B9BEC6"/>
					<stop  offset="0.9717" style="stop-color:#A3ABB6"/>
					<stop  offset="1" style="stop-color:#9FA7B3"/>
				</radialGradient>
				<path fill="url(#SVGID_10_)" d="M375.76,371.01c0,44.662-36.202,80.862-80.857,80.862c-44.664,0-80.867-36.201-80.867-80.862
					c0-44.658,36.204-80.862,80.867-80.862C339.557,290.148,375.76,326.352,375.76,371.01z"/>
				<radialGradient id="SVGID_11_" cx="343.2263" cy="337.6377" r="131.4154" gradientUnits="userSpaceOnUse">
					<stop  offset="0" style="stop-color:#E3E5E7"/>
					<stop  offset="0.3109" style="stop-color:#E0E2E5"/>
					<stop  offset="0.5348" style="stop-color:#D7DADE"/>
					<stop  offset="0.7314" style="stop-color:#C7CCD2"/>
					<stop  offset="0.9113" style="stop-color:#B1B8C2"/>
					<stop  offset="1" style="stop-color:#A3ACB8"/>
				</radialGradient>
				<path fill="url(#SVGID_11_)" d="M374.576,371.44c0,44.236-35.857,80.093-80.086,80.093c-44.238,0-80.097-35.857-80.097-80.093
					c0-44.232,35.859-80.09,80.097-80.09C338.719,291.35,374.576,327.208,374.576,371.44z"/>
				<radialGradient id="SVGID_12_" cx="342.3435" cy="338.3936" r="130.1511" gradientUnits="userSpaceOnUse">
					<stop  offset="0" style="stop-color:#F1F2F3"/>
					<stop  offset="0.2959" style="stop-color:#EEEFF1"/>
					<stop  offset="0.5089" style="stop-color:#E5E7EA"/>
					<stop  offset="0.696" style="stop-color:#D5D9DF"/>
					<stop  offset="0.8672" style="stop-color:#BFC5CF"/>
					<stop  offset="1" style="stop-color:#A8B1BE"/>
				</radialGradient>
				<path fill="url(#SVGID_12_)" d="M373.391,371.87c0,43.811-35.511,79.324-79.315,79.324c-43.813,0-79.327-35.513-79.327-79.324
					c0-43.805,35.513-79.319,79.327-79.319C337.881,292.551,373.391,328.065,373.391,371.87z"/>
				<radialGradient id="SVGID_13_" cx="341.4607" cy="339.1494" r="128.8871" gradientUnits="userSpaceOnUse">
					<stop  offset="0" style="stop-color:#FFFFFF"/>
					<stop  offset="0.2832" style="stop-color:#FCFCFD"/>
					<stop  offset="0.4871" style="stop-color:#F3F4F6"/>
					<stop  offset="0.6662" style="stop-color:#E3E6EB"/>
					<stop  offset="0.8309" style="stop-color:#CDD2DA"/>
					<stop  offset="0.9845" style="stop-color:#B0B9C5"/>
					<stop  offset="1" style="stop-color:#ADB6C3"/>
				</radialGradient>
				<path fill="url(#SVGID_13_)" d="M372.208,372.3c0,43.386-35.166,78.554-78.544,78.554c-43.389,0-78.556-35.168-78.556-78.554
					c0-43.379,35.167-78.548,78.556-78.548C337.042,293.752,372.208,328.921,372.208,372.3z"/>
			</g>
		</g>
	</g>
	<g>
		<path fill-rule="evenodd" clip-rule="evenodd" fill="#ED3227" d="M263.039,336.661h-28.703c-3.125,0-5.662,2.807-5.662,6.266
			v1.193c0,3.461,2.537,6.266,5.662,6.266h28.703c3.132,0,5.668-2.805,5.668-6.266v-1.193
			C268.707,339.467,266.171,336.661,263.039,336.661z"/>
		<path fill-rule="evenodd" clip-rule="evenodd" fill="#ED3227" d="M242.489,342.926v47.256c0,3.46,2.537,6.271,5.662,6.271h1.079
			c3.127,0,5.662-2.813,5.662-6.271v-47.256c0-3.459-2.535-6.266-5.662-6.266h-1.079
			C245.025,336.661,242.489,339.467,242.489,342.926z"/>
		<path fill-rule="evenodd" clip-rule="evenodd" fill="#ED3227" d="M248.471,342.017c0.675,0,1.22,0.604,1.22,1.351
			c0,0.752-0.545,1.356-1.22,1.356c-0.673,0-1.226-0.604-1.226-1.356C247.245,342.622,247.798,342.017,248.471,342.017z"/>
		<g>
			<path fill-rule="evenodd" clip-rule="evenodd" fill="#ED3227" d="M287.804,336.661h11.716c3.196,0,5.135,2.892,5.135,6.373v1.193
				c0,3.48-2.593,6.301-5.79,6.301l-6.445-0.093l-4.616,0.021c-3.197,0-5.791-2.819-5.791-6.301v-1.193
				C282.013,339.482,284.607,336.661,287.804,336.661z"/>
			<path fill-rule="evenodd" clip-rule="evenodd" fill="#ED3227" d="M292.401,369.744l4.52,0.071h3.665c0.007,0,0.007,0,0.013,0
				h2.64c3.125,0,5.662,2.807,5.662,6.266v1.193c0,3.46-2.537,6.266-5.662,6.266l-6.311-0.092l-4.526,0.021
				c-3.12,0-5.662-2.813-5.662-6.274v-1.185C286.739,372.55,289.281,369.737,292.401,369.744z"/>
			<path fill-rule="evenodd" clip-rule="evenodd" fill="#ED3227" d="M299.372,336.661h0.598l0,0h3.043c0.076,0,0.16,0,0.244,0h0.127
				l0,0c2.832,0.05,5.304,0.689,7.408,1.911c2.202,1.278,4.038,2.998,5.509,5.18c1.463,2.173,2.567,4.667,3.3,7.48
				c0.73,2.812,1.098,5.781,1.098,8.914s-0.367,6.117-1.098,8.958c-0.732,2.842-1.837,5.337-3.3,7.48
				c-1.471,2.146-3.307,3.857-5.509,5.129c-2.201,1.279-4.795,1.918-7.779,1.918h-3.043v-0.013h-0.598
				c-3.139,0-5.694-2.851-5.694-6.352v-1.2c0-3.503,2.556-6.352,5.694-6.352h1.707c1.426-0.043,2.633-0.328,3.628-0.866
				c1.072-0.576,1.938-1.321,2.593-2.216c0.656-0.903,1.137-1.934,1.451-3.092c0.314-1.163,0.476-2.293,0.476-3.396
				c0-1.165-0.161-2.309-0.476-3.438s-0.795-2.159-1.451-3.091c-0.654-0.931-1.521-1.684-2.593-2.266
				c-0.765-0.411-1.644-0.675-2.65-0.796h-2.685c-3.139,0-5.694-2.841-5.694-6.344v-1.207
				C293.677,339.502,296.233,336.661,299.372,336.661z"/>
			<path fill-rule="evenodd" clip-rule="evenodd" fill="#ED3227" d="M319.061,387.133l-6.292-14.335
				c-1.276-3.153-4.628-4.574-7.485-3.162l-0.98,0.492c-2.852,1.413-4.136,5.121-2.858,8.283l6.292,14.328
				c1.277,3.161,4.627,4.575,7.484,3.161l0.982-0.483C319.053,394.003,320.338,390.295,319.061,387.133z"/>
			<path fill-rule="evenodd" clip-rule="evenodd" fill="#ED3227" d="M280.454,342.913l-0.096,47.291
				c0.032,3.445,2.586,6.25,5.701,6.25h1.072c3.113,0,5.611-2.805,5.579-6.25l0.097-47.291c-0.033-3.452-2.581-6.252-5.695-6.252
				h-1.072C282.926,336.661,280.422,339.46,280.454,342.913z"/>
			<path fill-rule="evenodd" clip-rule="evenodd" fill="#ED3227" d="M298.768,342.017c0.675,0,1.227,0.604,1.227,1.351
				c0,0.752-0.552,1.356-1.227,1.356c-0.673,0-1.22-0.604-1.22-1.356C297.548,342.621,298.095,342.017,298.768,342.017z"/>
			<path fill-rule="evenodd" clip-rule="evenodd" fill="#ED3227" d="M298.768,375.214c0.675,0,1.227,0.61,1.227,1.357
				c0,0.745-0.552,1.348-1.227,1.348c-0.673,0-1.22-0.603-1.22-1.348C297.548,375.825,298.095,375.214,298.768,375.214z"/>
			<path fill-rule="evenodd" clip-rule="evenodd" fill="#ED3227" d="M306.774,373.487c0.681,0,1.227,0.611,1.227,1.357
				c0,0.747-0.546,1.35-1.227,1.35c-0.675,0-1.221-0.603-1.221-1.35C305.553,374.098,306.099,373.487,306.774,373.487z"/>
			<path fill-rule="evenodd" clip-rule="evenodd" fill="#ED3227" d="M286.334,375.214c0.674,0,1.22,0.61,1.22,1.357
				c0,0.745-0.546,1.348-1.22,1.348s-1.227-0.603-1.227-1.348C285.108,375.825,285.66,375.214,286.334,375.214z"/>
			<path fill-rule="evenodd" clip-rule="evenodd" fill="#ED3227" d="M286.334,341.989c0.674,0,1.22,0.604,1.22,1.35
				c0,0.753-0.546,1.356-1.22,1.356s-1.227-0.604-1.227-1.356C285.108,342.592,285.66,341.989,286.334,341.989z"/>
		</g>
		<g>
			<path fill-rule="evenodd" clip-rule="evenodd" fill="#ED3227" d="M338.651,343.643v47.256c0,3.459,2.535,6.266,5.662,6.266h1.078
				c3.127,0,5.662-2.807,5.662-6.266v-47.256c0-3.46-2.535-6.271-5.662-6.271h-1.078
				C341.186,337.372,338.651,340.183,338.651,343.643z"/>
			<path fill-rule="evenodd" clip-rule="evenodd" fill="#ED3227" d="M344.884,342.031c0.674,0,1.221,0.61,1.221,1.356
				c0,0.747-0.547,1.35-1.221,1.35c-0.68,0-1.225-0.603-1.225-1.35C343.659,342.641,344.204,342.031,344.884,342.031z"/>
			<path fill-rule="evenodd" clip-rule="evenodd" fill="#ED3227" d="M344.884,389.442c0.674,0,1.221,0.604,1.221,1.35
				c0,0.747-0.547,1.351-1.221,1.351c-0.68,0-1.225-0.604-1.225-1.351C343.659,390.045,344.204,389.442,344.884,389.442z"/>
		</g>
	</g>
</g>
</svg>
